<svg width="32" height="33" viewBox="0 0 32 33" fill="none" xmlns="http://www.w3.org/2000/svg">
<path d="M22.31 14.9625C23.069 14.2317 23.6021 13.2983 23.8459 12.2732C24.0897 11.2482 24.034 10.1747 23.6853 9.18045C23.3366 8.18619 22.7097 7.313 21.8791 6.66474C21.0485 6.01649 20.0492 5.62046 19 5.52375V3.5C19 3.23478 18.8946 2.98043 18.7071 2.79289C18.5196 2.60536 18.2652 2.5 18 2.5C17.7348 2.5 17.4804 2.60536 17.2929 2.79289C17.1054 2.98043 17 3.23478 17 3.5V5.5H15V3.5C15 3.23478 14.8946 2.98043 14.7071 2.79289C14.5196 2.60536 14.2652 2.5 14 2.5C13.7348 2.5 13.4804 2.60536 13.2929 2.79289C13.1054 2.98043 13 3.23478 13 3.5V5.5H9C8.73478 5.5 8.48043 5.60536 8.29289 5.79289C8.10536 5.98043 8 6.23478 8 6.5C8 6.76522 8.10536 7.01957 8.29289 7.20711C8.48043 7.39464 8.73478 7.5 9 7.5H10V24.5H9C8.73478 24.5 8.48043 24.6054 8.29289 24.7929C8.10536 24.9804 8 25.2348 8 25.5C8 25.7652 8.10536 26.0196 8.29289 26.2071C8.48043 26.3946 8.73478 26.5 9 26.5H13V28.5C13 28.7652 13.1054 29.0196 13.2929 29.2071C13.4804 29.3946 13.7348 29.5 14 29.5C14.2652 29.5 14.5196 29.3946 14.7071 29.2071C14.8946 29.0196 15 28.7652 15 28.5V26.5H17V28.5C17 28.7652 17.1054 29.0196 17.2929 29.2071C17.4804 29.3946 17.7348 29.5 18 29.5C18.2652 29.5 18.5196 29.3946 18.7071 29.2071C18.8946 29.0196 19 28.7652 19 28.5V26.5H20C21.3868 26.5 22.7309 26.0196 23.8035 25.1404C24.876 24.2613 25.611 23.0378 25.8832 21.6779C26.1555 20.3181 25.9483 18.9059 25.2968 17.6816C24.6454 16.4573 23.5899 15.4964 22.31 14.9625ZM22 11C22 11.9283 21.6313 12.8185 20.9749 13.4749C20.3185 14.1313 19.4283 14.5 18.5 14.5H12V7.5H18.5C19.4283 7.5 20.3185 7.86875 20.9749 8.52513C21.6313 9.1815 22 10.0717 22 11ZM20 24.5H12V16.5H20C21.0609 16.5 22.0783 16.9214 22.8284 17.6716C23.5786 18.4217 24 19.4391 24 20.5C24 21.5609 23.5786 22.5783 22.8284 23.3284C22.0783 24.0786 21.0609 24.5 20 24.5Z" fill="#F7931A"/>
</svg>
