<svg width="167" height="167" viewBox="0 0 167 167" fill="none" xmlns="http://www.w3.org/2000/svg">
<g clip-path="url(#clip0_2388_1156)">
<g clip-path="url(#clip1_2388_1156)">
<path d="M154.185 24.8675C156.752 27.3352 158.81 30.2832 160.241 33.544C160.758 34.7355 161.181 35.9655 161.508 37.2228C162.434 41.5049 162.505 45.928 161.716 50.2375C161.425 52.1176 160.996 53.9737 160.432 55.7905C159.748 58.1031 158.661 60.2768 157.221 62.2111C156.77 62.8184 156.545 62.5408 156.527 61.812C156.513 60.7491 156.659 59.6902 156.961 58.6711C158.269 54.3646 158.89 49.8787 158.8 45.3787C158.735 42.6261 158.146 39.9111 157.065 37.379C155.944 34.6496 154.339 32.1452 152.328 29.9867C151.053 28.6086 149.647 27.359 148.128 26.2558C145.815 24.5491 143.267 23.1872 140.563 22.2125C138.461 21.5991 136.294 21.2379 134.107 21.1367C133.639 21.1367 133.17 21.1367 132.684 21.0325C130.949 20.7028 130.394 20.3558 129.995 19.2972C129.896 19.0707 129.809 18.839 129.734 18.6031C129.561 17.8396 130.342 17.1802 131.834 16.7637C132.97 16.4771 134.134 16.3142 135.305 16.2778C136.469 16.2846 137.63 16.3949 138.775 16.6075C141.094 17.0341 143.354 17.7331 145.508 18.6899C148.698 20.2516 151.625 22.3007 154.185 24.7634V24.8675Z" fill="#A8D2D1"/>
<path d="M77.6406 120.933C65.2332 115.623 58.9515 106.826 58.5523 95.5114C58.1532 84.1973 67.2288 75.4514 67.7494 75.3994H76.1656L82.5167 120.933H77.6406Z" fill="#A8D2D1"/>
<path d="M133.674 74.9829C112.99 78.1412 106.066 54.8535 105.91 54.1594C105.91 54.1594 111.011 52.1291 117.415 56.1029C123.818 60.0768 129.562 64.6232 131.974 68.5797C134.386 72.5362 133.674 74.9829 133.674 74.9829Z" fill="#A8D2D1"/>
<path d="M118.787 111.563V122.2C118.787 122.2 130.604 114.357 133.814 109.029C137.025 103.702 118.787 111.563 118.787 111.563Z" fill="#A8D2D1"/>
<path d="M167.478 127.684C167.704 129.419 167.912 131.154 168.086 132.994C168.285 134.878 168.348 136.774 168.276 138.668C168.275 139.945 167.901 141.193 167.201 142.26L166.281 143.076L165.274 143.683C163.079 144.598 160.809 145.323 158.489 145.852L151.913 147.466C149.986 147.917 148.095 148.559 146.204 149.08C143.757 149.757 141.327 150.433 138.829 150.937C138.048 151.075 138.03 150.711 138.499 150.069C139.269 149.093 140.239 148.294 141.345 147.726C146.02 145.422 150.971 143.725 156.077 142.677C157.564 142.322 159.02 141.852 160.433 141.271C161.162 140.976 161.839 140.664 162.481 140.351C162.772 140.204 163.056 140.042 163.331 139.865C163.446 139.815 163.552 139.744 163.643 139.657C163.744 139.552 163.81 139.419 163.834 139.275C163.867 138.964 163.867 138.65 163.834 138.338C163.835 137.533 163.794 136.728 163.713 135.926C163.556 134.191 163.314 132.456 163.053 130.842C162.706 128.725 162.359 126.608 161.96 124.491C161.353 121.28 160.815 118.018 160.225 114.808C159.669 112.326 159.062 109.88 158.68 107.294C158.567 106.723 158.514 106.141 158.524 105.559C158.611 103.337 159.149 102.539 160.259 102.262C160.508 102.181 160.764 102.123 161.023 102.088C161.839 102.088 162.359 102.921 162.758 104.24C164.184 108.479 165.241 112.833 165.916 117.255L167.652 127.666L167.478 127.684Z" fill="#A8D2D1"/>
<path d="M30.528 100.145C30.528 102.349 30.6321 104.57 30.8056 106.826C30.8056 107.641 31.1701 108.422 31.2048 109.255C31.3089 110.713 31.3436 112.188 31.3089 113.697C31.2742 115.207 31.3089 116.699 31.3089 118.174C31.3599 119.478 31.4991 120.777 31.7253 122.061C32.1538 123.691 32.2541 125.39 32.0203 127.059C31.8989 127.58 30.8751 127.632 29.7471 127.337C28.6192 127.042 27.3524 126.417 27.0574 125.601C25.9195 122.538 25.2072 119.332 24.9403 116.075C24.8714 115.064 24.6732 114.067 24.3503 113.107C24.0901 112.118 23.7777 111.129 23.5868 110.123C23.1703 107.901 22.8233 105.646 22.4936 103.355L21.9556 99.1035C21.6086 96.9691 21.7474 94.748 21.4177 92.6309C21.2851 91.767 21.0879 90.9144 20.8277 90.08C20.6368 89.2644 20.4286 88.4488 20.2724 87.6332C20.1574 87.305 20.1217 86.9541 20.1683 86.6094C20.4633 85.2385 21.0706 84.7874 22.6151 84.475C22.9621 84.475 23.3092 84.3188 23.6562 84.2841C24.8024 84.1912 25.9202 84.6722 26.6409 85.5682C29.0009 88.258 29.3827 90.9824 30.1115 93.7762C30.5233 95.881 30.7497 98.0178 30.7883 100.162L30.528 100.145Z" fill="#A8D2D1"/>
<path d="M132.944 98.7565C134.763 91.4145 134.098 83.6768 131.053 76.7529C129.897 74.2182 128.453 71.8251 126.749 69.6209C118.072 57.4872 102.541 52.3639 88.3473 56.9532C85.732 57.8881 83.2832 59.2356 81.0938 60.9444C80.5385 61.3609 79.9832 61.76 79.4626 62.2285C78.942 62.6971 78.2132 62.9226 77.5885 63.3218C76.3564 64.1026 74.9682 64.8141 73.7014 65.7165C71.9661 66.7229 71.7232 66.2891 71.7579 64.1894C71.7848 62.7118 71.924 61.2383 72.1744 59.7818C72.3737 58.8664 72.6584 57.9717 73.0247 57.1094C73.2155 56.6235 73.4932 56.2244 73.7014 55.7038C74.0457 55.3194 74.4168 54.9598 74.812 54.6279C77.7425 52.227 81.0572 50.3379 84.6164 49.0403C88.0827 47.8061 91.716 47.104 95.3926 46.9579C102.569 46.5005 109.742 47.9052 116.216 51.0359C124.083 54.6906 130.782 60.4577 135.565 67.6947C140.554 75.7054 142.875 85.0921 142.193 94.505C141.758 100.245 140.127 105.831 137.404 110.904C133.045 118.398 126.567 124.436 118.784 128.256L117.708 128.864L116.528 129.436C115.73 129.784 114.932 130.113 114.151 130.408C112.572 130.998 110.993 131.484 109.414 131.935C106.248 132.832 102.985 133.345 99.6961 133.462C98.223 133.567 96.7443 133.567 95.2711 133.462C93.2044 133.4 91.1893 132.802 89.4232 131.727C88.9133 131.307 88.4941 130.787 88.1911 130.2C87.9504 129.614 87.8096 128.993 87.7747 128.361C87.6922 127.856 87.6458 127.345 87.6358 126.834C87.7226 126.087 88.382 125.671 89.3711 125.098C90.5819 124.458 91.9418 124.152 93.3102 124.213C95.7495 124.129 98.1795 123.868 100.581 123.432C101.813 123.207 103.045 122.964 104.26 122.669C105.475 122.374 106.707 122.218 107.887 121.905C109.067 121.593 110.247 121.298 111.357 120.968C111.878 120.777 112.416 120.604 112.884 120.413L113.578 120.274L114.394 119.858C115.504 119.334 116.587 118.755 117.639 118.122L119.218 117.168C119.739 116.838 120.207 116.456 120.711 116.109C126.641 111.939 130.882 105.783 132.667 98.7565H132.944Z" fill="#A8D2D1"/>
<path d="M141.343 23.7223C134.429 21.2569 126.797 21.8111 120.312 25.2494C118.033 26.615 115.983 28.3308 114.238 30.3338C107.852 37.1882 104.902 48.0164 108.633 57.387C109.466 59.4427 110.639 61.3434 112.104 63.0094C113.534 64.6616 115.201 66.0941 117.049 67.2608C121.856 70.3323 127.669 71.7899 133.639 73.0914C135.495 73.5252 135.235 74.6358 133.465 75.7638C132.315 76.4727 131.054 76.9831 129.734 77.2735C128.894 77.4617 128.042 77.5893 127.183 77.6552C126.232 77.688 125.28 77.6357 124.337 77.4991C120.715 76.9461 117.201 75.8277 113.926 74.1847C110.577 72.3275 107.628 69.8271 105.249 66.827C100.546 60.77 98.375 53.1251 99.193 45.5002C99.5821 41.0429 100.757 36.6895 102.664 32.6417C104.557 28.5491 107.26 24.8831 110.611 21.8655C118.156 15.4094 128.15 12.5812 137.959 14.1261C143.831 14.9558 149.37 17.3538 153.994 21.0673C157.471 23.8966 160.289 27.4496 162.254 31.4791C162.786 32.4626 163.233 33.4903 163.59 34.5505C163.954 35.5917 164.388 36.6155 164.666 37.6567C165.236 39.7709 165.659 41.922 165.932 44.0947C166.321 47.5041 166.222 50.9515 165.637 54.3329C164.977 57.8266 163.677 61.1682 161.802 64.1894C161.383 64.8737 160.925 65.5342 160.432 66.1676C159.999 66.8315 159.505 67.4532 158.957 68.0244C158.513 68.534 158.038 69.015 157.534 69.4647C157.048 69.8291 156.579 70.1588 156.163 70.4364C155.448 70.9013 154.663 71.247 153.837 71.4602C152.589 71.7349 151.283 71.4496 150.263 70.6794C149.752 70.3907 149.269 70.0537 148.822 69.6729C147.573 68.4061 148.527 65.9594 150.558 63.3738C153.533 60.0168 155.616 55.9647 156.614 51.5911C157.04 49.4088 157.157 47.1772 156.961 44.9623C156.892 43.791 156.712 42.629 156.423 41.4917L156.076 39.7564L155.538 38.0211C153.376 31.2977 148.083 26.0433 141.343 23.9305V23.7223Z" fill="#A8D2D1"/>
<path d="M62.457 97.2295C62.6629 99.8282 63.2475 102.383 64.1923 104.813C64.5759 105.687 65.0406 106.524 65.5805 107.312C67.202 110.379 69.5126 113.028 72.3308 115.051C72.9735 115.51 73.6663 115.894 74.3958 116.196C75.0927 116.565 75.8331 116.845 76.5996 117.029C77.5887 117.272 78.5779 117.532 79.567 117.723C80.5981 117.838 81.6084 118.095 82.569 118.487C83.1937 118.747 83.0896 119.875 82.4302 120.968C81.7192 122.215 80.4117 123.004 78.977 123.051C73.8019 122.797 68.9234 120.56 65.3549 116.804C64.8517 116.214 64.3137 115.658 63.7584 115.068C63.2031 114.478 62.7867 113.888 62.2661 113.333C61.2244 112.186 60.3109 110.929 59.5417 109.585C59.1209 108.898 58.7553 108.178 58.4484 107.433C58.093 106.67 57.7801 105.888 57.5114 105.09C56.9989 103.505 56.6216 101.88 56.3834 100.232C56.1441 98.2281 56.0686 96.2084 56.1579 94.1927C56.3314 92.683 56.4876 91.1559 56.7652 89.6983L57.3031 87.5118C57.4445 86.7805 57.6417 86.0612 57.8931 85.3601C58.2749 84.2668 58.4831 83.1389 58.8476 82.0456C59.212 80.9524 59.6805 79.9112 60.1317 78.8354C60.3296 78.3668 60.5738 77.9192 60.8605 77.4992C61.919 75.9201 62.5958 75.6251 63.7758 76.0589C64.0573 76.1283 64.3306 76.2272 64.5914 76.3539C65.4784 76.9534 65.7953 78.1105 65.3376 79.0783C64.2379 82.483 63.3854 85.9626 62.7867 89.4901C62.3822 92.0563 62.3239 94.6651 62.6131 97.2468L62.457 97.2295Z" fill="#A8D2D1"/>
<path d="M82.344 80.2231C82.7605 87.6501 83.1249 95.0078 83.7843 102.313C84.0099 104.968 84.5131 107.519 84.8081 110.209L85.2766 113.888L85.5543 115.623L85.8146 117.029C85.9187 117.567 86.0228 118.087 86.1616 118.608C86.3371 119.269 86.4074 119.955 86.3699 120.638C86.3501 120.924 86.3095 121.208 86.2484 121.488C86.2148 121.78 86.1006 122.056 85.9187 122.287C85.0797 123.315 83.9756 124.095 82.7257 124.542C82.0663 124.837 81.3896 125.08 80.7128 125.323L79.7063 125.688L79.0122 125.896L76.4093 126.66C72.9387 127.597 69.4681 128.395 65.9975 129.089C61.7634 129.922 57.5119 130.824 53.2605 131.38C47.7654 132.444 42.1128 132.397 36.6363 131.241C34.901 130.807 35.3522 129.662 36.8619 128.534C38.9081 127.022 41.2895 126.028 43.8031 125.636C45.0872 125.497 46.3887 125.237 47.6728 125.115C48.9569 124.994 50.2757 124.82 51.5772 124.629C54.1802 124.265 56.7831 123.831 59.4034 123.328C64.6093 122.339 69.8152 121.141 75.021 119.857C75.7325 119.666 76.496 119.441 77.1555 119.232L77.8669 119.076C78.1184 119.008 78.3582 118.903 78.5784 118.764C78.5647 118.514 78.512 118.268 78.4222 118.035C78.4306 117.896 78.4306 117.757 78.4222 117.619L78.1619 116.456L77.624 113.732C77.2943 111.996 77.0166 110.105 76.791 108.3C75.854 100.786 75.2987 93.3072 74.7434 85.8454L74.5005 82.3748L74.379 80.7436V79.876C74.379 79.3034 74.379 78.7134 74.2575 78.1407C74.2575 77.9325 74.084 77.9845 73.9625 78.0019H73.5287H72.661L63.2557 78.8522C59.7852 79.1472 56.3146 79.4595 52.844 79.876C47.6381 80.5528 42.4322 81.5766 37.2263 82.3401C36.0637 82.5136 34.9357 82.7566 33.7557 82.8781C29.4175 83.3986 27.9599 82.8781 26.8146 80.9692C26.521 80.5562 26.26 80.1211 26.0337 79.6678C25.4784 78.2275 27.1269 76.7525 30.2505 75.7981C34.8837 74.5139 39.6905 73.4728 44.584 72.5878C49.4775 71.7028 54.4752 71.3384 59.4728 70.8525C63.221 70.5054 66.8652 70.2104 70.7175 69.9328C72.4528 69.7939 74.4137 69.5336 76.1316 69.5163L78.1793 70.1584L79.2031 70.4707L79.7063 70.6442H79.8278H79.9146L79.394 71.3036L79.5849 71.4251C80.1808 71.7421 80.76 72.0897 81.3202 72.4663C81.6902 73.2226 81.9195 74.0399 81.9969 74.8784C82.1184 75.7634 82.2052 76.6136 82.2919 77.5854L82.5175 80.1189L82.344 80.2231Z" fill="#A8D2D1"/>
<path d="M160.97 123.38L159.044 114.704L158.055 110.261L157.569 108.006L157.448 107.433V107.138C157.448 107.016 157.448 107.138 157.448 107.138V106.496C157.448 106.496 157.448 106.34 157.448 106.27C157.448 106.201 157.326 106.27 157.257 106.184C156.974 106.157 156.689 106.157 156.406 106.184H156.094L155.539 106.288L154.411 106.496L152.155 106.947C150.645 107.259 149.118 107.589 147.591 107.849L131.175 110.782C128.434 111.251 125.674 111.719 122.898 112.118L121.857 112.274H121.128L120.208 112.379H119.965C119.965 112.379 119.965 112.517 119.965 112.587L119.861 113.038C119.861 113.35 119.861 113.663 119.74 113.975C119.618 114.287 119.74 114.478 119.74 114.721V115.606C119.74 116.179 119.74 116.769 119.74 117.341C119.74 118.521 119.879 119.719 119.983 120.916C120.243 123.311 120.555 125.723 120.885 128.118C121.735 134.295 123.176 140.421 122.881 147.032C122.672 149.219 121.596 148.768 120.451 147.136C118.766 144.821 117.584 142.179 116.981 139.38L114.881 129.992C114.214 126.767 113.744 123.504 113.475 120.222C113.475 119.406 113.354 118.487 113.319 117.689C113.284 116.89 113.319 115.953 113.319 115.068V113.593L113.597 111.337C113.736 109.828 114.083 108.37 114.343 106.93C114.343 106.808 114.447 106.826 114.534 106.808H114.811L115.367 106.721L116.495 106.548L118.716 106.218L121.753 105.698L126.473 105.004C134.039 103.876 141.726 101.533 149.535 99.7977C150.663 99.5721 151.791 99.3291 153.005 99.1209L154.741 98.8259L155.921 98.7565L157.291 98.5656C158.957 98.245 160.679 98.4076 162.254 99.0341C162.607 99.1841 162.9 99.4465 163.087 99.7803C163.226 100.023 163.4 100.37 163.573 100.7C163.747 101.03 163.851 101.498 163.99 101.88C164.129 102.262 164.111 102.834 164.181 103.303L164.632 105.646L164.944 107.121L165.638 110.019L167.044 116.109C168.259 121.315 169.456 126.521 170.41 131.97C170.775 134 171.087 136.065 171.278 138.182C171.386 139.295 171.439 140.413 171.434 141.531C171.471 142.943 171.272 144.351 170.844 145.696C170.705 146.009 170.532 146.304 170.376 146.616C170.219 146.928 169.924 147.119 169.612 147.293C169.022 147.659 168.386 147.945 167.721 148.143C167.026 148.351 166.332 148.542 165.638 148.681L163.903 149.08C161.855 149.444 159.86 149.757 157.864 150.086C151.669 151.145 145.717 152.256 139.626 153.366C138.307 153.609 137.023 153.921 135.687 154.147C130.741 154.928 129.058 154.477 127.687 153.297C127.358 153.051 127.051 152.778 126.768 152.481C126.403 152.013 126.681 151.457 127.496 150.746C128.681 149.81 130.012 149.077 131.436 148.577C136.879 146.741 142.431 145.246 148.06 144.1C150.871 143.423 153.734 143.006 156.563 142.555L160.762 141.879L162.792 141.514L163.677 141.323V140.924C163.677 140.716 163.677 140.49 163.677 140.247C163.677 140.004 163.677 139.328 163.573 138.842C163.573 137.887 163.348 136.898 163.209 135.892C162.619 131.849 161.716 127.649 160.762 123.484L160.97 123.38Z" fill="#A8D2D1"/>
</g>
</g>
<defs>
<clipPath id="clip0_2388_1156">
<rect width="167" height="167" fill="white"/>
</clipPath>
<clipPath id="clip1_2388_1156">
<rect width="167" height="167" fill="white"/>
</clipPath>
</defs>
</svg>
