<svg width="236" height="200" viewBox="0 0 236 200" fill="none" xmlns="http://www.w3.org/2000/svg">
<path d="M86.0399 11.845C87.8468 12.1873 89.5903 12.796 91.2324 13.5821C92.8744 14.3746 94.4341 15.3447 95.8162 16.5493C97.2807 17.8046 98.6121 19.3072 99.747 20.8858C101.281 22.9844 102.46 25.4443 102.866 28.3036C103.069 29.7238 103.056 31.239 102.765 32.748C102.473 34.2569 101.896 35.7404 101.129 37.0021C99.5885 39.5508 97.509 41.364 95.3787 42.7461C93.2358 44.1346 90.871 45.1427 88.4111 45.745C85.3805 46.4931 82.2042 46.6579 79.0722 46.1824C77.5253 45.9478 75.9213 45.5421 74.3743 44.9334C72.8337 44.3185 71.3374 43.5069 69.93 42.4418C68.5288 41.3577 67.2038 40.0199 66.1703 38.3462C65.6568 37.5093 65.2193 36.609 64.896 35.6517C64.5917 34.7007 64.3508 33.7433 64.2493 32.7606C64.0274 30.7952 64.2557 28.8489 64.7375 27.1434C65.2193 25.4316 65.9231 23.9037 66.7092 22.5532C67.6666 20.9048 69.036 19.6622 70.3928 18.6161C71.6988 17.6144 73.2711 17.7285 74.7927 18.4005C77.0181 19.4023 78.0832 21.729 77.3287 23.4345C76.8406 24.525 76.1115 25.4506 75.4014 26.2685C74.5835 27.2068 73.9242 28.2085 73.5438 29.1722C73.1634 30.1422 73.0492 31.0488 73.1887 31.8477C73.2014 32.0506 73.2838 32.2471 73.3409 32.4436C73.3853 32.6465 73.493 32.8114 73.5691 32.9889C73.753 33.3376 74.0193 33.6546 74.3172 33.9589C74.9386 34.5612 75.7945 35.0621 76.7835 35.3791C77.3287 35.5502 77.9184 35.6644 78.489 35.7785C79.0659 35.8989 79.6048 36.0131 80.1754 36.292C81.976 37.1543 84.1252 37.2177 86.1096 36.7865C88.1131 36.3618 89.9834 35.4678 91.6825 34.4851C92.9378 33.7624 93.8698 32.7797 94.339 31.8223C94.8081 30.8903 94.9222 29.8125 94.7511 28.5382C94.6116 27.416 94.1424 26.2051 93.4704 25.1083C93.128 24.563 92.7476 24.0241 92.3102 23.555C92.0946 23.314 91.8347 23.0858 91.6001 22.8449C91.3592 22.6103 91.0802 22.4138 90.8203 22.1855C88.6583 20.5054 85.8053 19.4974 82.8953 19.3896C81.735 19.3579 80.5938 19.2628 79.4019 19.1487C78.21 19.0155 76.942 18.7936 75.4901 18.521C74.1524 18.2547 72.9795 16.5049 74.127 15.3447C75.7311 13.7597 77.893 12.6185 80.1754 12.0479C82.0647 11.5724 84.0682 11.7372 85.9765 11.9781C85.9892 11.9337 86.0019 11.8894 86.0145 11.8386L86.0399 11.845Z" fill="black" fill-opacity="0.12"/>
<path d="M66.9368 92.5152C68.3443 93.2253 69.7645 94.1065 71.0832 95.2794C72.4019 96.446 73.5938 97.9993 74.3483 99.7237L74.6463 100.408C74.7287 100.643 74.7921 100.878 74.8682 101.112C75.0013 101.588 75.1535 102.044 75.2296 102.551L75.3564 103.293L75.4261 104.041C75.4832 104.542 75.4705 105.03 75.4832 105.519C75.4705 106.825 75.2549 108.093 74.8935 109.278C74.5195 110.457 74.0059 111.548 73.3973 112.562C72.1673 114.578 70.5633 116.29 68.6043 117.641C64.7369 120.291 60.0833 121.273 55.5882 120.773C52.824 120.443 50.0851 119.562 47.6252 118.053C46.9975 117.698 46.4206 117.248 45.831 116.823C45.2477 116.36 44.6834 115.865 44.1572 115.326C43.1048 114.249 42.1538 113.019 41.3993 111.554C40.6449 110.109 40.0869 108.391 39.9665 106.527C39.846 104.644 40.2011 102.799 40.9175 101.106C41.6402 99.4194 42.7054 98.0119 43.8212 96.9151C44.9434 95.8246 46.1163 94.9878 47.2765 94.284C48.684 93.4345 50.2436 93.0921 51.6955 92.8829C53.0966 92.68 54.2949 93.5422 55.2776 94.8546C56.6977 96.782 56.7358 99.318 55.5185 100.396C54.745 101.087 53.8321 101.493 52.9698 101.797C51.9744 102.146 51.0868 102.602 50.4211 103.116C49.7491 103.636 49.3307 104.193 49.1531 104.713C49.0834 104.84 49.1024 104.98 49.058 105.106C49.0327 105.24 49.058 105.385 49.0327 105.512C49.039 105.766 49.1024 106.007 49.2102 106.267C49.4131 106.78 49.8569 107.338 50.4592 107.82C50.7889 108.086 51.1883 108.308 51.5623 108.543C51.7525 108.663 51.9237 108.784 52.0949 108.923C52.2788 109.056 52.4373 109.221 52.5704 109.418C53.0396 110.014 53.6609 110.508 54.3583 110.876C55.0684 111.225 55.8482 111.453 56.647 111.586C57.4522 111.694 58.2637 111.725 59.0752 111.687C59.8804 111.63 60.6793 111.535 61.4718 111.415C62.651 111.231 63.7859 110.724 64.6671 110.09C65.5864 109.424 66.3726 108.549 66.9685 107.649C67.4948 106.844 67.8435 105.994 67.9259 105.208C67.9956 104.808 67.9512 104.428 67.9069 104.035C67.8435 103.838 67.8054 103.623 67.7547 103.42C67.6659 103.236 67.6025 103.033 67.5138 102.837C67.1397 102.076 66.4804 101.34 65.5611 100.7C64.6481 100.053 63.5069 99.5145 62.2769 99.0897C60.3052 98.4177 58.3778 97.4223 56.5709 95.3872C55.7404 94.4425 55.9116 92.3503 57.0781 91.9763C58.7202 91.45 60.5017 91.2408 62.3213 91.355C63.8239 91.4564 65.3138 92.0143 66.8544 92.642C66.8798 92.5976 66.8988 92.5596 66.9178 92.5152H66.9368Z" fill="black" fill-opacity="0.12"/>
<path d="M150.169 67.4214C151.057 67.9096 151.951 68.4929 152.832 69.2537C153.714 70.0398 154.576 71.0352 155.21 72.2588C155.368 72.5949 155.514 72.9309 155.647 73.2669C155.761 73.6156 155.856 73.9706 155.952 74.3193C156.053 74.6744 156.078 75.0167 156.135 75.3654L156.212 75.8853L156.243 76.4242C156.326 77.3879 156.18 78.3833 155.92 79.3089C155.641 80.2219 155.229 81.0651 154.747 81.7815C153.777 83.2397 152.585 84.2541 151.336 85.072C150.074 85.8835 148.724 86.4541 147.228 86.7965C145.763 87.1261 144.349 87.2086 142.904 87.0818C141.135 86.8979 139.353 86.4541 137.61 85.4904C136.741 85.0339 135.898 84.4063 135.112 83.6772C134.332 82.9354 133.635 82.0351 133.083 81.0397C132.95 80.7925 132.83 80.5325 132.709 80.2726L132.538 79.8795C132.481 79.7337 132.424 79.5562 132.373 79.3977C132.272 79.068 132.177 78.7383 132.094 78.4023C132.037 78.0726 131.993 77.7429 131.955 77.4133C131.91 77.0772 131.904 76.7602 131.91 76.4432C131.917 76.1262 131.923 75.8029 131.955 75.4986C132.037 74.9026 132.132 74.2876 132.31 73.7424C132.975 71.5044 134.231 69.6658 136.177 68.1822C137.375 67.301 139.163 66.9142 140.862 67.1742C141.674 67.2693 142.302 67.7891 142.65 68.3788C142.993 69.0064 143.056 69.7862 142.948 70.5661C142.783 71.7136 142.162 72.7343 141.75 73.6219C141.642 73.8438 141.547 74.0531 141.471 74.2496C141.439 74.3384 141.401 74.4335 141.37 74.5349L141.332 74.6554V74.6237L141.351 74.5539C141.351 74.5539 141.351 74.5539 141.351 74.5476C141.332 74.611 141.382 75.0611 141.655 75.543L141.712 75.6571L141.674 75.6127C141.642 75.581 141.604 75.6 141.56 75.5937C141.509 75.581 141.471 75.6127 141.42 75.6254C141.37 75.6381 141.319 75.6634 141.281 75.7015C141.097 75.8283 140.951 76.0628 140.945 76.2467C140.919 76.2974 140.945 76.3291 140.945 76.3672C140.945 76.4052 140.951 76.4369 140.983 76.4559C141.008 76.4686 140.996 76.5066 141.04 76.5003H141.078L140.951 76.5257C140.919 76.5257 140.875 76.5383 140.818 76.5637H140.805V76.57C140.45 76.7095 141.287 76.3798 141.205 76.4115L141.224 76.4242L141.268 76.4432L141.344 76.4749C141.382 76.5003 141.458 76.5066 141.515 76.5193C141.566 76.532 141.63 76.5383 141.699 76.532C141.991 76.5383 142.327 76.3481 142.384 76.7602C142.435 77.0963 142.663 77.3499 142.936 77.5401C143.221 77.7176 143.563 77.8317 143.925 77.8824C144.635 77.9839 145.434 77.8951 146.036 77.9205C146.549 77.9458 147.088 77.762 147.494 77.521C147.906 77.2801 148.198 77.0012 148.382 76.8617C148.54 76.7285 148.616 76.7159 148.705 76.6144C148.768 76.4623 148.838 76.3228 148.787 76.1136C148.737 75.8917 148.496 75.5493 148.084 75.2196C147.678 74.8836 147.101 74.5793 146.473 74.3193C145.472 73.8946 144.533 73.0323 143.582 71.0669C143.145 70.154 143.265 68.0618 143.994 67.6497C145.015 67.0664 146.131 66.7811 147.278 66.7557C148.229 66.7367 149.149 67.1742 150.112 67.5419C150.131 67.4975 150.15 67.4595 150.169 67.4151V67.4214Z" fill="black" fill-opacity="0.12"/>
<path d="M193.396 -11.8032C195.311 -11.4545 197.377 -10.8079 199.267 -9.67299L199.641 -9.45109L200.047 -9.17847C200.319 -8.99461 200.592 -8.81075 200.833 -8.60153C201.34 -8.20845 201.79 -7.79635 202.259 -7.39059C203.477 -6.30011 204.466 -5.00041 205.188 -3.44711C205.898 -1.90649 206.317 -0.00448861 206.013 2.10673C205.721 4.21795 204.44 6.34819 202.855 7.62253C201.258 8.94125 199.539 9.58159 197.999 9.93663C196.065 10.3551 194.366 10.3995 192.553 10.2346C190.752 10.0381 188.895 9.58159 187.081 8.66229C186.181 8.19947 185.293 7.62887 184.476 6.93147C184.064 6.58277 183.683 6.20871 183.303 5.80295C182.903 5.35281 182.542 4.88999 182.225 4.40181C180.976 2.45543 180.304 0.293492 180.291 -2.03329C180.279 -3.44077 180.9 -4.89897 181.806 -6.07821C182.25 -6.64247 182.872 -6.95313 183.563 -6.99117C184.235 -7.04189 184.983 -6.81999 185.68 -6.44593C186.707 -5.89435 187.487 -5.00041 188.146 -4.27765C188.47 -3.91627 188.768 -3.59293 189.002 -3.35201C189.256 -3.09207 189.446 -2.92723 189.554 -2.82579C189.833 -2.57219 189.814 -2.52147 189.649 -2.34395C189.269 -1.93185 189.338 -0.999871 189.757 -0.530711C189.808 -0.467311 189.852 -0.410251 189.915 -0.372211L189.998 -0.302471L190.118 -0.220048C190.27 -0.105928 190.448 -0.0235087 190.638 0.0462313C191.018 0.185711 191.462 0.242773 191.938 0.211073C192.47 0.179373 193.035 -0.0678885 193.497 0.318852C194.252 0.933832 195.355 1.01625 196.122 0.883111C196.503 0.813371 196.832 0.705591 197.041 0.610491C197.263 0.521731 197.358 0.471011 197.485 0.496371C197.631 0.496371 197.733 0.559771 197.764 0.337871C197.802 0.128651 197.764 -0.270769 197.631 -0.746269C197.511 -1.17105 197.289 -1.62119 197.01 -2.00793C196.934 -2.09669 196.864 -2.18545 196.788 -2.28689C196.705 -2.36297 196.629 -2.44539 196.553 -2.53415C196.471 -2.59755 196.395 -2.67363 196.306 -2.74971L195.932 -2.99063C194.905 -3.61195 193.497 -3.97967 191.893 -4.10647C190.625 -4.22059 189.269 -4.79119 187.836 -6.51567C187.176 -7.31451 186.955 -9.40037 187.557 -9.95195C188.413 -10.7254 189.408 -11.2707 190.499 -11.6003C191.399 -11.873 192.401 -11.7208 193.415 -11.6701C193.415 -11.7208 193.428 -11.7652 193.434 -11.8096L193.396 -11.8032Z" fill="black" fill-opacity="0.12"/>
<path d="M257.924 75.6888C259.414 77.2421 260.619 79.1187 261.431 81.1348C262.229 83.1509 262.635 85.2558 262.654 87.3163C262.679 89.5036 262.312 91.6339 261.748 93.7007C261.373 95.0828 260.816 96.4332 260.099 97.7139C259.75 98.3606 259.319 98.9692 258.888 99.5779C258.419 100.168 257.944 100.744 257.417 101.258C255.344 103.369 252.77 104.846 250.139 105.785C248.82 106.241 247.476 106.577 246.132 106.799C244.788 107.008 243.438 107.116 242.094 107.129C240.749 107.129 239.412 107.034 238.087 106.844C236.774 106.653 235.456 106.368 234.137 105.962C232.514 105.461 230.878 104.777 229.312 103.832C227.746 102.881 226.244 101.683 224.969 100.168C222.395 97.137 221.102 93.3583 220.899 89.6875C220.69 86.0039 221.514 82.2697 223.422 78.9856C225.293 75.7775 228.019 73.2479 231.056 71.5044C232.901 70.4456 235.031 69.9764 237.06 69.8179C239.031 69.6784 240.42 70.7562 241.193 72.2588C241.764 73.3556 241.77 74.5349 241.504 75.5303C241.225 76.5193 240.686 77.3181 239.906 77.7746C238.917 78.3516 237.846 78.7003 236.787 79.049C234.346 79.8224 232.235 81.5342 231.106 83.6518C230.022 85.6996 229.876 88.3878 230.745 90.4673C230.96 91.0506 231.303 91.5641 231.594 92.0523C231.899 92.5341 232.171 92.9716 232.349 93.4788C232.622 94.265 233.198 95.0258 233.978 95.6344C234.745 96.2557 235.722 96.7376 236.781 97.0989C237.839 97.4603 239 97.7203 240.166 97.8851C241.326 98.0563 242.493 98.145 243.653 98.1831C244.515 98.2211 245.378 98.1641 246.208 98.0182C247.045 97.8851 247.844 97.6569 248.592 97.3652C249.353 97.0863 250.044 96.7122 250.684 96.2938C251.331 95.888 251.914 95.3871 252.434 94.8736C253.36 93.967 254.076 92.7624 254.564 91.4437C255.021 90.1123 255.249 88.6604 255.135 87.2276C255.084 86.5175 254.97 85.8074 254.754 85.1354C254.564 84.4506 254.273 83.8166 253.918 83.1953C253.575 82.5677 253.1 82.0034 252.612 81.4518C252.098 80.9193 251.521 80.4247 250.9 79.9936C249.904 79.3026 248.884 78.6749 247.825 77.9775C246.76 77.2928 245.638 76.5447 244.3 75.7141C243.076 74.9787 242.594 72.9118 244.338 72.2525C245.542 71.8467 246.849 71.6375 248.186 71.6185C249.511 71.6312 250.862 71.8214 252.155 72.2018C254.298 72.8358 256.175 74.2369 257.836 75.7712C257.874 75.7395 257.905 75.7141 257.95 75.6824L257.924 75.6888Z" fill="black" fill-opacity="0.12"/>
<path d="M205.48 148.707C206.406 149.797 207.129 151.021 207.623 152.371C208.118 153.709 208.352 155.218 208.226 156.733C208.207 157.151 208.143 157.5 208.073 157.855C208.01 158.21 207.928 158.559 207.826 158.895C207.642 159.58 207.395 160.233 207.154 160.879C206.495 162.591 205.474 164.081 204.269 165.298C203.058 166.509 201.657 167.486 200.11 168.215C198.557 168.944 196.883 169.413 194.912 169.483C193.029 169.533 191.234 169.178 189.586 168.525C187.564 167.701 185.687 166.452 184.121 164.595C183.721 164.157 183.379 163.586 183.037 163.073C182.872 162.8 182.726 162.49 182.58 162.192C182.441 161.887 182.289 161.602 182.181 161.266C181.959 160.607 181.743 159.947 181.661 159.218C181.617 158.857 181.553 158.502 181.547 158.14C181.547 157.773 181.547 157.411 181.572 157.044C181.572 156.676 181.636 156.321 181.712 155.972C181.781 155.617 181.858 155.268 181.94 154.92C182.156 154.267 182.371 153.62 182.701 153.018C183.005 152.396 183.385 151.845 183.785 151.3C184.197 150.799 184.634 150.292 185.091 149.892C185.547 149.455 186.017 149.119 186.492 148.77C186.955 148.472 187.437 148.155 187.9 147.92C188.838 147.407 189.744 147.045 190.632 146.735C191.71 146.354 192.838 146.424 193.885 146.557C194.893 146.684 195.685 147.756 196.3 149.233C197.188 151.388 197.086 153.874 196.199 154.641C195.634 155.142 194.975 155.294 194.354 155.344C192.927 155.44 191.666 155.928 191.165 156.524C190.67 157.063 190.765 157.773 191.241 157.811C191.488 157.893 191.818 157.804 191.735 158.229C191.634 158.946 192.338 159.637 193.105 159.985C193.897 160.359 194.728 160.41 195.4 160.55C195.983 160.651 196.718 160.493 197.352 160.207C197.999 159.922 198.576 159.523 199.102 159.11C199.565 158.743 199.952 158.318 200.225 157.88C200.301 157.773 200.339 157.659 200.415 157.544C200.472 157.43 200.503 157.316 200.567 157.196C200.605 157.075 200.63 156.955 200.675 156.834C200.694 156.733 200.706 156.651 200.738 156.555C200.801 156.169 200.725 155.649 200.484 155.129C200.25 154.609 199.863 154.108 199.413 153.734C199.052 153.43 198.766 153.113 198.399 152.612C198.025 152.117 197.53 151.477 196.585 150.805C196.161 150.494 195.66 149.892 195.393 149.252C195.127 148.618 195.14 147.908 195.685 147.47C196.059 147.153 196.503 146.944 196.966 146.722C197.429 146.519 197.923 146.399 198.437 146.285C198.931 146.215 199.457 146.171 199.965 146.183C200.453 146.221 200.985 146.259 201.448 146.38C203.052 146.741 204.301 147.775 205.36 148.808C205.398 148.776 205.43 148.745 205.468 148.713L205.48 148.707Z" fill="black" fill-opacity="0.12"/>
<path d="M133.057 183.418C134.553 184.984 135.739 186.804 136.538 188.851C137.324 190.899 137.679 193.213 137.381 195.508C137.07 197.93 136.062 200.042 134.978 201.848C133.52 204.289 131.605 206.191 129.513 207.77C127.402 209.349 125.05 210.566 122.571 211.409C117.619 213.089 112.11 213.248 106.943 211.574C103.798 210.541 100.685 208.924 98.0668 206.007C96.7861 204.543 95.6576 202.698 95.0933 200.593C94.5037 198.501 94.4657 196.301 94.8651 194.336C95.2518 192.357 96.0063 190.576 96.9636 188.991C97.9273 187.406 99.1002 186.011 100.457 184.794C100.806 184.496 101.154 184.204 101.516 183.919C101.883 183.653 102.27 183.361 102.632 183.133C103.354 182.664 104.096 182.232 104.851 181.858C106.353 181.104 107.875 180.533 109.371 180.077C111.178 179.532 113.029 179.5 114.747 179.557C116.396 179.614 117.562 180.654 118.399 182.099C119.635 184.217 119.078 186.753 117.131 187.66C115.901 188.236 114.576 188.496 113.346 188.668C111.92 188.864 110.595 189.2 109.39 189.682C108.8 189.936 108.217 190.208 107.697 190.544C107.412 190.703 107.215 190.874 106.981 191.032C106.765 191.223 106.537 191.387 106.34 191.597C105.516 192.395 104.857 193.385 104.502 194.393C104.115 195.394 104.096 196.39 104.299 197.125C104.578 197.962 105.092 198.317 105.364 199.211C105.599 199.927 106.188 200.663 106.968 201.278C107.742 201.899 108.724 202.375 109.739 202.749C110.747 203.142 111.831 203.338 112.915 203.522C114.006 203.681 115.115 203.731 116.244 203.788C117.917 203.833 119.61 203.522 121.201 202.964C122.793 202.406 124.276 201.608 125.627 200.657C126.857 199.826 127.896 198.805 128.676 197.727C129.443 196.643 129.887 195.527 129.957 194.424C130.027 193.308 129.703 192.034 129.025 190.861C128.689 190.272 128.271 189.714 127.789 189.206C127.313 188.699 126.762 188.255 126.14 187.843C124.169 186.544 122.032 185.288 119.756 183.183C118.71 182.232 118.811 180.121 120.358 179.785C122.527 179.329 124.961 179.379 127.396 180.083C128.391 180.369 129.374 180.838 130.299 181.427C130.762 181.719 131.212 182.042 131.656 182.385C132.113 182.74 132.544 183.114 132.962 183.494C133 183.462 133.032 183.437 133.076 183.405L133.057 183.418Z" fill="black" fill-opacity="0.12"/>
<path d="M49.6491 168.373C50.0992 168.582 50.5557 168.836 50.9995 169.102C51.2214 169.235 51.4433 169.381 51.6652 169.533C51.8998 169.698 52.1344 169.857 52.3563 170.041C53.2376 170.738 54.0047 171.537 54.6577 172.444C55.3488 173.414 55.9003 174.491 56.3949 175.696C57.0923 177.268 57.2698 179.373 56.7753 181.161C56.2998 182.968 55.3488 184.407 54.3344 185.529C52.2992 187.748 49.6618 189.13 46.8088 189.65C45.0463 189.967 43.1696 189.967 41.2296 189.46C39.3086 188.991 37.3178 187.888 35.8152 186.271C35.4285 185.84 34.991 185.295 34.674 184.768C34.3634 184.23 34.0654 183.678 33.8752 183.12C33.4314 181.998 33.2665 180.882 33.2095 179.785C33.1905 178.695 33.2792 177.623 33.5709 176.577C33.685 176.057 33.9069 175.531 34.0971 175.024C34.3507 174.51 34.5662 174.003 34.9149 173.509C35.1178 173.211 35.3207 172.925 35.5997 172.659C35.8723 172.393 36.1703 172.152 36.4746 171.936C37.1466 171.505 37.8504 171.169 38.6302 170.973C38.9852 170.865 39.3529 170.859 39.6953 170.935C40.0377 171.004 40.3483 171.144 40.6209 171.34C41.1789 171.765 41.5783 172.412 41.8382 173.16C42.2186 174.257 42.1742 175.442 42.2123 176.419C42.225 176.907 42.2567 177.344 42.3137 177.674C42.3264 177.737 42.3391 177.801 42.3518 177.864C42.3518 177.877 42.3581 177.883 42.3581 177.883C42.3581 177.883 42.3581 177.871 42.3581 177.89C42.3708 177.921 42.3835 177.953 42.4025 177.978C42.4215 178.004 42.4342 178.029 42.4469 178.048C42.4595 178.061 42.4786 178.08 42.5103 178.137C42.5673 178.226 42.6307 178.295 42.7005 178.359C42.7322 178.384 42.7829 178.454 42.8209 178.486C42.8526 178.517 42.8463 178.511 42.8399 178.505L42.8209 178.492C42.6878 178.409 42.4659 178.517 42.3391 178.733C42.2123 178.948 42.1616 179.227 42.1933 179.468C42.2313 179.709 42.3771 179.874 42.5103 179.899C42.5483 179.899 42.58 179.899 42.6054 179.899L42.6624 179.868L42.6814 179.855L42.6497 179.88C42.8399 179.754 42.9034 179.868 43.0555 179.798C43.3535 179.741 43.6134 179.468 43.7275 179.842C43.9748 180.432 44.6849 180.622 45.3569 180.521C46.048 180.445 46.701 180.153 47.3731 179.994C47.8993 179.874 48.3558 179.563 48.6411 179.278C48.9327 178.986 49.0278 178.771 49.1292 178.688C49.218 178.612 49.3131 178.536 49.3131 178.27C49.3131 178.016 49.1863 177.649 48.9454 177.281C48.6981 176.913 48.3938 176.571 47.9753 176.279C47.5252 175.969 46.98 175.696 46.346 175.474C45.3569 175.113 44.2855 174.295 43.3281 172.329C42.897 171.423 43.0872 169.331 43.7275 168.906C44.6342 168.31 45.6486 167.967 46.7644 167.879C47.6837 167.809 48.622 168.177 49.6111 168.506C49.6301 168.462 49.6428 168.418 49.6618 168.373H49.6491Z" fill="black" fill-opacity="0.12"/>
<path d="M125.888 140.56C125.317 140.401 124.69 140.205 124.037 139.976C123.688 139.856 123.352 139.71 122.978 139.71C121.862 139.71 120.721 139.52 119.567 138.911C118.99 138.607 118.407 138.176 117.874 137.58C117.348 136.984 116.892 136.204 116.638 135.323C116.34 134.296 116.308 133.161 116.536 132.127C116.765 131.088 117.196 130.289 117.621 129.661C118.502 128.412 119.358 127.797 120.112 127.271C120.34 127.112 120.765 127.265 121.158 127.442C121.539 127.607 122.274 128.571 123.136 129.877C124.379 131.785 125.52 133.947 125.704 134.505C125.825 134.866 125.749 134.911 125.609 134.841C125.286 134.682 125.07 134.689 125.045 134.784C125.045 134.803 125.038 134.835 125.064 134.86L125.083 134.879L125.095 134.892L125.064 134.866L124.823 134.657C124.506 134.391 124.214 134.188 123.967 134.042C123.84 133.966 123.682 133.896 123.599 133.852C123.549 133.827 123.491 133.808 123.434 133.788C123.403 133.776 123.365 133.763 123.327 133.75C123.282 133.738 123.244 133.731 123.2 133.719H123.149C123.155 133.719 123.13 133.719 123.181 133.719H123.232L123.251 133.706C123.434 133.668 122.997 133.757 123.041 133.75C123.041 133.75 123.086 133.738 123.149 133.706C123.219 133.674 123.295 133.617 123.39 133.541C123.663 133.319 123.859 132.926 123.853 132.907L123.84 132.945L123.827 133.002V133.04L123.935 132.254C123.929 132.305 123.942 132.419 123.999 132.495C124.106 132.673 124.347 132.825 124.664 132.92C124.912 133.002 125.349 133.63 126.097 135.38C126.44 136.191 126.985 138.22 126.959 138.715C126.928 139.418 126.801 139.894 126.585 140.217C126.408 140.484 126.11 140.376 125.837 140.42C125.844 140.465 125.85 140.509 125.863 140.56H125.888Z" fill="black" fill-opacity="0.12"/>
<path d="M215.446 43.2026C215.693 43.6971 216.042 43.9063 216.315 44.0014C216.467 44.0585 216.606 44.0521 216.6 44.1409C216.562 44.3691 216.524 44.6544 216.708 45.0031C216.796 45.168 216.955 45.3582 217.183 45.504C217.304 45.6181 217.386 45.6942 217.494 45.7449C217.621 45.802 217.728 45.8337 217.805 45.84C217.874 45.859 217.925 45.84 217.925 45.84C217.938 45.8337 217.817 45.84 217.659 45.9098C217.614 45.9288 217.373 45.6562 217.113 45.4026C216.866 45.149 216.131 44.2043 215.173 42.968C213.772 41.1674 212.39 39.164 212.327 38.4983C212.282 38.0862 212.473 37.9594 212.726 37.9657C213.893 37.9974 214.596 37.5156 215.592 36.4251C215.864 36.1271 216.201 35.6897 216.619 35.956C217.881 36.8245 219.022 36.2349 220.347 37.1542C221.279 37.858 222.128 38.3905 222.629 39.2274C223.06 39.9628 223.308 40.7553 223.403 41.5859C223.492 42.4164 223.422 43.3167 223.086 44.198C222.832 44.8954 221.723 45.4026 220.068 44.4135C219.313 43.9697 217.836 42.4545 217.354 42.296C216.708 42.036 216.137 42.1628 215.776 42.4101C215.478 42.6383 215.592 42.9617 215.586 43.1899C215.535 43.1899 215.49 43.1899 215.446 43.1899V43.2026Z" fill="black" fill-opacity="0.12"/>
<path d="M26.5323 53.4924C25.7271 53.074 25.0867 52.5287 24.5478 51.9771C24.2562 51.6855 24.0216 51.3621 23.6856 51.1783C22.7917 50.6711 21.9104 49.9737 21.2067 48.9593C20.5029 47.9639 20.0528 46.5564 20.1035 45.2377C20.1669 43.621 20.7565 42.1818 21.6314 41.0533C22.5064 39.9184 23.6919 39.0118 25.1755 38.4603C25.632 38.2954 26.2153 38.5046 26.7161 38.7836C27.2106 39.0499 27.5784 40.2418 27.7242 41.7951C27.8383 42.93 27.8193 44.1092 27.8573 45.0729C27.8573 45.206 27.8637 45.3265 27.87 45.4279C27.87 45.4406 27.87 45.4469 27.87 45.4596C27.87 45.5103 27.889 45.5484 27.908 45.6181C27.9524 45.7576 28.0412 45.9161 28.1109 46.0049C28.1807 46.0936 28.2187 46.1063 28.168 46.0746C28.1363 46.0556 28.0856 46.0239 28.0158 45.9922C27.908 45.9415 27.7622 45.9034 27.6354 45.8907C27.5974 45.8844 27.5086 45.8907 27.4959 45.8907C27.4896 45.8907 27.4452 45.8907 27.4579 45.8907C27.4769 45.8907 27.4959 45.8844 27.5086 45.878C27.6164 45.8527 27.851 45.7322 27.9778 45.6118C28.0919 45.5103 28.1236 45.4406 28.0919 45.4977C28.0602 45.5484 27.9968 45.7322 27.9841 45.9097C27.9841 45.9922 27.889 46.791 28.5864 48.5472C28.9098 49.3651 29.5945 51.3621 29.3599 51.901C29.0619 52.6682 28.523 53.1691 27.9588 53.4227C27.4769 53.6446 27.0141 53.4226 26.5703 53.3402C26.5576 53.3846 26.5513 53.429 26.5386 53.4797L26.5323 53.4924Z" fill="black" fill-opacity="0.12"/>
</svg>
