<svg width="253" height="200" viewBox="0 0 253 200" fill="none" xmlns="http://www.w3.org/2000/svg">
<path d="M177.57 247.128C174.094 248.01 170.707 249.195 167.413 250.567C165.752 251.229 164.158 252.029 162.548 252.795C160.981 253.641 159.397 254.459 157.893 255.408L156.749 256.093L155.641 256.833C154.911 257.338 154.148 257.798 153.443 258.337L151.308 259.926C150.61 260.464 149.941 261.012 149.31 261.561C146.767 263.753 144.877 266.105 144.217 268.376C143.865 269.493 143.799 270.687 143.943 271.962C144.119 273.232 144.517 274.559 145.158 275.829C145.775 277.108 146.633 278.314 147.597 279.396C148.595 280.491 149.737 281.452 150.998 282.267C156.042 285.555 162.978 286.316 169.307 284.781C172.479 284.023 175.522 282.709 178.171 280.91C179.501 279.996 180.707 279.025 181.826 277.831C182.386 277.232 182.985 276.668 183.477 276.004C183.992 275.362 184.534 274.741 184.977 274.038C188.783 268.615 190.859 261.874 191.342 254.986C191.587 251.537 191.444 248.04 190.933 244.598C190.427 241.174 189.522 237.739 188.342 234.381C185.978 227.66 182.465 221.25 178.364 215.139C174.023 208.658 168.985 202.443 163.805 196.39C158.605 190.354 153.097 184.589 147.317 179.126C135.738 168.218 122.946 158.649 108.995 151.171C99.6371 146.124 89.8317 141.554 80.1574 136.411C75.3241 133.825 70.5117 131.112 65.8336 128.073C61.1675 125.019 56.6002 121.689 52.412 117.79C48.2013 113.937 44.4 109.477 41.3264 104.487C39.8268 101.968 38.4861 99.3416 37.4067 96.6012C36.3642 93.8437 35.4472 91.0638 34.9196 88.134C33.7437 82.3094 33.7165 76.3062 34.6583 70.5195C35.6013 64.7245 37.549 59.1611 40.1841 53.9884C42.8313 48.8166 46.2048 44.033 50.1832 39.7897C50.6599 39.2403 51.1853 38.7361 51.7106 38.2315L53.2811 36.7131C54.3511 35.7246 55.4928 34.8098 56.5994 33.8593C57.7597 32.9941 58.9061 32.108 60.0903 31.2782L61.8994 30.0832C62.5026 29.685 63.1018 29.2794 63.7325 28.929C73.6476 22.9671 84.8236 19.5112 96.0853 18.1134C101.726 17.4186 107.408 17.2172 113.063 17.4629C118.721 17.7081 124.381 18.4154 129.951 19.6402C135.517 20.8852 141 22.6619 146.255 25.0656C151.503 27.472 156.537 30.5075 161.044 34.2857L162.69 35.7549C163.234 36.2505 163.801 36.7204 164.303 37.2635L165.848 38.8485C166.102 39.1163 166.369 39.3708 166.611 39.6501L167.328 40.4961C169.271 42.685 171.095 45.1842 172.57 47.7816C175.554 52.9918 177.536 58.7006 178.446 64.5903C179.335 70.4771 179.216 76.574 177.749 82.491C177.014 85.4446 175.95 88.3466 174.528 91.1012C173.116 93.8588 171.298 96.4416 169.181 98.7558C167.108 101.034 164.509 103.209 161.689 104.77C158.863 106.345 155.829 107.444 152.745 108.115C146.564 109.46 140.199 109.102 134.212 107.326C131.217 106.435 128.312 105.144 125.615 103.42C122.926 101.695 120.409 99.5618 118.364 96.9437C116.318 94.3374 114.735 91.2892 113.827 88.0571C113.616 87.2493 113.434 86.4266 113.275 85.6136L112.964 83.1879C112.86 81.5667 112.806 79.9323 112.969 78.3267C113.234 75.1088 114.013 71.9943 115.137 69.0873C116.281 66.1874 117.771 63.5037 119.454 61.0015C121.136 58.4954 123.037 56.1865 125.102 54.0667C127.162 51.9409 129.361 49.9707 131.698 48.1748C136.297 44.6721 141.274 41.6894 146.485 39.2316C151.716 36.8204 157.167 34.9258 162.725 33.5574C168.289 32.2166 173.946 31.3506 179.617 30.9544C185.289 30.5756 190.971 30.621 196.608 31.063C202.244 31.5263 207.834 32.3685 213.344 33.5555C218.849 34.7616 224.27 36.3235 229.576 38.2048C242.641 42.8827 254.91 49.5559 265.949 57.9063C276.969 66.2632 286.767 76.358 294.418 88.03C302.068 99.6836 307.471 112.953 309.48 126.962C311.444 141.056 309.554 155.441 304.58 168.616C302.095 175.213 298.787 181.509 294.745 187.336C292.721 190.249 290.472 193.012 288.086 195.659C285.667 198.281 283.054 200.733 280.294 203.026C277.497 205.28 274.533 207.337 271.43 209.187C268.291 210.983 265.022 212.561 261.635 213.873C258.224 215.12 254.739 216.164 251.152 216.858C247.574 217.56 243.93 217.929 240.271 217.97C232.963 218.05 225.524 216.815 218.599 213.869C215.147 212.394 211.825 210.505 208.829 208.157C205.826 205.838 203.17 203.132 200.882 200.217C196.294 194.369 193.142 187.784 190.834 181.133C189.681 177.799 188.74 174.433 187.949 171.051C187.16 167.666 186.519 164.218 186.091 160.71C185.237 153.707 185.263 146.38 186.883 139.151C187.278 137.347 187.803 135.56 188.406 133.796C188.704 132.911 189.086 132.024 189.429 131.141C189.811 130.272 190.225 129.418 190.633 128.561C192.365 125.187 194.539 122.047 197.125 119.237C199.711 116.43 202.717 113.948 206.12 111.985C209.513 110.023 213.328 108.589 217.342 108.008C221.338 107.39 225.534 107.619 229.447 108.689C233.368 109.749 236.985 111.593 240.13 113.907C246.428 118.571 250.95 124.936 253.765 131.9C254.477 133.644 255.037 135.447 255.529 137.268C255.981 139.103 256.347 140.963 256.564 142.855C256.761 144.748 256.889 146.658 256.805 148.585C256.803 149.065 256.771 149.547 256.731 150.028C256.689 150.506 256.669 151.002 256.606 151.463L256.211 154.218C255.565 157.861 254.631 161.467 253.225 164.848C253.057 165.273 252.902 165.707 252.723 166.126L252.151 167.368C251.759 168.189 251.407 169.036 250.977 169.833L249.685 172.224C249.264 173.029 248.755 173.768 248.292 174.543C247.377 176.101 246.303 177.528 245.291 179.007C244.194 180.407 243.147 181.859 241.974 183.184C239.708 185.917 237.238 188.43 234.702 190.848C232.164 193.268 229.48 195.494 226.759 197.658C224.02 199.813 221.162 201.721 218.339 203.705C212.562 207.459 206.645 211.027 200.415 213.979L198.098 215.124C197.331 215.517 196.525 215.827 195.741 216.182L191.003 218.245C189.41 218.899 187.787 219.481 186.181 220.1L183.765 221.016C182.958 221.318 182.131 221.56 181.314 221.835L176.4 223.433C174.748 223.918 173.08 224.352 171.421 224.812L168.928 225.493C168.093 225.703 167.248 225.875 166.409 226.067L161.364 227.19L156.273 228.082L153.726 228.522L151.161 228.847L146.03 229.483L140.873 229.876L138.294 230.066L135.708 230.137L130.536 230.268L125.361 230.155C124.499 230.13 123.636 230.127 122.775 230.085L120.192 229.9C118.471 229.77 116.748 229.667 115.029 229.511L109.887 228.88C106.448 228.494 103.077 227.859 99.7561 227.26C93.1174 226.026 86.6769 224.665 80.3361 223.817C76.5173 223.316 72.7153 222.954 68.9927 222.948C65.3108 222.94 61.6253 223.256 58.0642 223.975C54.5107 224.71 51.0811 225.83 47.9428 227.376C44.8277 228.953 42.0391 230.977 39.7421 233.41C35.1904 238.25 32.8139 245.129 32.7626 252.064C32.7493 253.791 32.8787 255.546 33.1386 257.231C33.4015 258.884 33.8336 260.531 34.4148 262.135C35.5778 265.345 37.3339 268.386 39.5322 271.02C41.6403 273.541 44.0537 275.587 46.572 277.06C49.0915 278.539 51.7098 279.436 54.2552 279.781C55.5288 279.962 56.7865 279.985 58.0115 279.889L58.4706 279.86L58.8859 279.798C59.1606 279.749 59.4438 279.747 59.7113 279.667C59.9836 279.607 60.2541 279.546 60.5229 279.486C60.7881 279.401 61.0514 279.318 61.3131 279.235C63.4045 278.52 65.2887 277.286 66.8623 275.81C68.4503 274.342 69.7068 272.624 70.7148 270.895C71.6989 269.147 72.4012 267.361 72.8544 265.628C73.7642 262.154 73.631 258.901 72.7133 256.268C72.5537 255.785 72.3552 255.35 72.1877 254.925C71.9787 254.528 71.8047 254.133 71.6113 253.786C71.4061 253.448 71.2188 253.128 71.0493 252.828C70.8584 252.548 70.6818 252.291 70.5291 252.05C69.8966 251.11 69.5379 250.543 69.653 250.243C69.756 249.955 70.2885 249.986 71.2965 250.39C72.2473 250.852 73.7001 251.736 75.1108 253.494C76.5172 255.229 77.8445 257.842 78.3416 261.127C78.8366 264.396 78.575 268.282 77.1369 272.315C76.4174 274.329 75.4063 276.381 74.0273 278.377C72.642 280.362 70.9093 282.323 68.6684 283.983C66.4375 285.63 63.7166 287.04 60.5982 287.674C60.2151 287.748 59.8094 287.849 59.4371 287.895C59.0623 287.944 58.6856 287.993 58.3071 288.042C57.5487 288.122 56.7756 288.173 55.9969 288.186C54.4356 288.226 52.8486 288.08 51.2576 287.83C47.2268 287.163 43.4045 285.556 40.0454 283.362C36.6777 281.164 33.7384 278.389 31.2809 275.24C28.8266 272.087 26.8384 268.549 25.4622 264.725C24.7738 262.814 24.237 260.833 23.8814 258.799C23.5432 256.788 23.3376 254.798 23.2941 252.776C23.2579 250.759 23.362 248.737 23.6108 246.725C23.8684 244.714 24.294 242.719 24.8599 240.756C25.4188 238.791 26.1739 236.872 27.0751 235.016C27.9761 233.161 29.0354 231.366 30.2838 229.697C30.8831 228.845 31.5882 228.084 32.2422 227.281C32.9267 226.505 33.6748 225.793 34.3936 225.054C35.1658 224.38 35.9283 223.689 36.7241 223.05C37.5459 222.452 38.3374 221.8 39.1899 221.261C42.5567 219.015 46.1851 217.338 49.8673 216.116C51.985 215.389 54.1431 214.871 56.3037 214.408C58.4715 214.007 60.6463 213.661 62.8284 213.489C65.0089 213.273 67.193 213.231 69.3736 213.233C71.5312 213.273 73.6732 213.371 75.7914 213.563C84.2827 214.293 92.3826 216.07 100.288 217.578C102.265 217.959 104.23 218.322 106.188 218.656L109.119 219.132L112.05 219.501C115.949 220.071 119.885 220.313 123.817 220.58C131.695 220.94 139.601 220.624 147.442 219.751L150.379 219.391C151.359 219.271 152.34 219.167 153.31 218.979L159.144 217.979L164.925 216.708L166.371 216.389L167.798 216L170.654 215.223C178.245 213.085 185.706 210.446 192.864 207.141C200.016 203.828 206.905 199.974 213.443 195.603C220.019 191.247 226.083 186.313 231.433 180.755C236.746 175.192 241.212 168.913 244.086 162.073C245.525 158.657 246.471 155.089 246.95 151.481C247.01 151.032 247.092 150.574 247.134 150.133L247.231 148.826C247.254 147.949 247.275 147.071 247.227 146.188C247.146 144.425 246.913 142.657 246.539 140.912C245.779 137.42 244.435 134.031 242.638 130.925C240.814 127.839 238.528 125.035 235.857 122.775C233.179 120.531 230.125 118.849 226.908 117.989C223.695 117.089 220.324 117.151 217.063 117.922C216.651 117.989 216.255 118.143 215.852 118.263C215.454 118.4 215.042 118.488 214.652 118.657C213.87 118.985 213.073 119.27 212.321 119.688C210.781 120.425 209.341 121.407 207.959 122.461C205.23 124.633 202.817 127.3 200.951 130.321C197.123 136.273 195.581 143.604 195.496 151.021C195.456 158.461 196.856 166.103 198.999 173.496C200.065 177.178 201.376 180.75 202.964 184.135C204.537 187.528 206.437 190.702 208.654 193.552C208.949 193.955 209.266 194.337 209.593 194.709C209.919 195.082 210.23 195.471 210.565 195.834C211.251 196.541 211.912 197.279 212.649 197.926C213.349 198.618 214.123 199.216 214.874 199.843C215.254 200.15 215.664 200.414 216.056 200.703C216.46 200.977 216.831 201.294 217.261 201.533C220.564 203.624 224.238 205.24 228.158 206.193C235.98 208.157 244.53 207.887 252.455 205.752C260.428 203.629 267.821 199.616 274.121 194.346C280.435 189.079 285.676 182.604 289.755 175.603C296.255 164.403 299.915 151.431 300.082 138.454C300.111 135.21 299.915 131.973 299.53 128.763C299.113 125.575 298.444 122.342 297.636 119.175C295.961 112.841 293.54 106.685 290.454 100.845C284.285 89.1504 275.577 78.7409 265.399 70.0368C255.211 61.3287 243.538 54.2689 231.087 49.1903C218.643 44.146 205.328 41.069 191.951 40.4705C178.6 39.8751 165.111 41.7578 152.989 46.8765C149.957 48.1409 147.039 49.6423 144.222 51.2995C142.803 52.1141 141.452 53.0311 140.089 53.9304C138.767 54.8889 137.428 55.8365 136.208 56.8448C131.274 60.8743 127.042 65.8498 124.566 71.3403C123.334 74.0785 122.569 76.9311 122.414 79.7588L122.373 80.2894L122.389 80.8172L122.41 81.8728C122.431 82.5759 122.573 83.2658 122.635 83.9651C122.885 85.307 123.247 86.6066 123.804 87.8395C125.98 92.798 130.99 96.5469 136.694 98.3415C140.94 99.6823 145.582 100.022 149.944 99.2616C152.124 98.8852 154.233 98.2262 156.161 97.2744C157.12 96.7937 158.055 96.2697 158.915 95.6511L159.562 95.1916C159.776 95.0361 159.968 94.8554 160.174 94.6899L160.783 94.1845L161.38 93.6102C162.973 92.0782 164.364 90.3383 165.529 88.4387C166.687 86.5335 167.611 84.4687 168.308 82.311C169.698 77.9924 170.181 73.3049 169.794 68.664C169.416 64.0217 168.216 59.4167 166.269 55.1814C165.294 53.0654 164.14 51.0356 162.792 49.1585C162.439 48.6983 162.122 48.2258 161.743 47.7731L160.602 46.4147C159.874 45.4816 159.011 44.662 158.194 43.8028C151.497 37.0331 142.627 32.4082 133.225 29.6054C123.793 26.7983 113.75 25.7464 103.819 26.1861C93.9027 26.6619 84.0605 28.7292 75.1258 32.7084C70.6634 34.6955 66.44 37.1616 62.5985 40.1017C58.7828 43.0191 55.3765 46.4593 52.489 50.3064C46.7388 57.9929 43.0303 67.2658 42.4993 76.6768C42.2574 80.8728 42.6814 85.0411 43.746 89.0913C44.8392 93.157 46.4921 97.0625 48.7398 100.66C50.9826 104.26 53.7331 107.585 56.8283 110.636C59.9296 113.685 63.3901 116.443 67.0221 119.015C74.3055 124.155 82.3074 128.496 90.4603 132.69C98.619 136.89 106.973 140.925 115.176 145.51C131.656 154.774 146.435 166.701 159.523 180.069C162.792 183.419 165.959 186.861 169.04 190.373C172.095 193.912 175.096 197.474 177.976 201.166C180.856 204.858 183.646 208.657 186.223 212.632C188.792 216.613 191.156 220.765 193.18 225.116C195.181 229.476 196.823 234.043 197.958 238.763C199.092 243.522 199.577 248.425 199.459 253.32C199.355 258.216 198.509 263.116 196.961 267.828C195.431 272.543 193.03 277.041 189.829 280.952C189.069 281.962 188.154 282.845 187.29 283.769C186.409 284.685 185.41 285.536 184.406 286.333C182.37 287.91 180.163 289.238 177.851 290.317C173.213 292.441 168.161 293.59 163.047 293.618C157.948 293.648 152.727 292.537 148.114 289.991C143.521 287.457 139.611 283.502 137.426 278.584C136.327 276.136 135.663 273.411 135.673 270.583C135.69 269.171 135.889 267.739 136.266 266.36C136.646 264.987 137.205 263.684 137.876 262.486C139.225 260.082 140.985 258.11 142.811 256.391C143.727 255.53 144.668 254.731 145.615 253.971C146.565 253.217 147.537 252.518 148.498 251.791C156.299 246.144 165.14 242.021 174.367 239.454C192.838 234.321 212.853 235.227 230.749 242.011C234.312 243.372 237.797 244.925 241.112 246.769C244.432 248.596 247.648 250.599 250.641 252.886C253.653 255.155 256.487 257.584 259.124 260.281C261.746 262.989 264.178 266 265.979 269.501C266.875 271.248 267.6 273.12 268.053 275.084C268.497 277.043 268.713 279.07 268.479 281.21C268.242 283.299 267.607 285.285 266.672 287.103C265.733 288.918 264.49 290.577 262.939 291.967C261.393 293.35 259.509 294.469 257.384 295.024C255.267 295.585 252.952 295.529 250.895 294.847C248.818 294.177 247.01 292.926 245.618 291.43C244.218 289.93 243.192 288.193 242.482 286.375C241.772 284.554 241.386 282.638 241.318 280.702C241.291 279.738 241.341 278.748 241.476 277.806C241.612 276.877 241.802 275.96 242.058 275.07C243.067 271.492 244.893 268.353 246.915 265.548C248.957 262.732 251.187 260.224 253.442 257.751C255.71 255.286 258.087 252.927 260.626 250.768C263.161 248.608 265.855 246.641 268.725 244.999C271.593 243.358 274.659 242.085 277.814 241.273C284.16 239.612 290.903 240.406 296.44 243.176C298.982 244.459 300.942 245.996 302.294 247.532C303.631 249.08 304.489 250.505 304.924 251.693C305.42 252.855 305.514 253.759 305.534 254.292C305.549 254.826 305.427 255.025 305.185 254.908C304.943 254.793 304.578 254.372 304.126 253.668C303.612 252.99 302.947 252.053 301.949 250.987C300.909 249.956 299.586 248.76 297.736 247.676C295.881 246.618 293.549 245.618 290.733 245.062C288.75 244.638 286.695 244.526 284.677 244.621C283.662 244.649 282.669 244.817 281.677 244.965L280.221 245.304C279.735 245.415 279.23 245.606 278.735 245.75C276.754 246.403 274.826 247.265 272.964 248.306C271.102 249.349 269.319 250.596 267.595 251.954C264.142 254.672 260.986 257.939 257.982 261.43C256.487 263.173 254.989 265.011 253.637 266.805C252.287 268.607 251.071 270.422 250.119 272.256C249.163 274.09 248.486 275.936 248.169 277.754C248.115 277.981 248.107 278.209 248.071 278.435C248.039 278.665 248.008 278.892 248.009 279.085C248.004 279.288 247.983 279.488 247.981 279.693L248.005 280.314C248.076 281.144 248.191 281.995 248.461 282.804C248.954 284.43 249.85 285.911 250.906 286.879C251.438 287.35 251.989 287.713 252.546 287.951C253.109 288.161 253.697 288.263 254.267 288.28C255.381 288.238 256.599 287.806 257.745 286.78C258.904 285.817 259.844 284.341 260.429 282.818C260.685 282.047 260.915 281.259 260.96 280.495C261.027 280.108 260.989 279.744 261.001 279.375C261.01 279.196 260.962 278.952 260.949 278.744C260.925 278.527 260.921 278.309 260.871 278.093C260.748 277.224 260.5 276.355 260.211 275.484C259.875 274.617 259.523 273.744 259.032 272.887C257.497 270.049 255.165 267.331 252.505 264.791C249.788 262.252 246.864 259.866 243.759 257.735C240.652 255.597 237.337 253.739 233.912 252.093C230.48 250.461 226.927 249.036 223.26 247.931C215.942 245.69 208.275 244.418 200.581 244.269C192.888 244.065 185.179 244.98 177.793 246.911C177.724 246.983 177.658 247.05 177.57 247.128Z" fill="black" fill-opacity="0.12"/>
</svg>
