<svg width="167" height="167" viewBox="0 0 167 167" fill="none" xmlns="http://www.w3.org/2000/svg">
<g clip-path="url(#clip0_2388_587)">
<g clip-path="url(#clip1_2388_587)">
<path d="M107.037 109.236C104.683 108.661 102.625 107.236 101.259 105.235C100.979 104.861 100.53 104.338 100.362 104.095L99.7449 103.272C99.3148 102.711 98.9783 102.281 98.567 101.795C98.1556 101.309 97.2021 100.598 96.5851 99.9251L96.2859 99.6446L96.0615 99.4016C95.9714 99.2927 95.8712 99.1926 95.7624 99.1024C95.5213 98.8541 95.2066 98.6902 94.8649 98.635C94.0797 98.635 93.9114 99.4764 93.7618 100.262C93.7618 100.355 93.7618 100.879 93.7618 101.196C93.7618 101.514 93.7618 101.944 93.7618 102.318C93.7647 103.051 93.8272 103.783 93.9488 104.506C94.2178 106.197 94.7278 107.84 95.4632 109.386C95.725 109.853 95.4632 110.339 94.5471 110.545C93.1686 110.791 91.7597 110.319 90.8077 109.292C90.3462 108.774 89.9214 108.224 89.5363 107.647C89.2313 107.056 89.005 106.427 88.8632 105.777C88.5792 104.625 88.4039 103.448 88.3396 102.262L88.2275 100.486C88.201 99.531 88.2385 98.5753 88.3396 97.6253C88.6161 95.9351 89.559 94.4264 90.9572 93.4372C92.681 92.4608 94.7702 92.3773 96.5664 93.2128C97.5144 93.6067 98.4171 94.102 99.2588 94.6899C99.9217 95.109 100.547 95.5844 101.128 96.1109C102.256 97.1487 103.3 98.274 104.251 99.4764C105.373 100.823 105.391 101.028 105.896 101.589C106.149 101.947 106.52 102.206 106.943 102.318C107.382 102.33 107.786 102.08 107.972 101.683C108.16 101.408 108.317 101.114 108.439 100.804C108.524 100.634 108.599 100.459 108.663 100.28L108.963 99.5138L110.421 95.7743C111.119 93.6093 112.04 91.5227 113.169 89.5482C113.447 89.0825 113.759 88.6387 114.104 88.2207C114.549 87.6083 115.224 87.2033 115.974 87.0989C116.654 87.2445 117.266 87.613 117.713 88.1459C117.957 88.3633 118.182 88.601 118.386 88.8564C118.678 89.2961 118.846 89.8064 118.872 90.3335C119.049 90.8804 119.049 91.4693 118.872 92.0162C117.563 94.7757 116.402 97.603 115.394 100.486L114.516 102.636C114.315 103.278 114.065 103.903 113.768 104.506C113.534 105.115 113.227 105.693 112.852 106.226C112.526 106.746 112.136 107.223 111.692 107.647L111.057 108.245L110.327 108.694C109.311 109.267 108.141 109.509 106.981 109.386L107.037 109.236Z" fill="#9EA1D4"/>
<path d="M82.0948 131.822C75.6388 124.132 69.7937 115.949 64.613 107.348C59.1379 98.4195 55.5136 88.4814 53.9557 78.1243C52.7781 70.2859 53.4896 62.2796 56.031 54.7717C58.5478 48.0732 62.8471 42.1898 68.4646 37.7573C74.05 33.4637 80.6775 30.734 87.6666 29.8484C94.4396 28.9591 101.324 29.4941 107.878 31.419C114.471 33.3811 120.456 36.991 125.266 41.9081C129.356 46.2432 132.676 51.2449 135.082 56.6975C137.405 61.9621 139.184 67.4501 140.392 73.0761C141.168 76.6928 141.68 80.3607 141.926 84.0513C142.221 87.6518 142.321 91.2657 142.225 94.877C142.128 102.037 141.616 109.185 140.692 116.285C140.093 120.679 138.822 120.025 137.438 116.173C135.584 110.103 134.529 103.818 134.297 97.4759C134.166 93.9234 133.886 90.3897 133.661 86.9307C133.461 83.5518 133.067 80.1871 132.484 76.8529C131.233 70.2831 129.101 63.9121 126.145 57.9128C124.671 55.0865 122.904 52.4231 120.873 49.9665C118.861 47.6305 116.54 45.5798 113.973 43.8713C111.32 42.2235 108.476 40.905 105.504 39.9449C102.35 39.0011 99.102 38.4054 95.8185 38.1686C87.9679 37.4527 80.1425 39.7822 73.9616 44.6752C67.8815 49.8055 63.9673 57.046 63.0051 64.9429C62.4368 69.3923 62.506 73.9001 63.2107 78.33C63.9765 82.8523 65.2303 87.2782 66.9502 91.5302C70.7856 100.205 75.6844 108.37 81.5339 115.836C84.6002 119.912 87.7974 123.914 91.0881 127.896L100.324 138.983C100.624 139.32 100.867 139.694 101.185 139.993C101.502 140.292 102.045 139.881 102.437 139.731C102.83 139.582 103.466 139.152 103.97 138.834L106.738 136.964C108.607 135.693 110.589 134.403 112.59 133.225C113.581 132.608 114.609 131.991 115.637 131.355L117.283 130.458C117.918 130.121 118.461 129.822 119.265 129.448C122.05 128.061 125.004 127.043 128.052 126.419C130.62 125.915 133.262 125.915 135.83 126.419C138.261 126.856 140.514 127.986 142.318 129.672C143.233 130.549 143.641 131.83 143.403 133.075C143.131 134.066 142.646 134.985 141.982 135.768C140.498 137.63 138.746 139.262 136.784 140.61C134.914 141.919 132.727 143.228 130.558 144.536L127.398 146.406L126.201 147.191L125.173 147.902C123.843 148.811 122.592 149.831 121.434 150.95C120.467 151.818 119.696 152.883 119.171 154.072L119.059 154.409L116.367 153.53C116.325 153.51 116.277 153.51 116.236 153.53C116.067 153.53 116.236 153.53 116.236 153.53C116.236 153.53 116.236 153.53 116.236 153.399L116.385 153.1C116.46 152.903 116.498 152.694 116.497 152.483C116.604 151.865 116.654 151.24 116.647 150.613H117.04C117.694 150.501 118.498 150.295 119.283 150.09L124.238 148.706C128.931 147.435 135.251 145.677 139.308 146.014C140.424 146.073 141.529 146.268 142.599 146.593C143.605 146.949 144.523 147.517 145.291 148.257C145.584 148.733 145.805 149.25 145.945 149.79C146.018 150.224 146.018 150.666 145.945 151.099C145.784 152.262 145.424 153.388 144.88 154.427C144.226 155.671 143.409 156.822 142.449 157.849C140.402 159.845 138.202 161.676 135.868 163.327L134.615 164.262C134.316 164.503 134.004 164.728 133.68 164.935C133.25 165.178 132.857 165.384 132.484 165.552C131.787 165.856 131.068 166.107 130.333 166.3C129.661 166.552 129.03 166.905 128.464 167.347C128.015 167.646 127.585 167.627 127.248 166.954C126.875 165.908 126.875 164.766 127.248 163.72C127.472 163.004 127.76 162.309 128.108 161.644C128.286 161.271 128.486 160.909 128.707 160.56L128.875 160.279C128.875 160.279 128.875 160.279 128.875 160.149V159.924C129.078 159.41 129.329 158.915 129.623 158.447C129.806 158.176 129.963 157.888 130.09 157.587C130.11 157.469 130.11 157.349 130.09 157.232C130.107 157.146 130.085 157.058 130.031 156.99C129.977 156.922 129.897 156.88 129.81 156.877C129.094 156.864 128.387 157.031 127.753 157.363L127.08 157.662L126.818 157.811H126.706L126.426 157.924L122.387 159.008C120.783 159.446 119.153 159.783 117.507 160.018H116.497H115.675C115.239 159.995 114.806 159.926 114.385 159.812C114.027 159.728 113.677 159.616 113.338 159.475L112.795 159.232C112.346 158.98 111.926 158.679 111.543 158.335C109.943 156.94 109.168 154.824 109.486 152.726C109.486 152.483 109.486 152.221 109.598 151.997C109.71 151.772 109.767 151.436 109.748 151.51V151.398V151.174L109.935 150.707C110.14 150.127 110.403 149.569 110.72 149.042C110.976 148.537 111.276 148.055 111.618 147.603C112.723 146.036 114.024 144.616 115.488 143.377C116.797 142.255 118.087 141.264 119.377 140.348L121.247 139.152L121.789 138.778L121.303 139.04L120.517 139.47C119.844 139.843 119.171 140.255 118.498 140.647C115.806 142.293 113.132 144.125 110.234 146.051L109.131 146.78L108.215 147.378L107.149 148.033C105.789 148.899 104.325 149.59 102.793 150.09C101.367 150.482 99.8617 150.482 98.4361 150.09C98.089 150.008 97.7677 149.84 97.5012 149.603L96.6038 148.986L94.7341 147.752L81.4591 132.047L82.0948 131.822Z" fill="#9EA1D4"/>
<path d="M99.2957 89.193C100.92 90.2463 102.403 91.503 103.708 92.9324L104.512 93.8111V93.9794L104.718 94.3534L105.241 95.3069C105.335 95.4378 105.466 95.8304 105.615 95.6809C105.706 95.5764 105.775 95.4559 105.821 95.3256C105.989 94.8956 105.933 94.2412 106.158 93.7925C106.158 93.7925 106.158 93.7925 106.158 93.5868L106.363 92.8389L106.849 91.1936L107.149 90.2774L107.635 89.1182C107.983 88.3121 108.408 87.5418 108.906 86.8184C109.725 85.4951 110.897 84.4266 112.29 83.7334C113.671 83.0776 115.234 82.9127 116.721 83.266C118.228 83.6032 119.632 84.2955 120.816 85.2853C121.41 85.7921 121.978 86.3288 122.518 86.8932C122.966 87.4728 123.322 88.0898 123.714 88.7629C124.846 90.8561 125.533 93.1603 125.733 95.5313C125.864 96.5222 125.864 97.401 125.958 98.4106C126.051 99.4203 125.958 100.28 125.958 101.215C125.978 103.019 125.904 104.823 125.733 106.619C125.509 108.9 125.229 111.143 124.873 113.35C124.686 114.453 124.126 115.5 123.92 116.584C123.714 117.669 123.452 118.753 123.265 119.838C123.078 120.922 122.405 121.015 121.695 119.838C121.24 119.033 120.876 118.18 120.61 117.295C120.405 116.753 120.33 116.192 120.124 115.575C119.863 114.965 119.639 114.341 119.451 113.705C119.189 111.368 119.246 109.143 119.096 106.937L118.89 103.702C118.89 102.655 118.89 101.608 118.741 100.598C118.649 98.7564 118.348 96.931 117.843 95.1573C117.759 94.7833 117.633 94.4197 117.469 94.0729C117.338 93.8111 117.189 93.3437 117.114 93.2315C116.89 92.7828 116.852 92.5397 116.703 92.2406C116.511 91.8453 116.13 91.5767 115.693 91.5301C115.261 91.6065 114.896 91.8943 114.721 92.2967C114.614 92.5001 114.527 92.7129 114.459 92.9324C114.328 93.2876 114.123 93.8859 113.954 94.4842L113.674 95.4565L113.262 97.1392L112.533 100.523C112.217 102.489 111.456 104.356 110.308 105.983C110.091 106.25 109.853 106.5 109.598 106.731C109.317 106.999 108.978 107.197 108.607 107.31C108.289 107.367 107.961 107.3 107.691 107.123C107.429 106.974 107.223 106.918 106.905 106.712L105.989 106.151L104.905 105.31L104.624 105.104L104.325 104.712L103.746 103.926L102.586 102.374L101.427 100.766L100.231 99.3829C100.025 99.1585 99.838 98.9155 99.6136 98.7098L99.221 98.2798C98.9592 98.0367 98.7348 97.7562 98.4731 97.5319C97.506 96.5661 96.3883 95.7642 95.1637 95.1573C94.7307 94.9595 94.2454 94.9071 93.7801 95.0078C93.3209 95.1614 92.9175 95.4476 92.6209 95.8304C92.1505 96.4779 91.9434 97.2798 92.0413 98.0741C92.1328 99.2872 92.4103 100.479 92.8639 101.608C93.8593 104.133 95.1725 106.52 96.7716 108.713C99.3906 112.101 102.327 115.231 105.541 118.061C106.232 118.716 106.962 119.295 107.635 119.931C110.177 122.38 110.664 123.409 110.009 125.26C109.888 125.685 109.745 126.103 109.579 126.512C108.925 127.784 106.999 127.616 104.755 125.989C97.8098 120.851 91.9721 114.364 87.5914 106.918C86.6601 105.29 85.9079 103.566 85.3477 101.776C85.0463 100.724 84.8336 99.6481 84.712 98.5602C84.6631 97.8443 84.6631 97.1259 84.712 96.41C84.773 95.6532 84.9236 94.9064 85.1607 94.1851C85.2627 93.8223 85.3876 93.4663 85.5347 93.1194L86.0769 92.1284C86.4356 91.4589 86.8684 90.8317 87.367 90.2587C87.8905 89.7726 88.4514 89.2864 89.031 88.8377C89.628 88.4492 90.2529 88.1054 90.9007 87.8094C93.7596 86.9634 96.8441 87.3855 99.3705 88.9686L99.2957 89.193Z" fill="#9EA1D4"/>
<path d="M47.5807 44.1518C48.1603 44.1518 47.992 44.9558 47.3563 46.2085C47.031 46.7831 46.5996 47.2906 46.0849 47.7043C45.7091 47.8548 45.3214 47.9736 44.9257 48.0595C44.7387 48.0595 42.5138 47.3303 41.6911 47.162C40.9528 46.9662 40.2517 46.6504 39.6157 46.2272C38.3069 45.4419 36.942 44.7127 35.5959 43.9461C35.2904 43.7777 35.0281 43.541 34.8293 43.2544C34.0841 42.3036 33.1049 41.5627 31.9873 41.1042C31.8025 40.9577 31.5559 40.9154 31.3329 40.992C30.01 40.6931 28.7904 40.0479 27.7992 39.1223C27.2756 38.0192 26.6212 37.103 26.0229 36.0934C25.9294 35.9625 25.7612 35.9438 25.8173 35.6072C25.9668 34.8594 25.649 34.7472 25.4246 34.4854C25.0834 34.0859 24.8572 33.6012 24.7702 33.0831C24.7211 32.7358 24.7211 32.3834 24.7702 32.0361C24.7702 31.7182 25.3124 31.1947 25.4246 31.1573C25.5368 31.1199 25.836 30.6899 26.0229 30.4281C26.0808 30.3272 26.1498 30.2332 26.2286 30.1477C26.2286 30.1477 27.1261 30.0355 28.0983 29.8672C28.7181 29.7742 29.3483 29.7742 29.968 29.8672L30.5476 30.1103L31.8003 30.5964L33.9505 31.363C34.1562 31.363 34.231 31.6995 34.3618 31.9239C34.4927 32.1483 37.129 33.2701 37.2225 33.3636C37.6712 33.7936 38.3256 33.9432 38.4752 34.822C38.4752 34.9902 38.6248 35.0276 38.737 35.1024C39.5609 35.7142 40.3135 36.4167 40.9806 37.1965C41.3733 37.5704 41.8781 37.8322 42.3081 38.1687C42.3081 38.1687 42.4203 38.3557 42.4764 38.4492C42.5325 38.5427 42.6073 38.711 42.7194 38.767C43.7135 39.6263 44.7628 40.4196 45.8606 41.1416C46.141 41.2912 46.9076 42.7308 47.2255 42.8804C47.5433 43.03 47.3563 44.1705 47.5807 44.1518Z" fill="#9EA1D4"/>
<path d="M61.1356 30.5216C61.5657 30.8956 60.8552 31.3256 59.509 31.6995C58.8948 31.8297 58.2656 31.8737 57.6393 31.8304C57.2466 31.6434 56.8727 31.4752 56.5922 31.3069C56.3118 31.1386 55.4517 29.4372 55.003 28.7828C54.6166 28.2151 54.3378 27.5814 54.1803 26.9131C53.8064 25.623 53.3389 24.3516 52.8902 23.0241C52.824 22.716 52.824 22.3973 52.8902 22.0892C53.0129 20.9958 52.8114 19.8904 52.3106 18.9107C52.3106 18.7424 52.3106 18.5555 51.9179 18.4433C51.1694 17.42 50.746 16.1953 50.7026 14.9282C51.0766 13.8251 51.2635 12.7594 51.544 11.6936C51.544 11.544 51.544 11.4132 51.731 11.2262C52.1291 11.0632 52.3507 10.6359 52.2545 10.2166C52.2951 9.72705 52.4626 9.25659 52.7406 8.85166C52.9562 8.5937 53.2009 8.36156 53.4698 8.15987C53.8102 8.00927 54.1878 7.9637 54.5542 8.02899C54.8347 8.19726 55.1899 8.02899 55.5078 8.02899H55.8443C55.8443 8.02899 56.5548 8.53381 57.3027 9.00124C57.7663 9.3059 58.1822 9.67766 58.5367 10.1044C58.5367 10.1044 58.6302 10.31 58.7611 10.6092L59.3033 11.6749C59.6959 12.4602 60.2008 13.2455 60.2756 13.4325C60.3503 13.6194 60.2756 13.8251 60.2756 14.0308C60.2756 14.2364 61.3226 16.5923 61.3413 16.7044C61.3413 17.2654 61.7339 17.7515 61.2478 18.4433C61.1913 18.5483 61.1913 18.6748 61.2478 18.7798C61.4774 19.7473 61.5842 20.7398 61.5657 21.734C61.6303 22.2314 61.7239 22.7246 61.8461 23.211C61.864 23.31 61.864 23.4113 61.8461 23.5102C61.8108 23.6323 61.8108 23.762 61.8461 23.8841C61.9832 25.1027 62.1829 26.3134 62.4444 27.5114C62.5379 27.7918 62.0518 29.2502 62.1827 29.5681C62.3135 29.8859 60.986 30.3907 61.1356 30.5216Z" fill="#9EA1D4"/>
<path d="M44.0461 63.1107C44.607 62.8116 44.9436 63.6156 45.0745 64.9804C45.0692 65.62 44.9489 66.2533 44.7192 66.8502C44.4201 67.1867 44.1396 67.5233 43.8778 67.7663C42.78 68.1101 41.7004 68.5095 40.6432 68.9629C39.93 69.2858 39.1746 69.5061 38.3996 69.6173C36.8664 69.9352 35.3333 70.3652 33.744 70.7952C33.3801 70.8698 33.0048 70.8698 32.6409 70.7952C31.3884 70.566 30.0973 70.6757 28.9015 71.1131C28.6771 71.1131 28.4527 71.1131 28.3031 71.487C26.9888 72.1875 25.5291 72.5716 24.0402 72.6089C22.7688 72.2162 21.5161 72.0293 20.3008 71.7488C20.1325 71.7488 19.9642 71.7488 19.7586 71.5244C19.3098 70.8326 18.9546 71.0009 18.5806 70.9635C18.0233 70.8632 17.4823 70.687 16.9727 70.44C16.6694 70.2316 16.3985 69.9796 16.1687 69.6921C15.9257 69.4491 16.0004 68.589 16.0565 68.4768C16.1126 68.3646 16.0565 67.7663 16.0565 67.4111C16.0565 67.0558 16.0565 67.1306 16.0565 67.0184C16.4562 66.5297 16.8806 66.0616 17.3279 65.6162C17.7173 65.086 18.1985 64.6301 18.7489 64.27L19.3846 64.0456L20.7308 63.5221L22.8997 62.6059C23.1053 62.4937 23.3858 62.6059 23.6289 62.6059C23.8719 62.6059 26.8448 61.428 26.9943 61.428C27.6861 61.428 28.3218 60.998 29.1258 61.5215C29.2754 61.6337 29.4063 61.5215 29.5559 61.5215C30.7826 61.2496 32.0448 61.1739 33.2953 61.2971C33.931 61.2971 34.548 61.2036 35.165 61.1849C35.2772 61.1849 35.408 61.1849 35.5202 61.2971C35.6662 61.3477 35.8164 61.3852 35.969 61.4093C37.5021 61.2784 39.0353 61.5776 40.5871 61.4093C40.9611 61.4093 42.6625 62.1572 43.0739 62.1385C43.4852 62.1198 43.8404 63.2229 44.0461 63.1107Z" fill="#9EA1D4"/>
</g>
</g>
<defs>
<clipPath id="clip0_2388_587">
<rect width="167" height="167" fill="white"/>
</clipPath>
<clipPath id="clip1_2388_587">
<rect width="167" height="167" fill="white"/>
</clipPath>
</defs>
</svg>
