<svg width="16" height="16" viewBox="0 0 16 16" fill="none" xmlns="http://www.w3.org/2000/svg">
<path d="M10.875 8C10.875 8.09946 10.8355 8.19484 10.7652 8.26517C10.6948 8.33549 10.5995 8.375 10.5 8.375H5.5C5.40055 8.375 5.30516 8.33549 5.23484 8.26517C5.16451 8.19484 5.125 8.09946 5.125 8C5.125 7.90054 5.16451 7.80516 5.23484 7.73484C5.30516 7.66451 5.40055 7.625 5.5 7.625H10.5C10.5995 7.625 10.6948 7.66451 10.7652 7.73484C10.8355 7.80516 10.875 7.90054 10.875 8ZM14.375 8C14.375 9.26086 14.0011 10.4934 13.3006 11.5418C12.6001 12.5901 11.6045 13.4072 10.4396 13.8897C9.27473 14.3722 7.99293 14.4985 6.7563 14.2525C5.51967 14.0065 4.38376 13.3994 3.4922 12.5078C2.60064 11.6162 1.99348 10.4803 1.7475 9.2437C1.50152 8.00707 1.62776 6.72527 2.11027 5.56039C2.59278 4.39551 3.40988 3.39988 4.45824 2.69938C5.50661 1.99889 6.73915 1.625 8 1.625C9.69015 1.62698 11.3105 2.29927 12.5056 3.49439C13.7007 4.6895 14.373 6.30985 14.375 8ZM13.625 8C13.625 6.88748 13.2951 5.79994 12.677 4.87492C12.0589 3.94989 11.1804 3.22892 10.1526 2.80318C9.12476 2.37743 7.99376 2.26604 6.90262 2.48308C5.81148 2.70012 4.8092 3.23585 4.02253 4.02252C3.23586 4.8092 2.70013 5.81147 2.48309 6.90262C2.26604 7.99376 2.37744 9.12476 2.80318 10.1526C3.22892 11.1804 3.94989 12.0589 4.87492 12.677C5.79995 13.2951 6.88748 13.625 8 13.625C9.49134 13.6233 10.9211 13.0302 11.9757 11.9756C13.0302 10.9211 13.6234 9.49134 13.625 8Z" fill="#8F8F8F"/>
</svg>
