<svg width="167" height="167" viewBox="0 0 167 167" fill="none" xmlns="http://www.w3.org/2000/svg">
<g clip-path="url(#clip0_2388_1477)">
<path d="M65.9192 123.217C69.5935 121.276 73.116 119.06 76.4565 116.588C79.9263 114.086 83.1221 111.328 86.2632 108.443C87.4137 107.366 88.5094 106.252 89.6052 105.138C90.7009 104.024 91.7418 102.855 92.8376 101.741C100.585 93.7562 107.636 85.1233 113.912 75.9366C116.675 71.8476 119.158 67.5768 121.345 63.1531C122.733 60.3407 124.011 57.4553 125.143 54.5517C126.275 51.648 127.59 48.8356 128.54 45.8772C129.179 44.051 129.873 44.3614 130.366 46.2241C130.72 47.4726 130.91 48.7617 130.932 50.0592C131.004 50.8977 131.004 51.7408 130.932 52.5794L130.786 53.949C130.678 54.4066 130.543 54.8578 130.384 55.3004C128.189 61.6359 125.4 67.7504 122.057 73.5625C118.78 79.3722 115.036 84.9056 110.862 90.108C105.858 96.3171 100.873 102.891 95.2482 108.918C89.0651 115.533 82.1688 121.443 74.685 126.541C69.9772 129.785 64.8383 132.355 59.4179 134.174C55.145 135.622 50.6014 136.09 46.1231 135.544C43.7601 135.251 41.4737 134.513 39.3844 133.371C37.1253 132.12 35.3028 130.208 34.1615 127.892C32.6253 124.457 32.1669 120.636 32.8466 116.935C33.3329 113.523 34.382 110.215 35.9512 107.146C36.5929 105.811 37.3187 104.518 38.1243 103.275C41.2837 98.7277 43.0734 97.9059 45.0822 98.1981C45.5401 98.2264 45.9934 98.3061 46.4336 98.4355C47.6937 98.9468 47.0728 101.211 45.484 104.407C44.2926 106.752 43.3088 109.196 42.5438 111.712C41.7474 114.014 41.2025 116.396 40.9184 118.816C40.6214 120.638 40.8494 122.506 41.5759 124.203C42.1975 125.519 43.3664 126.494 44.7717 126.87C48.0174 127.928 51.4904 128.079 54.8159 127.308C58.6553 126.437 62.3467 125.01 65.7732 123.071L65.9192 123.217Z" fill="#DBEDF7"/>
<path d="M90.1888 137.535C92.7092 136.496 95.1506 135.276 97.4936 133.883C98.3702 133.371 99.1007 132.677 99.959 132.166C103.064 130.359 106.019 128.307 108.798 126.03C110.01 125 111.145 123.883 112.195 122.688C112.907 121.957 113.473 121.099 114.222 120.405C114.97 119.711 115.683 118.999 116.45 118.323C116.906 117.885 117.29 118.232 117.454 119.017C117.645 120.111 117.505 121.236 117.052 122.25C116.943 122.505 116.851 122.797 116.724 123.035L116.231 123.711L115.226 124.989C114.532 125.847 113.82 126.669 113.071 127.454C111.589 129.049 109.963 130.504 108.213 131.801C106.095 133.335 104.232 135.325 102.059 136.896C99.6023 138.595 97.0337 140.126 94.3708 141.48C92.7455 142.301 91.0836 143.068 89.3852 143.744C86.7782 144.779 84.0741 145.549 81.3134 146.045C79.137 146.517 76.9097 146.714 74.6843 146.629C74.1817 146.626 73.6805 146.577 73.1868 146.483C71.3606 145.862 70.9771 145.132 71.0136 144.091C70.9948 143.848 70.9948 143.604 71.0136 143.361C71.1597 142.63 72.0545 142.21 73.205 142.064C74.0131 141.9 74.8303 141.784 75.6522 141.717C76.4374 141.589 77.2227 141.498 78.008 141.297C79.5785 140.986 81.1308 140.493 82.7744 140.11C85.2873 139.475 87.7335 138.601 90.0792 137.498L90.1888 137.535Z" fill="#DBEDF7"/>
<path d="M57.4997 140.658C55.0735 141.523 52.5436 142.063 49.9757 142.265C47.1053 142.47 44.2269 141.995 41.5752 140.877C38.872 139.682 36.5341 137.791 34.7999 135.398L33.6494 133.7L32.7181 131.874C32.0682 130.536 31.6013 129.117 31.3301 127.655C30.6591 122.601 31.2876 117.46 33.1564 112.717C34.7112 108.442 36.6106 104.302 38.8359 100.335C43.1815 92.5263 48.4884 85.2929 54.6326 78.8039C60.7177 72.2546 67.5732 66.4661 75.0496 61.5645C80.5644 57.9133 86.4922 54.928 92.709 52.6708C99.1375 50.3379 105.967 49.3134 112.797 49.6576C118.948 50.0285 124.961 51.6373 130.475 54.3875C133.361 55.7714 136.031 57.5677 138.401 59.72C140.905 62.0376 142.874 64.8732 144.172 68.0293C145.421 71.1075 146.042 74.4046 145.998 77.7264C145.946 80.8108 145.516 83.8773 144.719 86.8575C143.165 92.5717 140.837 98.0463 137.798 103.129C134.9 108.064 131.563 112.727 127.827 117.063C124.119 121.331 120.142 125.356 115.92 129.116C107.512 136.703 97.9515 142.904 87.5956 147.488C85.2641 148.507 82.8807 149.403 80.4552 150.172C79.2316 150.537 77.9898 150.884 76.8027 151.195C75.1615 151.563 73.4796 151.716 71.7989 151.651C70.0801 151.581 68.3894 151.19 66.8134 150.501C65.2396 149.864 64.0245 148.569 63.4897 146.958C62.6131 143.726 64.6767 140.438 66.996 137.827C67.2699 137.517 67.5987 137.133 67.8361 136.896L68.5118 136.22C68.9683 135.763 69.4249 135.307 69.8814 134.887C70.7945 133.992 71.7076 133.17 72.6938 132.33C74.52 130.668 76.5471 129.116 78.5376 127.6C82.5081 124.588 86.6616 121.825 90.9741 119.327C96.5721 115.994 102.55 113.346 108.78 111.438C112.063 110.461 115.456 109.903 118.879 109.776C122.58 109.621 126.269 110.301 129.672 111.767C133.156 113.401 136.084 116.024 138.09 119.309L139.442 121.72C139.86 122.61 140.208 123.532 140.483 124.477C140.995 126.261 141.284 128.101 141.341 129.956C141.459 133.403 141.009 136.846 140.008 140.146C139.09 143.381 137.764 146.486 136.063 149.387C133.799 153.039 131.936 153.971 131.607 153.459C131.279 152.948 131.918 150.921 132.52 147.707C133.344 143.498 133.547 139.191 133.123 134.923C132.962 132.489 132.452 130.09 131.607 127.801C130.649 125.793 129.28 124.007 127.59 122.56C125.994 121.311 124.11 120.482 122.111 120.149C119.687 119.784 117.22 119.815 114.806 120.241C109.177 121.3 103.736 123.189 98.6625 125.847C93.3211 128.56 88.2144 131.711 83.3954 135.27C80.9482 137.096 78.5742 138.923 76.3827 140.84C75.8349 141.333 75.2687 141.826 74.7757 142.319L73.7895 143.269C73.5886 143.452 73.6434 143.379 73.5704 143.47C73.4973 143.561 73.5704 143.744 73.7895 143.762H74.1L74.867 143.598L75.8896 143.342C77.2593 142.977 78.6472 142.539 80.0169 142.046C85.6332 139.927 91.0132 137.227 96.0693 133.992C106.348 127.303 115.537 119.074 123.316 109.594C127.961 103.938 131.751 97.6309 134.566 90.8751C137.25 84.2643 138.529 76.8864 136.063 71.353C134.794 68.5231 132.7 66.1424 130.055 64.5229C128.623 63.6082 127.128 62.7965 125.581 62.0941C124.759 61.7836 123.955 61.4184 123.134 61.1079L120.632 60.3226C113.744 58.5443 106.518 58.5443 99.6304 60.3226C91.7112 62.3143 84.2018 65.6765 77.4419 70.2572C70.5298 74.8851 64.1859 80.3097 58.5407 86.4192C52.8219 92.4951 47.9115 99.2838 43.931 106.617C42.0131 110.221 40.4768 114.016 39.3472 117.94C38.3063 121.756 38.0323 125.646 39.4568 128.477C40.3342 130.413 41.7233 132.074 43.4744 133.28C44.3287 133.795 45.2596 134.171 46.232 134.394C47.2766 134.609 48.3462 134.677 49.4096 134.595C54.2366 133.953 58.8495 132.203 62.887 129.481C71.5615 124.167 79.3229 116.917 86.7191 109.594C98.0658 98.5719 107.892 86.0863 115.938 72.4669C119.83 65.7453 122.844 58.5522 124.905 51.0638L125.581 48.3427L126.074 45.5304C126.438 43.7244 126.657 41.8925 126.731 40.0517C126.975 36.6902 126.191 33.3341 124.485 30.4276C123.102 28.4132 121.141 26.8658 118.86 25.9899C116.334 25.0657 113.678 24.5479 110.989 24.4559C105.256 24.2753 99.5272 24.9399 93.9874 26.4282C88.3156 27.87 82.7701 29.7694 77.4054 32.1077C72.0813 34.5352 66.958 37.3809 62.0835 40.6179C57.7554 43.485 53.7195 46.6443 49.6105 49.968C45.7937 53.0543 42.6892 55.7206 40.0777 57.9668C37.4662 60.2131 35.2748 61.948 33.4303 63.3542C30.9194 65.498 28.0171 67.1352 24.8836 68.1753C23.8576 68.5622 22.8007 68.8615 21.7243 69.0702C20.4094 69.0702 20.9208 67.4449 22.9661 64.3038C26.1896 59.6051 29.8129 55.1937 33.7955 51.1186C41.7074 42.7657 50.507 35.301 60.0382 28.8571C62.5035 27.2317 65.042 25.6795 67.6717 24.2368C70.3292 22.7483 73.0666 21.407 75.8714 20.2191C81.5016 17.8712 87.3327 16.0375 93.2934 14.7405C99.5872 13.2861 106.056 12.7388 112.505 13.1151C116.184 13.3797 119.79 14.269 123.17 15.7449C127.089 17.4399 130.454 20.1981 132.886 23.7072C135.185 27.1419 136.562 31.1101 136.885 35.2305C137.186 38.7439 137.014 42.2818 136.374 45.7495C135.303 51.9838 133.52 58.0745 131.059 63.902C127.449 72.2812 122.936 80.2419 117.6 87.6427C112.383 94.8821 106.665 101.747 100.489 108.188C94.3802 114.582 87.9304 120.642 81.1674 126.34C77.6825 129.268 74.0234 131.982 70.2101 134.467C66.2724 137.107 62.0289 139.259 57.5728 140.877L57.4997 140.658Z" fill="#DBEDF7"/>
</g>
<defs>
<clipPath id="clip0_2388_1477">
<rect width="167" height="167" fill="white"/>
</clipPath>
</defs>
</svg>
