<svg width="167" height="167" viewBox="0 0 167 167" fill="none" xmlns="http://www.w3.org/2000/svg">
<g clip-path="url(#clip0_2388_690)">
<path d="M71.0708 38.8547H105.559C105.559 38.8547 99.1527 25.6264 88.3054 28.083C81.5829 29.8003 75.5602 33.5644 71.0708 38.8547Z" fill="#DED5CE"/>
<path d="M64.9683 121.702C64.9683 121.702 67.8218 112.934 79.7084 115.428C91.595 117.923 85.4722 124.669 85.4722 124.669L64.9683 121.702Z" fill="#DED5CE"/>
<path d="M117.352 82.3951C118.729 77.568 123.22 74.3015 128.237 74.477C137.289 74.477 142.996 83.321 142.996 83.321L117.352 82.3951Z" fill="#DED5CE"/>
<path d="M109.377 44.9209C102.65 44.5429 95.9035 44.2027 89.1381 44.0327C86.6814 44.0327 84.2247 44.2594 81.768 44.165C73.0562 43.8815 64.3444 43.598 55.6137 43.4846C51.8342 43.4846 47.8657 43.6169 44.0295 43.8815C39.0972 44.2027 34.2027 44.9398 29.1003 44.0138C27.5129 43.7114 27.7586 41.6327 29.1003 39.4972C29.7525 38.3868 30.5824 37.3909 31.557 36.5492C32.6276 35.6347 33.9405 35.0504 35.3366 34.8673C45.3546 33.5008 55.4863 33.1652 65.5728 33.8657C71.6767 34.376 77.9885 33.5634 84.2247 33.4878C91.0657 33.4878 97.9255 33.4878 104.804 33.6012L117.485 33.9035C123.891 34.0358 130.316 34.4327 136.703 34.4705C141.674 34.4705 146.587 33.8468 151.614 34.2248C152.718 34.1838 153.823 34.2854 154.902 34.5272C158.984 35.7555 160.118 36.9272 160.571 39.2894C160.694 39.8057 160.783 40.3297 160.836 40.8579C160.836 42.502 158.946 43.7114 156.036 44.4673C154.959 44.7508 153.919 44.9587 152.804 45.3177C151.734 45.5616 150.648 45.7259 149.554 45.809C148.477 45.9413 147.399 46.0358 146.322 46.1303C145.227 46.2898 144.122 46.3656 143.015 46.3571C138.669 46.3571 134.171 46.2437 129.787 46.0358C126.442 45.9224 123.059 45.7901 119.696 45.6201L109.548 45.261L109.377 44.9209Z" fill="#DED5CE"/>
<path d="M85.2456 76.9905C91.9543 77.255 98.7008 77.444 105.466 77.444C107.923 77.444 110.379 77.085 112.836 77.1039C121.548 77.1039 130.279 77.1039 139.009 76.9149C142.789 76.9149 146.757 76.4991 150.594 76.1023C155.526 75.5921 160.383 74.6472 165.712 75.4787C167.318 75.7243 167.072 77.822 165.863 79.9763C165.21 81.1197 164.381 82.1529 163.406 83.0377C162.385 83.98 161.111 84.6039 159.74 84.833C149.876 86.2125 139.803 87.6109 129.504 86.9306C123.343 86.6472 117.05 87.6487 110.795 87.9133C103.916 88.1779 97.0378 88.2724 90.1212 88.2724C85.8882 88.2724 81.6362 88.159 77.3842 88.2724C74.1716 88.2724 70.9401 88.0645 67.7086 87.9889C64.4771 87.9133 61.189 87.5731 57.9764 87.5731C52.9685 87.3842 47.9795 88.0078 42.8583 87.3842C41.7356 87.381 40.618 87.235 39.5323 86.9495C35.4504 85.3999 34.3732 84.1716 34.1465 81.8094C34.0578 81.2849 34.0135 80.7539 34.0142 80.222C34.0142 78.5968 36.1118 77.5007 39.022 76.9149C40.0992 76.707 41.1197 76.5747 42.2346 76.2724C43.3005 76.0637 44.3809 75.9374 45.4661 75.8944C46.5244 75.8944 47.5827 75.7432 48.6409 75.7054C49.1701 75.7054 49.7181 75.7054 50.2661 75.5732H52.0236C54.1968 75.5732 56.3323 75.7432 58.5433 75.7999C60.7543 75.8566 62.9842 75.9322 65.2142 76.0456L75.2299 76.4613C78.5748 76.5747 81.9574 76.6314 85.3401 76.707L85.2456 76.9905Z" fill="#DED5CE"/>
<path d="M79.3505 120.285C86.0591 120.549 92.8056 120.738 99.552 120.738C102.028 120.738 104.465 120.379 106.941 120.398C115.634 120.398 124.365 120.398 133.114 120.209C136.894 120.209 140.862 119.793 144.698 119.397C149.631 118.886 154.487 117.941 159.703 118.773C161.328 119.019 161.083 121.116 159.854 123.271C159.215 124.418 158.391 125.452 157.417 126.332C156.395 127.274 155.121 127.898 153.75 128.127C143.886 129.507 133.813 130.905 123.514 130.225C117.372 129.941 111.08 130.943 104.824 131.208C97.9457 131.472 91.0481 131.567 84.1505 131.567C79.9174 131.567 75.6465 131.453 71.4135 131.567C68.2009 131.567 64.9694 131.359 61.7379 131.283C58.5064 131.208 55.2938 130.962 52.0812 130.962C47.0733 130.773 42.0843 131.415 36.9631 130.773C35.8405 130.77 34.7228 130.624 33.6371 130.338C29.5552 128.789 28.4781 127.56 28.2513 125.198C28.1661 124.673 28.1156 124.143 28.1001 123.611C28.1946 121.986 30.2166 120.89 33.108 120.304C34.204 120.096 35.2245 119.964 36.3395 119.661C37.3992 119.454 38.4731 119.327 39.5521 119.283C40.6292 119.283 41.6875 119.132 42.7458 119.094C43.2749 119.094 43.8229 119.094 44.371 118.962C44.919 118.83 45.4481 118.962 45.9962 118.962C48.1694 118.962 50.3048 119.132 52.5158 119.189C54.7269 119.245 56.9568 119.321 59.1678 119.434L69.1835 119.85C72.5473 119.964 75.93 120.02 79.2938 120.096L79.3505 120.285Z" fill="#DED5CE"/>
<path d="M92.6903 63.1763C88.9216 63.685 85.097 63.6085 81.3517 62.9495C77.6165 62.3355 74.0048 61.1231 70.6557 59.359C67.7801 58.0872 65.2524 56.1428 63.2856 53.6897C61.5229 51.319 60.4267 48.5198 60.1108 45.5826C59.9865 44.1261 60.0436 42.6597 60.2809 41.2173C60.5635 39.8997 60.9619 38.6097 61.4714 37.3621C61.9685 36.1751 62.5627 35.0311 63.2478 33.9417C63.909 32.8788 64.6751 31.8849 65.5344 30.9747L66.8384 29.6519L68.2179 28.4992C69.1417 27.7407 70.1208 27.0521 71.147 26.4393C74.6324 24.2308 78.4658 22.6271 82.4856 21.696C83.7957 21.4228 85.1209 21.2272 86.4541 21.1102C87.8189 20.9276 89.2046 20.9723 90.5549 21.2425C93.2775 21.8048 95.7901 23.1134 97.8116 25.022C99.0588 26.2314 97.8116 27.3086 95.9218 28.348C94.958 28.8771 93.8998 29.3873 92.8037 30.0488C92.2557 30.3511 91.7643 30.5779 91.2541 30.8425C90.8124 31.1105 90.3258 31.2962 89.8179 31.3905C89.4021 31.3905 88.9675 31.6551 88.5895 31.6929C88.1936 31.6552 87.7949 31.6552 87.399 31.6929L86.1895 31.7873L84.9612 32.0141C83.2868 32.3186 81.6559 32.8263 80.1045 33.5259C78.5213 34.1838 77.0186 35.0208 75.6257 36.0204L74.6053 36.7763L73.6793 37.5889C73.3724 37.8544 73.0821 38.1384 72.81 38.4393C72.5265 38.7228 72.1486 38.9873 71.9029 39.2897L70.9769 40.4614L70.3533 41.7842C70.0382 42.5626 69.9088 43.4037 69.9754 44.2409C70.2195 45.9788 71.0535 47.58 72.3376 48.7763C74.1971 50.4423 76.435 51.6294 78.8572 52.2346C81.5218 53.0021 84.2865 53.3652 87.0588 53.3117C90.3843 53.3482 93.6658 52.5489 96.6021 50.9873C98.6524 49.8793 100.329 48.1895 101.421 46.1306L102.082 44.5054C102.29 43.9763 102.309 43.4472 102.46 42.9369C102.587 41.9142 102.49 40.8762 102.177 39.8944C101.595 38.3512 100.545 37.0293 99.1722 36.1149C97.7009 35.1289 96.106 34.341 94.4289 33.7716C93.7108 33.4692 92.9738 33.2614 92.2557 32.9779C91.2104 32.6643 90.2826 32.0457 89.5911 31.2015C89.0686 30.1358 88.7482 28.9825 88.6462 27.7999C88.5517 27.1574 88.3816 26.5149 88.325 25.9102C88.2468 24.8619 88.6926 23.843 89.5155 23.1889C90.6086 22.1344 92.0791 21.5625 93.5974 21.6015C96.2876 21.6191 98.9542 22.1051 101.478 23.0377C104.116 24.2718 106.496 25.997 108.489 28.1212C110.807 30.589 112.459 33.6067 113.289 36.8897C114.149 40.3925 114.005 44.0666 112.873 47.4913C112.419 48.5999 111.947 49.696 111.456 50.7795C110.87 51.8188 110.171 52.8204 109.566 53.822C108.822 54.7478 108.027 55.6311 107.185 56.4676C106.315 57.2613 105.408 57.9795 104.501 58.6976C101.001 61.1474 96.987 62.7635 92.7659 63.422L92.6903 63.1763Z" fill="#DED5CE"/>
<path d="M137.856 105.072C134.485 105.99 130.989 106.36 127.5 106.169C125.835 106.101 124.175 105.931 122.53 105.658C120.852 105.38 119.197 104.976 117.579 104.449C115.129 103.787 112.782 102.789 110.606 101.482C108.344 99.965 106.483 97.9225 105.182 95.5292C103.792 92.8325 103.436 89.7206 104.181 86.7796C105.425 82.5107 107.919 78.7127 111.343 75.8756C114.125 73.5189 117.332 71.7164 120.792 70.5654C125.049 69.2313 129.612 69.2313 133.869 70.5654C135.154 71.0189 134.738 72.2851 133.567 73.6457C132.918 74.4247 132.189 75.1341 131.393 75.7622C130.592 76.4423 129.659 76.9505 128.653 77.2552C127.036 77.6556 125.47 78.2389 123.985 78.9937C122.663 79.567 121.398 80.263 120.206 81.0725C117.928 82.6642 116.062 84.7761 114.763 87.2331C114.574 87.5922 114.404 88.0268 114.253 88.367C114.182 88.5822 114.131 88.8036 114.102 89.0284C114.055 89.3576 114.144 89.6917 114.348 89.9544C115.363 90.9801 116.57 91.7956 117.9 92.3544C119.899 93.3335 122.033 94.0087 124.231 94.3575C126.556 94.7351 128.921 94.7923 131.261 94.5276C132.591 94.3734 133.902 94.0821 135.173 93.6583C136.302 93.2572 137.356 92.6695 138.291 91.9197C139.543 90.8098 140.299 89.2443 140.389 87.5733C140.581 85.7116 140.12 83.8411 139.085 82.2819C137.422 80.0142 134.247 79.2961 131.393 79.2583C130.713 79.2583 130.089 79.3717 129.504 79.4095C128.521 79.5144 127.538 79.2141 126.782 78.578C125.979 77.7293 125.424 76.6771 125.176 75.5355C124.949 74.8552 124.666 74.1748 124.477 73.4945C124.156 72.4109 124.293 71.2434 124.855 70.263C125.549 69.1442 126.644 68.3329 127.916 67.9953C130.183 67.3263 132.563 67.1333 134.908 67.4284C137.564 67.7 140.136 68.5102 142.467 69.8095C145.103 71.2492 147.357 73.2963 149.044 75.7811C150.747 78.3835 151.821 81.3468 152.181 84.4363C152.334 85.5252 152.384 86.6261 152.332 87.7244C152.304 88.8941 152.165 90.0583 151.916 91.2016C151.661 92.4302 151.275 93.6276 150.763 94.7733C150.237 95.9376 149.604 97.051 148.874 98.0992C146.099 101.577 142.317 104.112 138.045 105.356L137.856 105.072Z" fill="#DED5CE"/>
<path d="M83.0149 145.117C79.647 145.815 76.1888 145.968 72.7724 145.57C69.5418 145.204 66.3684 144.443 63.3235 143.302C60.8141 142.535 58.4507 141.354 56.3314 139.806C54.2734 138.027 52.7055 135.75 51.7771 133.192C50.9157 130.674 50.7653 127.967 51.3424 125.369C52.3873 120.972 55.0099 117.112 58.7125 114.521C61.5759 112.461 64.772 110.908 68.1613 109.929C72.2346 108.716 76.5635 108.651 80.6716 109.74C81.9377 110.137 81.6164 111.422 80.5393 112.821C79.3474 114.488 77.7194 115.796 75.8338 116.6C74.2228 117.101 72.6554 117.733 71.1472 118.49C69.772 119.018 68.439 119.649 67.1598 120.38C64.9978 121.626 63.1945 123.409 61.9251 125.558C61.2698 126.535 61.1834 127.787 61.6983 128.846C62.3659 129.887 63.3074 130.724 64.4196 131.265C66.2807 132.303 68.2874 133.054 70.3724 133.495C72.5689 134.014 74.8253 134.237 77.081 134.156C79.5506 134.147 81.9628 133.411 84.0164 132.039C84.6248 131.549 85.1484 130.961 85.5661 130.301C85.7911 129.961 85.9691 129.592 86.0952 129.205C86.1869 129.023 86.2628 128.833 86.322 128.638V128.09C86.5863 126.502 86.0975 124.882 84.9991 123.706C82.7332 121.55 79.8545 120.15 76.7598 119.699C76.0794 119.529 75.3613 119.529 74.6999 119.378C72.2621 118.792 71.8842 117.847 71.544 114.691C71.544 113.973 71.3172 113.255 71.2794 112.537C71.145 111.416 71.5035 110.293 72.2621 109.457C73.2041 108.515 74.4654 107.962 75.796 107.907C80.2797 107.77 84.7042 108.96 88.5141 111.328C90.7373 112.69 92.7173 114.415 94.3723 116.43C96.3747 118.966 97.6778 121.983 98.1519 125.18C98.2934 126.473 98.2934 127.779 98.1519 129.073C98.0398 130.321 97.7797 131.552 97.3771 132.739C96.6413 135.015 95.4592 137.122 93.8999 138.937C91.0264 142.155 87.2329 144.411 83.0338 145.4L83.0149 145.117Z" fill="#DED5CE"/>
</g>
<defs>
<clipPath id="clip0_2388_690">
<rect width="167" height="167" fill="white"/>
</clipPath>
</defs>
</svg>
