<svg width="155" height="145" viewBox="0 0 155 145" fill="none" xmlns="http://www.w3.org/2000/svg">
<path d="M170.835 45.8534C156.729 -26.7771 53.5763 -8.64577 60.2619 62.7334C60.2929 63.0464 60.4465 63.3344 60.6891 63.5344C60.9318 63.7344 61.2438 63.8303 61.5569 63.801C61.7656 63.7694 61.9558 63.6634 62.0925 63.5026C62.2292 63.3418 62.3031 63.137 62.3007 62.926C60.2443 36.9977 78.367 8.85559 105.118 6.04662C124.072 2.59886 145.021 9.47685 155.084 26.5232C162.96 39.1854 164.99 55.0066 161.98 69.489C146.508 131.925 63.2021 130.402 13.2183 116.13C18.6532 116.289 24.0431 115.101 28.9082 112.673C29.1283 112.562 29.3072 112.383 29.4189 112.162C29.5305 111.942 29.5693 111.692 29.5295 111.448C29.5169 111.373 29.4881 111.3 29.445 111.237C29.402 111.173 29.3458 111.12 29.2801 111.08C29.2145 111.04 29.1411 111.015 29.0648 111.006C28.9885 110.997 28.9112 111.005 28.8382 111.028C9.36795 117.04 3.71502 108.158 1.27358 110.241C-0.19653 111.51 0.888564 113.015 1.44861 113.741C6.90902 119.744 10.4443 126.788 10.6631 135.119C10.6656 135.31 10.7368 135.494 10.8637 135.637C10.9907 135.78 11.1648 135.873 11.3544 135.898C11.5902 135.958 11.839 135.942 12.0653 135.853C12.2915 135.763 12.4838 135.604 12.6145 135.399C13.7258 132.774 15.8434 124.251 13.297 119.341C49.656 136.178 94.9932 140.938 131.947 123.341C160.177 109.593 176.856 76.6732 170.835 45.8534Z" fill="#F39595"/>
<path d="M130.495 15.1035C150.052 20.6427 157.884 43.7532 155.495 62.7772C155.495 62.8445 155.468 62.909 155.421 62.9566C155.373 63.0042 155.309 63.0309 155.241 63.0309C155.174 63.0309 155.11 63.0042 155.062 62.9566C155.014 62.909 154.988 62.8445 154.988 62.7772C154.113 44.2083 148.048 23.8717 130.311 15.5936C130.279 15.5815 130.249 15.5632 130.224 15.5398C130.199 15.5163 130.179 15.4881 130.164 15.4568C130.15 15.4256 130.142 15.3918 130.141 15.3574C130.14 15.3231 130.146 15.2889 130.158 15.2567C130.17 15.2245 130.188 15.195 130.211 15.1699C130.235 15.1448 130.263 15.1246 130.294 15.1103C130.326 15.0961 130.359 15.0882 130.394 15.087C130.428 15.0859 130.462 15.0915 130.495 15.1035Z" fill="#F39595"/>
<path d="M155.32 67.5814C155.702 70.2843 155.079 73.0334 153.57 75.3081C153.496 75.4026 153.393 75.4699 153.276 75.4992C153.16 75.5286 153.037 75.5185 152.926 75.4704C152.816 75.4224 152.725 75.3391 152.668 75.2337C152.61 75.1284 152.589 75.0068 152.608 74.8881C153.047 72.3908 153.655 69.9262 154.428 67.5113C154.437 67.393 154.493 67.2831 154.583 67.206C154.674 67.1289 154.791 67.0908 154.909 67.1001C155.027 67.1094 155.137 67.1652 155.214 67.2555C155.292 67.3458 155.33 67.463 155.32 67.5814Z" fill="#F39595"/>
<path d="M73.0203 142.041C79.0408 142.259 101.399 141.577 111.033 138.645C111.444 138.523 111.646 139.136 111.278 139.346C100.349 145.471 83.8012 145.637 72.9503 142.452C72.9009 142.438 72.8585 142.405 72.8312 142.362C72.8039 142.318 72.7936 142.266 72.8023 142.215C72.8109 142.164 72.8379 142.119 72.8781 142.086C72.9183 142.054 72.9689 142.038 73.0203 142.041Z" fill="#F39595"/>
</svg>
