<svg width="24" height="24" viewBox="0 0 24 24" fill="none" xmlns="http://www.w3.org/2000/svg">
<path d="M11.2831 10.967L11.2331 10.952L11.7611 8.83496L11.9731 8.88496C12.6791 9.04196 14.1981 9.38296 13.9231 10.498C13.6281 11.671 11.8741 11.144 11.2831 10.967ZM10.3701 14.405L10.4561 14.43C11.1841 14.647 13.2521 15.262 13.5321 14.097C13.8211 12.976 11.9621 12.539 11.1301 12.344C11.0391 12.322 10.9601 12.304 10.8981 12.288L10.3701 14.405Z" fill="#0088CC"/>
<path fill-rule="evenodd" clip-rule="evenodd" d="M12 21C13.1819 21 14.3522 20.7672 15.4442 20.3149C16.5361 19.8626 17.5282 19.1997 18.364 18.364C19.1997 17.5282 19.8626 16.5361 20.3149 15.4442C20.7672 14.3522 21 13.1819 21 12C21 10.8181 20.7672 9.64778 20.3149 8.55585C19.8626 7.46392 19.1997 6.47177 18.364 5.63604C17.5282 4.80031 16.5361 4.13738 15.4442 3.68508C14.3522 3.23279 13.1819 3 12 3C9.61305 3 7.32387 3.94821 5.63604 5.63604C3.94821 7.32387 3 9.61305 3 12C3 14.3869 3.94821 16.6761 5.63604 18.364C7.32387 20.0518 9.61305 21 12 21ZM15.873 10.616C16.079 9.314 15.18 8.636 13.933 8.178L14.371 6.408L13.381 6.162L12.954 7.888L12.761 7.838C12.565 7.788 12.372 7.738 12.174 7.694L12.602 5.969L11.585 5.717L11.157 7.442L9.139 6.942L8.847 8.122C8.847 8.122 9.596 8.285 9.568 8.301C9.968 8.409 10.037 8.693 10.015 8.91L9.506 10.917L8.808 13.74C8.753 13.874 8.618 14.066 8.344 14C8.356 14.012 7.616 13.809 7.616 13.809L7.13 15.054L9.088 15.588L8.652 17.349L9.635 17.593L10.072 15.831C10.23 15.877 10.39 15.914 10.545 15.95C10.661 15.977 10.774 16.003 10.881 16.032L10.444 17.793L11.429 18.037L11.866 16.276C13.561 16.599 14.841 16.448 15.413 14.779C15.873 13.449 15.443 12.689 14.55 12.19C15.22 12.027 15.717 11.563 15.873 10.616Z" fill="#0088CC"/>
</svg>
