<svg width="292" height="172" viewBox="0 0 292 172" fill="none" xmlns="http://www.w3.org/2000/svg">
<path d="M108.542 51.2292L137.349 68.2609C154.143 78.1906 160.857 78.1906 177.651 68.2609L206.458 51.2292" stroke="#10A4DA" stroke-width="8" stroke-linecap="round" stroke-linejoin="round"/>
<path d="M59.7377 99.9486C60.3779 129.965 60.6979 144.974 71.7735 156.091C82.8491 167.209 98.2637 167.596 129.093 168.371C148.093 168.849 166.907 168.849 185.908 168.371C216.737 167.596 232.151 167.209 243.226 156.091C254.302 144.974 254.623 129.965 255.262 99.9486C255.469 90.2969 255.469 80.7021 255.262 71.0514C254.623 41.0344 254.302 26.026 243.226 14.9082C232.151 3.79048 216.737 3.40322 185.908 2.6286C166.907 2.15116 148.093 2.15116 129.093 2.6285C98.2637 3.40302 82.8491 3.79028 71.7735 14.9081C60.6979 26.0259 60.3778 41.0343 59.7377 71.0504C59.5319 80.7021 59.5319 90.2969 59.7377 99.9486Z" stroke="#10A4DA" stroke-width="8" stroke-linejoin="round"/>
<path d="M94.4812 130.677L94.3624 130.669L94.4501 125.696L94.9467 125.698C96.5953 125.685 100.144 125.664 100.105 128.282C100.051 131.038 95.8846 130.767 94.4812 130.677ZM94.2153 138.781L94.4191 138.793C96.1474 138.901 101.056 139.207 101.081 136.476C101.148 133.838 96.7951 133.82 94.8471 133.814C94.6337 133.811 94.449 133.812 94.3031 133.808L94.2153 138.781Z" fill="#10A4DA"/>
<path fill-rule="evenodd" clip-rule="evenodd" d="M101.216 152.594C103.842 151.988 106.322 150.872 108.515 149.307C110.709 147.743 112.573 145.762 114.001 143.477C115.429 141.193 116.393 138.649 116.838 135.992C117.283 133.335 117.2 130.616 116.594 127.991C115.988 125.365 114.872 122.885 113.307 120.692C111.743 118.498 109.762 116.634 107.477 115.206C105.193 113.778 102.649 112.814 99.992 112.369C97.3347 111.924 94.6159 112.007 91.9907 112.613C86.6888 113.836 82.0901 117.116 79.2062 121.73C76.3223 126.344 75.3894 131.914 76.6128 137.216C77.8362 142.518 81.1156 147.117 85.7297 150.001C90.3438 152.885 95.9144 153.818 101.216 152.594ZM104.497 127.544C104.287 124.547 101.943 123.502 98.9382 123.123L99.0039 118.967L96.6788 118.928L96.615 122.981L96.1607 122.969C95.6997 122.958 95.2454 122.946 94.783 122.95L94.8496 118.899L92.4615 118.86L92.3949 122.911L87.6563 122.835L87.6125 125.606C87.6125 125.606 89.3597 125.584 89.3057 125.634C90.2495 125.669 90.5484 126.264 90.6107 126.757L90.5088 131.476L90.4053 138.104C90.3518 138.43 90.1503 138.926 89.5079 138.92C89.5407 138.94 87.793 138.869 87.793 138.869L87.3516 141.883L91.9744 142.066L91.9085 146.201L94.217 146.239L94.2846 142.101C94.6591 142.122 95.0334 142.122 95.3962 142.123C95.6677 142.123 95.932 142.123 96.1845 142.133L96.1164 146.268L98.4294 146.305L98.4975 142.17C102.428 142.019 105.194 141.027 105.609 137.027C105.949 133.837 104.604 132.369 102.365 131.719C103.77 131.013 104.636 129.728 104.497 127.544Z" fill="#10A4DA"/>
</svg>
