<svg width="30" height="30" viewBox="0 0 30 30" fill="none" xmlns="http://www.w3.org/2000/svg">
<rect width="30" height="30" rx="4" fill="#999999"/>
<path fill-rule="evenodd" clip-rule="evenodd" d="M15 4C21.0753 4 26 9.04892 26 15.2782C26 20.2601 22.8518 24.4863 18.4837 25.979C17.926 26.0901 17.728 25.7379 17.728 25.4376C17.728 25.0658 17.7412 23.8515 17.7412 22.3423C17.7412 21.2907 17.3892 20.6043 16.9943 20.2545C19.444 19.9751 22.018 19.0213 22.018 14.6895C22.018 13.4575 21.5912 12.4522 20.885 11.6624C20.9994 11.3775 21.3767 10.2303 20.7772 8.67714C20.7772 8.67714 19.8554 8.37494 17.7555 9.83354C16.8766 9.58384 15.935 9.4582 15 9.4538C14.065 9.4582 13.1245 9.58384 12.2467 9.83354C10.1446 8.37494 9.2206 8.67714 9.2206 8.67714C8.6233 10.2303 9.0006 11.3775 9.1139 11.6624C8.411 12.4522 7.9809 13.4575 7.9809 14.6895C7.9809 19.0103 10.5494 19.9788 12.9925 20.2637C12.6779 20.5453 12.393 21.042 12.294 21.7713C11.667 22.0595 10.0742 22.5583 9.09299 20.8346C9.09299 20.8346 8.51109 19.751 7.4067 19.6718C7.4067 19.6718 6.3342 19.6575 7.3319 20.3571C7.3319 20.3571 8.0524 20.7036 8.55289 22.0071C8.55289 22.0071 9.1986 24.0201 12.2588 23.3381C12.2643 24.2808 12.2742 25.1692 12.2742 25.4376C12.2742 25.7357 12.0718 26.0846 11.5229 25.9801C7.15149 24.4896 4 20.2612 4 15.2782C4 9.04892 8.92579 4 15 4Z" fill="white"/>
</svg>
