<svg width="167" height="167" viewBox="0 0 167 167" fill="none" xmlns="http://www.w3.org/2000/svg">
<g clip-path="url(#clip0_2388_1351)">
<path d="M137.967 39.8837C136.123 40.125 131.953 39.6023 133.697 28.1226C134.178 25.0265 136.022 18.211 134.058 15.2757C130.049 9.365 120.687 25.7703 119.164 28.2834C115.335 34.5359 110.584 41.1905 102.405 40.6678C99.0204 40.1834 96.0206 38.2268 94.2065 35.32C92.663 32.8471 92.3422 29.8717 88.8743 29.2886C79.3324 27.6803 80.6755 45.3723 87.1102 48.1467C95.4093 51.8459 102.445 53.3739 103.468 64.0293C104.37 73.5589 100.06 83.4302 103.468 92.7386C107.196 102.791 115.495 99.2726 120.727 92.437C132.755 76.6751 128.044 71.9706 144.662 78.5649C161.28 85.1592 170.561 80.2537 158.554 68.7338C146.546 57.2139 141.615 58.8021 147.048 49.3329C152.48 39.8636 149.152 38.5568 137.967 39.8837Z" fill="#F1F8B5"/>
<path d="M27.2619 112.451C27.4819 109.73 25.0419 107.61 23.122 105.63C18.3822 100.71 15.9222 93.2101 18.2222 86.7699C20.5221 80.3298 28.2218 75.9297 34.6216 78.4097C40.3214 80.6298 43.7813 87.3299 49.8211 88.41C53.921 89.07 57.9409 86.8299 60.9608 83.9698C63.9807 81.1098 66.3006 77.6297 69.4205 74.9096C72.5404 72.1896 76.7803 70.2095 80.7601 71.3095C85.28 72.5696 88.0199 77.5297 87.9999 82.2298C87.67 86.9412 85.9974 91.4596 83.18 95.2501C80.371 98.9824 77.8569 102.928 75.6603 107.05C73.4583 111.271 73.2314 116.248 75.0403 120.651C77.2602 125.151 82.2001 127.751 84.62 132.151C87.0865 137.143 86.2967 143.13 82.6201 147.311C78.9012 151.389 73.4715 153.467 67.9805 152.911C62.5519 152.283 57.5003 149.821 53.661 145.931C51.6611 144.091 50.1011 141.931 48.0612 140.311C46.0876 138.489 43.4641 137.538 40.7814 137.671C37.5015 138.051 35.0016 140.631 32.4417 142.711C29.074 145.572 24.9856 147.454 20.6221 148.151C16.2226 148.816 11.7461 147.604 8.2825 144.811C-2.63715 135.451 9.64245 122.351 19.3221 118.691C21.0175 118.169 22.6638 117.5 24.242 116.691C25.8662 115.839 26.9877 114.264 27.2619 112.451Z" fill="#F1F8B5"/>
</g>
<defs>
<clipPath id="clip0_2388_1351">
<rect width="167" height="167" fill="white"/>
</clipPath>
</defs>
</svg>
