<svg width="24" height="24" viewBox="0 0 24 24" fill="none" xmlns="http://www.w3.org/2000/svg">
<path d="M18.496 10.709L9.86 19.589C9.62 19.835 9.222 19.55 9.378 19.244L12.452 13.178C12.4753 13.1322 12.4864 13.0812 12.4844 13.0299C12.4823 12.9786 12.4671 12.9287 12.4402 12.8849C12.4133 12.8412 12.3756 12.805 12.3307 12.78C12.2859 12.755 12.2354 12.7419 12.184 12.742H5.718C5.65894 12.742 5.60121 12.7245 5.55205 12.6918C5.50288 12.659 5.46446 12.6125 5.44161 12.5581C5.41876 12.5036 5.41249 12.4436 5.42359 12.3856C5.43469 12.3276 5.46266 12.2742 5.504 12.232L13.514 4.11701C13.746 3.88201 14.132 4.14001 14.003 4.44501L11.706 9.86001C11.6866 9.90592 11.6789 9.95595 11.6836 10.0056C11.6883 10.0552 11.7054 10.1029 11.7332 10.1443C11.761 10.1857 11.7986 10.2195 11.8428 10.2426C11.8869 10.2658 11.9361 10.2776 11.986 10.277L18.277 10.199C18.3364 10.1981 18.3947 10.2147 18.4446 10.2469C18.4944 10.2792 18.5336 10.3254 18.5572 10.3799C18.5808 10.4344 18.5876 10.4947 18.5769 10.5531C18.5662 10.6115 18.5384 10.6654 18.497 10.708L18.496 10.709Z" fill="black"/>
</svg>
