<svg width="250" height="172" viewBox="0 0 250 172" fill="none" xmlns="http://www.w3.org/2000/svg">
<g clip-path="url(#clip0_1677_12737)">
<path d="M218.487 95.8958L65.3155 182.049C61.0623 184.432 57.1646 178.774 60.5944 175.198L128.345 104.238C128.857 103.702 129.235 103.043 129.441 102.322C129.648 101.602 129.677 100.844 129.525 100.122C129.373 99.3994 129.046 98.7369 128.574 98.1977C128.103 97.6584 127.503 97.2604 126.832 97.0417L42.424 69.33C41.6533 69.0762 40.9793 68.5863 40.4864 67.9218C39.9936 67.2574 39.7038 66.4478 39.6535 65.5945C39.6032 64.7412 39.7945 63.8823 40.2035 63.1252C40.6126 62.3682 41.221 61.747 41.9528 61.3392L183.469 -16.8867C187.567 -19.1518 191.431 -13.9191 188.358 -10.2416L133.715 55.0198C133.252 55.5733 132.924 56.2342 132.76 56.9429C132.596 57.6516 132.601 58.3858 132.776 59.079C132.95 59.7722 133.288 60.4026 133.758 60.9132C134.229 61.4239 134.818 61.7986 135.472 62.0036L217.95 87.8836C218.729 88.1245 219.415 88.6062 219.919 89.2664C220.423 89.927 220.724 90.7369 220.784 91.5941C220.843 92.4507 220.658 93.3161 220.253 94.0802C219.846 94.8439 219.238 95.4725 218.504 95.8862L218.487 95.8958Z" fill="#C9C9C9"/>
</g>
<defs>
<clipPath id="clip0_1677_12737">
<rect width="192.354" height="233.573" fill="white" transform="translate(72.8579 -55) rotate(18.1754)"/>
</clipPath>
</defs>
</svg>
