<svg width="1440" height="745" viewBox="0 0 1440 745" fill="none" xmlns="http://www.w3.org/2000/svg">
<g opacity="0.24" clip-path="url(#clip0_1677_12648)">
<path d="M-716.144 440.733C-262.898 415.477 -234.227 416.492 238.254 408.321C611.573 401.865 1195.39 208.079 1565.49 187.796M1565.42 189.369C1194.88 210.156 609.702 400.185 238.1 411.877C-157.766 424.333 -323.732 411.696 -716.336 445.162M1565.34 191.33C1194.36 212.63 610.044 404.081 237.93 415.799C-158.295 428.277 -323.356 414.087 -716.421 447.122M1565.26 193.154C1193.87 214.93 610.365 407.705 237.772 419.448C-158.79 431.946 -323.005 416.313 -716.5 448.947M1565.17 195.308C1193.29 217.647 610.749 411.986 237.585 423.756C-159.378 436.277 -322.587 418.94 -716.593 451.101M1565.07 197.461C1192.71 220.361 611.137 416.265 237.398 428.062C-159.971 440.605 -322.167 421.566 -716.687 453.254M1564.99 199.302C1192.21 222.682 611.472 419.925 237.239 431.744C-160.481 444.306 -321.805 423.812 -716.766 455.095M1564.92 201.063C1191.73 224.901 611.795 423.424 237.086 435.265C-160.972 447.844 -321.458 425.959 -716.843 456.855M1564.85 202.685C1191.29 226.945 612.095 426.649 236.946 438.509C-161.427 451.103 -321.137 427.938 -716.913 458.477M1564.74 205.134C1190.62 230.031 612.553 431.52 236.733 443.408C-162.119 456.025 -320.648 430.926 -717.019 460.927M1564.65 207.266C1190.03 232.716 612.956 435.759 236.549 447.671C-162.725 460.306 -320.22 433.526 -717.111 463.058M1564.56 209.297C1189.47 235.275 613.344 439.8 236.373 451.733C-163.307 464.386 -319.81 436.004 -717.199 465.089M1564.45 211.857C1188.77 238.498 613.838 444.892 236.151 456.853C-164.046 469.527 -319.29 439.127 -717.31 467.649M1564.33 214.575C1188.01 241.921 614.369 450.301 235.915 462.29C-164.838 474.985 -318.734 442.444 -717.428 470.368M1564.23 216.944C1187.35 244.903 614.837 455.015 235.71 467.027C-165.533 479.74 -318.246 445.334 -717.531 472.736M1564.11 219.591C1186.61 248.235 615.366 460.285 235.481 472.322C-166.317 485.054 -317.697 448.565 -717.645 475.384M1563.98 222.7C1185.73 252.147 615.994 466.473 235.211 478.539C-167.245 491.291 -317.047 452.359 -717.78 478.492M1563.85 225.632C1184.9 255.836 616.595 472.312 234.957 484.403C-168.128 497.174 -316.429 455.939 -717.907 481.424M1563.67 229.862C1183.69 261.157 617.475 480.738 234.591 492.864C-169.417 505.659 -315.529 461.104 -718.09 485.655M1563.45 234.832C1182.27 267.407 618.529 490.64 234.16 502.804C-170.951 515.624 -314.46 467.175 -718.306 490.625M1563.22 240.312C1180.68 274.296 619.715 501.561 233.685 513.763C-172.67 526.607 -313.266 473.872 -718.543 496.104M1562.96 246.355C1178.91 281.891 621.051 513.611 233.162 525.85C-174.595 538.717 -311.929 481.263 -718.805 502.148M1562.67 252.923C1176.97 290.141 622.538 526.71 232.593 538.985C-176.725 551.869 -310.456 489.299 -719.09 508.715M1562.36 260.147C1174.82 299.214 624.214 541.126 231.967 553.433C-179.111 566.331 -308.809 498.148 -719.403 515.939M1562.02 268.028C1172.44 309.108 626.089 556.859 231.284 569.194C-181.765 582.099 -306.982 507.813 -719.744 523.82M1561.7 275.252C1170.23 318.176 627.851 571.288 230.658 583.642C-184.245 596.547 -305.281 516.684 -720.057 531.044M1561.42 281.819C1168.21 326.417 629.487 584.412 230.089 596.777C-186.537 609.676 -303.712 524.76 -720.341 537.611M1561.08 289.7C1165.76 336.304 631.494 600.166 229.406 612.538C-189.335 625.423 -301.803 534.466 -720.683 545.492M1560.71 298.237C1163.07 347.014 633.719 617.242 228.666 629.613C-192.423 642.475 -299.702 545.002 -721.053 554.03M1560.31 307.431C1160.14 358.546 636.175 635.64 227.869 648.002C-195.814 660.829 -297.405 556.375 -721.451 563.224M1559.89 317.177C1157 370.769 638.843 655.153 227.025 667.493C-199.481 680.273 -294.931 568.464 -721.873 572.969M1559.54 325.18C1154.1 380.993 641.847 682.193 226.291 684.442C-246.813 687.003 -249.194 577.832 -722.268 582.071" stroke="#E8E8E8" stroke-width="2.30042"/>
<path d="M-451.21 370.936C-27.3644 319.741 653.663 441.536 1094.82 420.67C1443.39 404.183 169.347 -91.9613 1577.52 -52.9716M1577.4 -50.1547C168.792 -88.2367 1441.71 401.201 1094.55 427.038C724.715 454.563 -83.9861 313.774 -451.554 378.866M1577.24 -46.6434C168.212 -83.8021 1441.88 408.17 1094.24 434.061C724.075 461.629 -83.7242 318.051 -451.706 382.377M1577.1 -43.3766C167.671 -79.6769 1442.05 414.655 1093.96 440.595C723.477 468.203 -83.4788 322.03 -451.847 385.644M1576.93 -39.5191C167.03 -74.8066 1442.25 422.313 1093.62 448.31C722.767 475.965 -83.1866 326.728 -452.014 389.502M1576.77 -35.6642C166.387 -69.9404 1442.45 429.967 1093.29 456.019C722.053 483.719 -82.8921 331.423 -452.181 393.356M1576.62 -32.3671C165.836 -65.779 1442.63 436.514 1093 462.614C721.44 490.351 -82.6384 335.439 -452.324 396.653M1576.49 -29.2148C165.307 -61.801 1344.54 507.506 994.469 533.65C622.589 561.423 -189.669 358.12 -559.735 418.648M1576.36 -26.3103C164.819 -58.136 1344.7 513.275 994.218 539.459C622.043 567.263 -189.442 361.658 -559.861 421.553M1576.17 -21.924C164.079 -52.6021 1344.94 521.988 993.838 548.231C621.215 576.083 -189.097 367 -560.051 425.939M1576.01 -18.1073C163.433 -47.7878 1345.16 529.571 993.507 555.865C620.49 583.755 -188.795 371.649 -560.217 429.756M1575.85 -14.4701C162.815 -43.2005 1345.37 536.799 993.192 563.139C619.795 591.066 -188.504 376.079 -560.374 433.393M1575.65 -9.88619C162.035 -37.4202 1345.64 545.909 992.794 572.307C618.914 600.279 -188.135 381.663 -560.573 437.977M1575.44 -5.01875C161.202 -31.2835 1345.94 555.584 992.373 582.042C617.973 610.059 -187.739 387.593 -560.784 442.844M1575.26 -0.77704C160.474 -25.9367 1346.2 564.016 992.005 590.525C617.147 618.58 -187.391 392.761 -560.967 447.086M1575.05 3.964C159.658 -19.9614 1346.5 573.443 991.594 600.007C616.219 628.103 -186.999 398.538 -561.173 451.827M1574.81 9.52985C158.695 -12.9479 1346.85 584.512 991.112 611.139C615.121 639.281 -186.534 405.321 -561.414 457.393M1574.58 14.7804C157.783 -6.33294 1347.2 594.956 990.657 621.64C614.078 649.823 -186.09 411.72 -561.641 462.643M1574.25 22.3556C156.46 3.2086 1347.71 610.028 990.001 636.791C612.561 665.029 -185.443 420.956 -561.97 470.219M1573.87 31.2552C154.896 14.4152 1348.32 627.74 989.23 654.59C610.759 682.889 -184.67 431.809 -562.355 479.118M1573.44 41.0676C153.159 26.7675 1349.02 647.274 988.379 674.214C608.747 702.573 -183.805 443.781 -562.78 488.93M1572.97 51.8899C151.228 40.3871 1349.82 668.828 987.442 695.859C606.5 724.275 -182.833 456.993 -563.249 499.753M1572.46 63.6498C149.113 55.182 1350.72 692.257 986.422 719.379C604.025 747.848 -181.756 471.36 -563.759 511.513M1571.9 76.5858C146.764 71.4516 1351.75 718.04 985.302 745.251C601.261 773.767 -180.548 487.179 -564.319 524.449M1571.29 90.6977C144.177 89.1947 1352.92 746.181 984.079 773.475C598.199 802.03 -179.203 504.456 -564.931 538.561M1570.73 103.634C141.783 105.455 1354.02 771.987 982.958 799.346C595.348 827.925 -177.945 520.314 -565.491 551.497M1570.22 115.394C139.588 120.234 1355.06 795.457 981.939 822.866C592.722 851.457 -176.781 534.749 -566.001 563.257M1569.61 129.506C136.931 137.967 1356.35 823.633 980.716 851.09C589.526 879.684 -175.361 552.1 -566.612 577.368M1568.95 144.793C134.025 157.174 1357.79 854.171 979.391 881.666C586.011 910.249 -173.792 570.932 -567.274 592.656M1568.24 161.257C130.865 177.856 1359.4 887.074 977.965 914.594C582.165 943.15 -172.071 591.262 -567.988 609.12M1567.48 178.709C127.48 199.779 1361.16 921.969 976.453 949.496C578.021 978.006 -170.212 612.87 -568.744 626.571M1566.86 193.039C124.398 218.118 1362.96 970.334 975.138 979.847C533.607 990.677 -127.885 629.035 -569.45 642.87" stroke="#E1E1E1" stroke-width="2.30042"/>
</g>
<defs>
<clipPath id="clip0_1677_12648">
<rect width="1765" height="1117" fill="white" transform="translate(-290 -86)"/>
</clipPath>
</defs>
</svg>
