<svg width="298" height="298" viewBox="0 0 298 298" fill="none" xmlns="http://www.w3.org/2000/svg">
<path d="M138.568 22.2341C138.602 22.2371 145.098 22.7944 146.754 23.2205C147.399 23.3859 150.02 23.5662 151.954 23.8135C154.265 24.11 168.436 26.3733 173.358 26.9142C194.355 29.2177 199.539 32.086 204.611 34.2286C210.28 36.623 218.994 46.8012 218.861 53.4943C218.529 70.3298 200.57 172.188 189.566 221.238C173.525 292.739 179.662 289.066 131.535 281.728C118.629 279.76 74.5246 270.657 65.8215 268.145C51.7216 264.074 51.7648 261.64 47.5407 255.03C46.3666 253.194 45.5366 252.433 44.7574 249.083C41.606 235.553 75.0282 73.9401 86.9661 32.8504C88.7928 26.5641 94.0064 21.4578 100.744 20.6592C102.057 20.5042 103.73 20.0945 105.073 20.0066C119.767 19.0515 121.571 20.4923 138.568 22.2341ZM141.533 24.6539C123.628 22.1611 126.63 22.4189 119.545 21.8869C84.6641 19.272 91.156 21.796 74.1044 95.6673C60.6661 153.886 56.3079 179.544 50.6488 214.757C45.9568 243.944 45.7005 242.629 46.6497 249.484C47.6375 256.624 56.5641 259.032 89.0804 265.865C114.883 271.289 114.859 270.913 128.849 273.232C166.002 279.387 166.79 279.153 172.914 259.409C181.82 230.697 208.072 84.8022 211.442 59.943C215.598 29.2982 199.759 32.7595 141.533 24.6539Z" fill="black"/>
<path d="M112.032 26.4057C116.444 26.4057 121.621 27.0851 122.582 27.3116C125.466 27.9911 125.599 32.1675 128.247 35.8299C129.583 37.6805 131.443 37.752 139.955 39.242C139.994 39.248 149.653 40.7827 149.692 40.7872C164.337 42.3263 168.01 43.0743 169.937 41.3981C174.355 37.5539 175.654 34.2088 179.899 34.5739C187.511 35.228 199.026 37.9413 203.24 44.387C205.26 47.4773 206.853 47.7365 194.121 118.199C194.114 118.24 168.74 251.858 164.466 262.303C160.973 270.834 155.496 270.703 151.514 271.095C147.967 271.445 116.803 265.707 113.253 265.423C109.33 265.11 74.7764 257.584 74.7407 257.573C49.1633 252.117 50.2868 251.971 57.4805 211.31C60.5395 194.019 71.7294 135.416 75.1325 118.19C88.0613 52.74 92.1036 35.9834 95.9613 31.6624C99.8189 27.3414 106.624 26.1151 112.032 26.4057ZM100.504 30.4183C93.9393 34.0107 93.4357 39.7531 81.3801 95.9961C74.5276 127.972 55.5182 233.207 55.0548 237.05C53.1863 252.567 59.4965 252.832 78.1409 256.559C85.868 258.102 78.1587 256.576 100.698 261.338C108.203 262.924 145.368 268.82 147.451 269.058C152.315 269.617 155.366 269.972 159.271 267.145C164.75 263.179 165.26 258.724 193.868 108.642C197.082 91.778 203.81 55.9688 202.367 48.4607C200.905 40.8617 191.116 38.2631 183.509 36.7493C178.781 35.8091 177.238 36.1458 175.8 37.8504C170.89 43.6673 169.214 43.9326 166.386 44.0577C162.828 44.2142 153.937 43.3053 149.504 42.6586C125.079 39.0975 127.592 38.8353 123.313 29.4945C123.125 29.0847 122.802 28.897 122.386 28.8076C121.384 28.59 120.39 28.3025 119.348 28.3084C116.362 28.3248 107.172 26.7693 100.504 30.4183Z" fill="black"/>
<path d="M135.568 29.8212C139.839 30.301 151.333 31.2516 154.186 32.0845C155.744 32.539 155.7 34.7367 154.102 35.2612C153.225 35.5488 152.568 35.4743 147.965 34.8753C134.017 33.0635 133.128 33.202 132.952 31.6152C132.739 29.6961 135.558 29.9225 135.568 29.8212Z" fill="black"/>
<path d="M166.102 34.7261C166.449 38.7491 159.865 39.3257 159.704 34.7782C159.634 32.807 161.179 31.4138 162.876 31.4138C164.599 31.4138 166.235 32.8785 166.102 34.7261Z" fill="black"/>
<path fill-rule="evenodd" clip-rule="evenodd" d="M131.486 162.493C135.257 162.493 138.99 161.75 142.473 160.308C145.956 158.865 149.121 156.75 151.787 154.084C154.453 151.418 156.567 148.254 158.01 144.771C159.453 141.287 160.195 137.554 160.195 133.784C160.195 130.014 159.453 126.281 158.01 122.797C156.567 119.314 154.453 116.15 151.787 113.484C149.121 110.818 145.956 108.703 142.473 107.26C138.99 105.817 135.257 105.075 131.486 105.075C123.872 105.075 116.57 108.1 111.186 113.484C105.802 118.868 102.777 126.17 102.777 133.784C102.777 141.398 105.802 148.7 111.186 154.084C116.57 159.468 123.872 162.493 131.486 162.493ZM143.841 129.369C144.498 125.216 141.63 123.053 137.652 121.592L139.05 115.946L135.892 115.161L134.53 120.667L133.914 120.508C133.289 120.348 132.673 120.189 132.041 120.048L133.407 114.546L130.163 113.742L128.797 119.244L122.36 117.649L121.429 121.414C121.429 121.414 123.818 121.934 123.729 121.985C125.005 122.329 125.225 123.235 125.154 123.927L123.531 130.329L121.304 139.334C121.129 139.762 120.698 140.374 119.824 140.164C119.862 140.202 117.502 139.554 117.502 139.554L115.952 143.526L122.197 145.229L120.807 150.847L123.942 151.625L125.336 146.004C125.84 146.151 126.351 146.269 126.845 146.384C127.215 146.47 127.576 146.553 127.917 146.646L126.523 152.263L129.665 153.041L131.059 147.424C136.466 148.454 140.549 147.973 142.374 142.649C143.841 138.406 142.469 135.982 139.621 134.39C141.758 133.87 143.343 132.39 143.841 129.369Z" fill="black" fill-opacity="0.16"/>
<path d="M23.8387 47.5633C27.4803 47.5022 37.4916 51.406 40.862 52.7812C52.0862 57.3615 55.9795 59.7172 64.7214 64.6357C69.5534 67.3549 70.8333 67.562 63.878 84.4333C61.2884 90.7136 59.1413 93.9946 56.8109 97.8984C55.8633 99.4853 55.02 101.552 50.6349 100.637C33.8813 97.143 15.4292 87.972 8.70783 82.3875C7.17015 81.1106 7.3415 79.0857 7.67675 76.9863C8.78978 70.0265 15.3293 55.3709 18.7429 50.6803C20.0422 48.8968 21.2417 47.6065 23.8387 47.5633ZM53.6656 99.0129C46.4644 76.6406 47.5834 76.362 46.2886 76.657C39.1068 78.293 35.9495 78.9769 33.938 76.289C29.0299 69.733 30.064 69.1936 29.1476 69.6242C22.7719 72.6176 17.4869 75.2445 9.82533 80.2985C9.22486 80.6949 8.81511 80.753 10.3081 81.7945C20.9273 89.2043 54.5074 101.626 53.6656 99.0129ZM23.3083 49.4302C21.6872 49.472 20.9317 47.7763 27.5399 61.1357C28.5501 63.177 32.9903 71.9069 35.4652 75.538C36.1372 76.5244 36.9925 76.6793 37.9192 76.4931C41.2956 75.8137 42.7856 75.6319 44.3933 75.2296C52.7 73.148 66.2873 68.6065 66.9266 68.2385C64.407 65.6519 30.3202 49.2485 23.3083 49.4302ZM54.7309 98.5674C55.2211 98.2128 65.891 75.608 67.0785 69.6778C65.1237 70.0667 63.1315 72.111 52.9221 74.9792C48.6934 76.1668 48.5906 75.7257 48.9125 76.499C51.6019 82.9552 54.5238 96.9701 54.5566 97.3307C54.6698 98.5704 54.6519 98.3395 54.7309 98.5674ZM28.7513 68.1342C28.0018 66.4535 26.3479 64.1529 22.3919 54.1446C20.6829 49.8236 21.2223 49.691 20.3089 51.6772C16.2844 60.4235 8.91941 75.456 9.23231 78.7475C10.5167 78.217 11.8487 75.1878 26.9677 68.8643C27.9705 68.4441 28.3788 68.3488 28.7513 68.1342Z" fill="black"/>
<path d="M54.446 44.6028C54.4803 48.8791 54.9824 49.5735 55.3072 50.9666C55.4607 51.6267 54.8587 51.6371 54.6471 51.4419C51.9532 48.9671 51.2127 43.3363 51.7238 40.0494C52.9605 32.0928 56.754 29.5762 61.7425 29.5628C67.2347 29.5479 71.5765 33.2565 72.031 33.4785C72.0235 32.2254 71.7017 30.3405 71.8403 28.4348C72.7357 16.1081 80.9933 11.0868 87.5478 12.9001C104.789 17.6726 111.257 51.4464 113.598 55.4798C113.598 55.4798 114.271 51.0292 114.702 49.3977C115.129 47.7795 117.013 47.8883 116.947 49.721C116.668 57.6493 116.597 54.7795 116.417 59.5207C116.288 62.8703 115.952 63.8894 114.931 64.18C113.456 64.5987 113.918 64.256 105.027 55.3249C104.565 54.86 104.2 54.2983 103.798 53.7768C103.613 53.5369 103.474 53.2597 103.676 52.9856C104.05 52.4775 104.428 52.1497 105.49 52.704C107.931 53.9794 109.405 55.4202 111.145 56.9356C112.394 58.0233 106.286 42.6807 101.494 32.8199C99.0611 27.8135 95.342 22.0949 90.8854 18.7573C87.5344 16.2481 82.4774 15.1232 78.6689 17.9318C76.5278 19.5112 75.0929 23.9231 74.5893 26.5887C73.5329 32.1852 74.6012 34.6422 74.7279 36.8578C74.7755 37.7012 73.9426 38.2823 73.1142 37.9902C70.5201 37.0739 66.7608 31.7829 59.7668 33.328C55.48 34.2756 54.4102 40.2118 54.446 44.6028Z" fill="black"/>
<path d="M164.643 202.72C164.272 201.509 163.412 197.768 163.82 196.57C164.072 195.831 164.933 195.938 165.066 196.549C165.552 198.775 165.969 200.485 166.611 201.689C169.566 207.232 173.304 209.768 178.112 211.409C182.435 212.884 186.687 213.909 190.87 213.447C195.289 212.958 201.954 210.662 206.287 207.612C212.587 203.175 215.646 197.654 217.444 190.787C217.679 189.887 217.65 189.887 216.75 189.562C212.453 188.005 209.847 183.96 209.709 181.112C209.402 174.688 215.403 173.639 218.079 177.721C221.334 182.689 219.894 186.798 221.05 186.362C224.684 184.986 227.105 182.336 229.152 179.029C231.361 175.465 233.144 170.261 233.381 168.781C230.993 170.201 230.219 171.243 227.452 172.538C226.658 172.909 225.541 172.02 226.085 170.94C227.081 168.962 235.197 162.571 235.232 162.547C236.096 161.921 237.221 162.127 237.741 164.231C238.749 168.309 239.743 171.812 239.712 177.443C239.708 178.197 238.152 178.925 237.449 177.072C236.702 175.103 236.383 172.368 236.136 171.559C235.518 172.888 233.934 178.205 230.853 182.535C225.182 190.501 220.496 189.474 220.442 190.325C220.211 193.946 217.505 201.174 213.527 205.721C199.172 222.132 170.137 220.66 164.643 202.72ZM212.566 179.482C212.257 179.535 213.583 184.833 217.006 186.384C217.603 186.655 217.925 186.783 217.967 186.214C218.025 185.433 217.37 181.67 215.78 179.247C214.482 177.268 212.566 177.331 212.566 179.482Z" fill="black"/>
<path d="M290.545 129.88C290.205 133.74 290.673 134.819 278.565 140.45C273.459 142.825 246.521 152.276 237.583 150.879C231.542 149.934 226.199 129.318 224.787 123.398C222.404 113.418 222.249 111.711 231.188 107.469C246.576 100.165 269.259 94.3344 275.278 93.9619C277.813 93.8055 279.79 93.7026 281.024 95.9376C285.86 104.705 289.846 117.327 290.545 129.88ZM239.374 149.341C239.405 148.952 239.614 150.292 252.843 146.203C256.568 145.051 280.38 138.678 286.783 133.845C287.095 133.609 287.085 133.584 286.8 133.341C279.918 127.497 279.073 126.271 268.277 117.908C267.295 117.146 267.772 119.17 264.157 123.24C261.66 126.051 261.077 127.544 252.885 124.705C252.846 124.692 232.168 117.286 225.371 113.929C225.87 118.568 233.043 144.699 236.479 147.848C241.04 132.712 248.029 122.968 248.618 124.544C249.007 125.586 246.342 128.406 237.669 148.751C237.475 149.205 237.842 149.14 239.374 149.341ZM259.733 124.486C261.537 124.736 264.878 119.39 271.042 109.282C280.414 93.9142 278.477 95.4623 277.717 95.4594C275.582 95.4489 257.878 100.239 250.905 102.476C235.401 107.445 224.88 112.253 226.421 112.869C226.455 112.882 253.617 123.638 259.733 124.486ZM288.435 129.613C288.386 129.613 288.489 128.666 288.411 127.968C287.431 119.167 281.225 97.6526 279.499 96.5798C277.542 102.467 271.351 112.024 268.765 116.106C268.497 116.529 268.943 116.388 270.536 117.571C277.127 122.469 278.273 123.358 280.432 125.222C287.843 131.62 285.92 130.544 287.875 132.408C288.486 131.388 288.435 131.251 288.435 129.613Z" fill="black"/>
<path d="M111.78 245.626C102.04 245.553 94.0477 237.701 94.0552 227.888C94.0626 217.879 102.04 209.915 111.922 210.021C121.823 210.127 129.604 218.04 129.556 227.937C129.507 238.298 120.844 245.695 111.78 245.626ZM127.947 227.713C127.844 218.362 120.418 211.708 111.94 211.659C103.077 211.606 95.9028 218.715 95.791 227.436C95.6733 236.528 102.991 243.534 111.524 243.713C120.762 243.908 128.042 236.284 127.947 227.713Z" fill="black"/>
<path d="M135.031 228.264C134.952 213.733 124.803 208.298 123.419 207.009C122.861 206.489 123.461 205.766 124.117 205.964C127.432 206.964 132.198 212.379 134.214 216.798C144.063 238.391 121.572 253.279 120.94 250.029C120.721 248.905 121.631 249.119 124.404 247.353C131.61 242.764 135.067 234.828 135.031 228.264Z" fill="black"/>
<path d="M88.046 230.814C88.6361 230.724 88.6122 230.522 89.5211 233.692C92.3641 243.602 100.835 250.018 109.197 250.843C112.256 251.146 112.735 251.159 112.796 251.913C112.823 252.25 112.71 252.458 112.373 252.555C111.856 252.704 111.363 252.868 110.794 252.777C108.569 252.424 109.118 252.935 105.202 251.902C90.1902 247.945 85.7038 231.172 88.046 230.814Z" fill="black"/>
<path d="M91.584 212.697C96.2417 206.213 104.127 202.644 104.793 204.148C105.647 206.074 92.0786 206.03 88.4952 225.715C88.3462 226.535 87.3911 226.49 87.2942 225.993C86.5239 222.043 89.2745 215.911 91.584 212.697Z" fill="black"/>
<path d="M129.349 129.755L129.214 129.715L130.634 124.023L131.204 124.158C133.102 124.58 137.186 125.497 136.447 128.494C135.654 131.648 130.938 130.231 129.349 129.755ZM126.894 138.999L127.125 139.066C129.083 139.65 134.643 141.303 135.395 138.171C136.172 135.157 131.174 133.982 128.937 133.458C128.693 133.398 128.48 133.35 128.314 133.307L126.894 138.999Z" fill="black" fill-opacity="0.16"/>
</svg>
