<svg width="20" height="21" viewBox="0 0 20 21" fill="none" xmlns="http://www.w3.org/2000/svg">
<path d="M18.3281 12.166V8.83268C18.3281 5.68998 18.3281 4.11864 17.3518 3.14232C16.3755 2.16602 14.8041 2.16602 11.6615 2.16602H9.99479C6.85209 2.16602 5.28075 2.16602 4.30443 3.14232C3.32812 4.11864 3.32812 5.68998 3.32812 8.83268V12.166C3.32812 15.3087 3.32812 16.8801 4.30443 17.8563C5.28075 18.8327 6.85209 18.8327 9.99479 18.8327H11.6615C14.8041 18.8327 16.3755 18.8327 17.3518 17.8563C18.3281 16.8801 18.3281 15.3087 18.3281 12.166Z" stroke="black" stroke-width="1.5"/>
<path d="M4.17187 5.5H1.67188M4.17187 10.5H1.67188M4.17187 15.5H1.67188" stroke="black" stroke-width="1.5" stroke-linecap="round" stroke-linejoin="round"/>
<path d="M14.5833 6.33398H11.25M12.9167 9.66732H11.25" stroke="black" stroke-width="1.5" stroke-linecap="round" stroke-linejoin="round"/>
<path d="M7.5 18.8327V2.16602" stroke="black" stroke-width="1.5" stroke-linecap="round" stroke-linejoin="round"/>
</svg>
