<svg width="16" height="17" viewBox="0 0 16 17" fill="none" xmlns="http://www.w3.org/2000/svg">
<path d="M6.89367 9.27267C6.45433 8.83334 5.74722 8.83334 4.33301 8.83334C2.91879 8.83334 2.21169 8.83334 1.77235 9.27267M6.89367 9.27267C7.33301 9.712 7.33301 10.4191 7.33301 11.8333C7.33301 13.2475 7.33301 13.9547 6.89367 14.394M1.77235 9.27267C1.33301 9.712 1.33301 10.4191 1.33301 11.8333C1.33301 13.2475 1.33301 13.9547 1.77235 14.394M1.77235 14.394C2.21169 14.8333 2.91879 14.8333 4.33301 14.8333C5.74722 14.8333 6.45433 14.8333 6.89367 14.394" stroke="black" stroke-width="1.5"/>
<path d="M10.1475 3.68544C11.1601 4.69797 11.6663 5.20423 11.6663 5.83333C11.6663 6.46243 11.1601 6.96869 10.1475 7.9812C9.13501 8.99373 8.62874 9.5 7.99967 9.5C7.37054 9.5 6.86434 8.99373 5.85179 7.9812C4.83927 6.96869 4.33301 6.46243 4.33301 5.83333C4.33301 5.20423 4.83927 4.69797 5.85179 3.68544C6.86434 2.67292 7.37054 2.16666 7.99967 2.16666C8.62881 2.16666 9.13501 2.67292 10.1475 3.68544Z" stroke="black" stroke-width="1.5"/>
<path d="M14.2277 9.27267C13.7883 8.83334 13.0812 8.83334 11.667 8.83334C10.2528 8.83334 9.54566 8.83334 9.10633 9.27267M14.2277 9.27267C14.667 9.712 14.667 10.4191 14.667 11.8333C14.667 13.2475 14.667 13.9547 14.2277 14.394M9.10633 9.27267C8.66699 9.712 8.66699 10.4191 8.66699 11.8333C8.66699 13.2475 8.66699 13.9547 9.10633 14.394M9.10633 14.394C9.54566 14.8333 10.2528 14.8333 11.667 14.8333C13.0812 14.8333 13.7883 14.8333 14.2277 14.394" stroke="black" stroke-width="1.5"/>
<path d="M8.00502 5.83334H7.99902" stroke="black" stroke-width="2" stroke-linecap="round" stroke-linejoin="round"/>
</svg>
