<svg width="128" height="138" viewBox="0 0 128 138" fill="none" xmlns="http://www.w3.org/2000/svg">
<path d="M23.5256 46.1547C26.6449 47.7149 29.7635 49.6027 32.3801 52.2144C33.6692 53.5227 34.8019 54.9751 35.7557 56.5425C36.6836 58.0849 37.4719 59.7064 38.1111 61.3878C39.4362 64.9223 40.1552 68.5787 40.7132 72.1616C40.8594 73.0505 40.9912 73.939 41.1153 74.8246L41.4726 77.4763L38.2181 77.8797C37.6963 73.7088 37.2876 69.4228 37.6457 65.0749C37.9867 60.7463 39.1293 56.3353 41.4473 52.4719C42.0291 51.5005 42.6839 50.5743 43.406 49.7012C44.1299 48.812 44.9345 47.9908 45.8094 47.2482C46.0224 47.0529 46.254 46.8835 46.4806 46.7067C46.7103 46.5346 46.9314 46.3479 47.1693 46.1889C47.6439 45.8685 48.1146 45.538 48.6114 45.2596C49.5859 44.6821 50.6018 44.1767 51.6507 43.7475C52.6807 43.3234 53.7335 42.9565 54.8044 42.6485C55.8649 42.3537 56.9296 42.0811 57.9915 41.8677C60.1174 41.4181 62.2298 41.115 64.3128 40.8171L64.5181 44.7474L62.662 44.7076C60.6451 44.6699 58.6101 44.5623 56.5593 44.3973C54.46 44.2471 52.3751 43.9403 50.322 43.4793C48.1575 42.9979 46.0835 42.1775 44.1772 41.0489C43.1924 40.4433 42.282 39.7254 41.4643 38.9097C40.6499 38.0895 39.9411 37.1718 39.3541 36.1775C38.1945 34.2351 37.4833 32.2028 36.8754 30.2479C36.2616 28.2809 35.7504 26.2836 35.3439 24.264C34.9271 22.2479 34.6295 20.2092 34.4525 18.1583C34.3673 17.1334 34.3008 16.1072 34.2687 15.08L34.245 14.3097C34.2389 14.053 34.2454 13.7958 34.2238 13.5395C34.1941 13.0264 34.1877 12.5126 34.1688 11.9987L37.6682 12.1637C37.3741 15.9127 37.0594 19.7259 36.3337 23.5576C36.2348 24.0357 36.1442 24.5159 36.0374 24.9928L35.6785 26.4215L35.2685 27.8444L34.8022 29.258C34.1414 31.1567 33.2978 32.9874 32.2833 34.7246C30.3216 38.0083 27.631 40.8015 24.4176 42.8901C23.1753 43.7218 21.8161 44.3658 20.3844 44.8011C19.8615 44.9502 19.3276 45.0575 18.7876 45.1221C18.547 45.1482 18.3202 45.1652 18.1073 45.1731L17.9501 45.1777L17.8228 45.1618C17.7335 45.1497 17.6473 45.138 17.5643 45.1267C16.5348 44.9769 15.9632 44.7985 16.7563 44.0221C16.8711 43.9144 16.9924 43.8139 17.1197 43.7211C17.1862 43.6696 17.2802 43.6113 17.3402 43.5625C17.3959 43.5161 17.4541 43.4676 17.5148 43.4171C17.7574 43.2169 18.0504 43.0211 18.3739 42.7895C18.6947 42.5523 19.0676 42.3269 19.4592 42.0481C19.6579 41.9161 19.8655 41.7782 20.082 41.6343C20.2944 41.4846 20.5167 41.3325 20.7489 41.1782C21.9505 40.3576 23.0969 39.4596 24.1807 38.4899C25.2876 37.5153 26.3174 36.4571 27.2609 35.3248C28.5469 33.7632 29.6279 32.0449 30.4777 30.2113C31.3367 28.3386 32.0201 26.391 32.5192 24.3932C33.5907 20.3667 34.0752 16.1315 34.5298 11.8628L34.5301 11.8604C34.5679 11.5067 34.7401 11.1808 35.0114 10.9495C35.2827 10.7181 35.6326 10.5987 35.9894 10.6159C36.3462 10.633 36.6829 10.7853 36.9306 11.0416C37.1782 11.2979 37.3181 11.6387 37.3216 11.9944C37.328 12.6869 37.305 13.3807 37.3537 14.0727C37.3978 14.7643 37.4501 15.4552 37.5204 16.1442C37.6549 17.5228 37.8546 18.8932 38.0827 20.2563C38.534 22.981 39.1954 25.6669 40.061 28.2904C40.6146 30.0845 41.3338 31.8238 42.2093 33.4859C42.6211 34.2372 43.1066 34.946 43.6586 35.602C44.1973 36.2185 44.794 36.7821 45.4406 37.2853C46.0474 37.7375 46.6917 38.1376 47.3666 38.4813C48.0725 38.8273 48.8012 39.1253 49.5476 39.3733C51.1095 39.8696 52.7146 40.2194 54.342 40.418C57.6752 40.8499 61.1394 40.9129 64.6236 41.041L64.644 41.0418C65.0805 41.0578 65.495 41.2365 65.8053 41.5426C66.1156 41.8487 66.299 42.2597 66.3192 42.6941C66.3393 43.1285 66.1947 43.5546 65.914 43.8879C65.6334 44.2211 65.2372 44.4371 64.804 44.4931C62.1587 44.835 59.5559 45.1926 57.0544 45.7728C54.5633 46.3657 52.151 47.1426 50.0208 48.3621C49.1121 48.8789 48.2541 49.4793 47.458 50.1555C46.6669 50.8471 45.9422 51.6104 45.2932 52.4357C43.9977 54.1424 42.9793 56.041 42.275 58.062C41.5542 60.1128 41.0892 62.244 40.8905 64.4077C40.684 66.6071 40.638 68.8185 40.7532 71.0244C40.8456 73.1719 41.065 75.3321 41.3195 77.5001L41.3211 77.5144C41.3667 77.9032 41.2556 78.2942 41.0121 78.6015C40.7686 78.9089 40.4127 79.1076 40.0223 79.154C39.6319 79.2005 39.2389 79.0909 38.9296 78.8494C38.6202 78.6079 38.4196 78.254 38.3718 77.8655C37.9444 74.3836 37.4932 70.9314 36.6848 67.6036C36.305 65.9473 35.8197 64.3168 35.2318 62.7219C34.6449 61.1553 33.9113 59.6471 33.0406 58.2173C32.812 57.8717 32.5998 57.5132 32.3594 57.1765L31.6165 56.1826C31.094 55.5431 30.5383 54.9313 29.9517 54.3495C28.7377 53.1911 27.4073 52.16 25.9815 51.2726C25.2635 50.8188 24.5234 50.3908 23.7673 49.983C23.3894 49.7791 23.0078 49.5799 22.6225 49.3854L22.0422 49.0964L21.7521 48.9548L21.4765 48.8319C21.117 48.6598 20.7225 48.5205 20.3392 48.3697C19.9405 48.2403 19.5507 48.0933 19.1413 47.9819C18.3356 47.7323 17.5035 47.543 16.672 47.3636C15.0593 47.0289 13.423 46.8185 11.7778 46.7345C10.1832 46.6563 8.60963 46.7497 7.30183 47.2006L6.92594 45.7117L6.92472 45.6133H6.92621H6.93542H6.94772H6.97237L7.02163 45.6136C7.05359 45.6142 7.08633 45.615 7.13235 45.6127L7.38683 45.6044L7.90443 45.5831C8.25161 45.5676 8.59681 45.5523 8.94004 45.537C9.62916 45.5097 10.3099 45.4828 10.9822 45.4561C12.329 45.4077 13.6438 45.3786 14.9285 45.3516C15.3656 45.3352 15.8033 45.3522 16.2378 45.4025C16.4063 45.4159 16.507 45.4665 16.6624 45.466C16.7636 45.4631 16.8632 45.4911 16.948 45.5462L17.203 45.2499C17.167 45.3851 17.1171 45.4448 17.1408 45.4569C17.1571 45.469 17.2456 45.4307 17.3266 45.3014C17.3364 45.2859 17.3426 45.2683 17.3448 45.2501C17.347 45.2319 17.3451 45.2134 17.3393 45.196C17.3334 45.1786 17.3238 45.1627 17.3111 45.1494C17.2984 45.1361 17.2829 45.1258 17.2657 45.1192C17.2485 45.1126 17.23 45.1098 17.2116 45.1112C17.1933 45.1125 17.1754 45.1178 17.1593 45.1268C17.1433 45.1358 17.1294 45.1482 17.1187 45.1632C17.108 45.1782 17.1008 45.1953 17.0976 45.2134L17.0181 45.6601C17.0033 45.7428 16.8913 45.869 16.6832 46.0093C16.5388 46.1265 16.3815 46.2271 16.2143 46.309C15.6992 46.5599 15.1558 46.7487 14.5958 46.8715C13.3826 47.1493 12.1607 47.395 10.9207 47.6285C10.301 47.7448 9.67709 47.8568 9.04884 47.9643L8.09801 48.1212L7.60937 48.1957L7.35503 48.2316C7.25947 48.2441 7.11663 48.2568 6.9992 48.2669C6.57854 48.303 6.15846 48.1914 5.81174 47.9515C5.46502 47.7116 5.21352 47.3585 5.1008 46.9534C4.98809 46.5483 5.02126 46.1166 5.19458 45.7333C5.3679 45.35 5.67044 45.0391 6.04978 44.8545L6.17106 44.7964C7.14818 44.3436 8.1861 44.0344 9.2524 43.8783C9.7463 43.8187 10.2501 43.7418 10.7344 43.7242C10.9784 43.7109 11.2248 43.6911 11.4671 43.6848L12.1903 43.679C14.1094 43.6979 16.021 43.9204 17.8927 44.3425C18.8385 44.5457 19.7735 44.7959 20.6941 45.0922L21.3924 45.3242L22.0937 45.5899C22.3257 45.6725 22.5645 45.7845 22.8003 45.8865L23.1543 46.0427L23.4696 46.1941C23.4878 46.1803 23.5049 46.1677 23.5256 46.1547Z" fill="#F1F8B5"/>
<path d="M106.445 54.211C108.071 56.1524 109.383 58.335 110.332 60.6798C110.448 60.9734 110.573 61.2628 110.68 61.5596L110.966 62.464C111.057 62.7667 111.163 63.0639 111.239 63.3707L111.448 64.2964C111.512 64.6061 111.599 64.9102 111.642 65.2241L111.771 66.165L111.835 66.635C111.856 66.7902 111.877 66.9469 111.888 67.1194C111.914 67.4576 111.927 67.807 111.918 68.1708C111.909 68.8246 111.803 69.4734 111.601 70.0959C111.476 70.4585 111.309 70.8053 111.103 71.1292C110.873 71.4745 110.595 71.7851 110.277 72.0516L110.254 72.0705C109.991 72.2907 109.666 72.4265 109.324 72.4599C108.982 72.4933 108.637 72.4229 108.336 72.2578C108.034 72.0927 107.79 71.8407 107.635 71.5349C107.48 71.2291 107.421 70.8837 107.467 70.5442C107.68 68.9713 107.983 67.4117 108.374 65.873C109.01 63.3005 109.996 60.8264 111.304 58.5193C112.645 56.1605 114.397 54.0583 116.477 52.3112C118.608 50.5586 121.069 49.2474 123.715 48.4546C126.434 47.6498 129.308 47.5153 132.09 48.0626C132.499 48.1466 132.871 48.3549 133.156 48.6587C133.441 48.9626 133.623 49.3469 133.679 49.7587C133.735 50.1704 133.661 50.5892 133.467 50.9572C133.273 51.3252 132.969 51.6242 132.598 51.8128L132.561 51.8312C131.655 52.2767 130.685 52.5775 129.685 52.7225C128.767 52.8508 127.837 52.8877 126.911 52.8326C126.023 52.7888 125.177 52.684 124.364 52.5679C123.554 52.4492 122.78 52.3338 121.94 52.1811C120.732 51.9788 119.55 51.6459 118.415 51.1883C117.793 50.9286 117.199 50.6085 116.641 50.2329C116.07 49.8454 115.544 49.3976 115.071 48.8973C114.192 47.9386 113.474 46.8452 112.944 45.6593C112.454 44.5637 112.069 43.4242 111.794 42.2562C110.686 37.7299 110.78 32.9947 112.066 28.5153L112.068 28.5087C112.18 28.1183 112.405 27.7692 112.714 27.5044C113.023 27.2396 113.404 27.0706 113.808 27.0183C114.213 26.966 114.624 27.0327 114.991 27.2101C115.358 27.3875 115.665 27.6679 115.874 28.0167C116.529 29.1498 116.883 30.4302 116.904 31.7374C116.925 32.8834 116.783 34.0265 116.481 35.1325C116.347 35.6662 116.174 36.1596 116.01 36.6583C115.825 37.1502 115.646 37.6446 115.427 38.1216C115.01 39.0831 114.521 40.012 113.964 40.9004C111.751 44.4886 108.542 47.3627 104.726 49.1764C102.297 50.3097 99.6605 50.9323 96.9798 51.0054C95.928 51.0417 94.8777 50.8981 93.8746 50.5808C93.6712 50.5129 93.481 50.443 93.3036 50.3693C93.1266 50.2883 92.9624 50.2056 92.8107 50.1212C92.5332 49.9734 92.2749 49.7922 92.0419 49.5815C91.4289 49.0316 91.5453 48.5889 92.1542 48.2994C92.7655 48.0162 93.8699 47.8666 95.3703 47.7167L96.0892 47.6394L96.8166 47.5426C97.3033 47.4687 97.7966 47.4071 98.2878 47.3154C99.2685 47.1428 100.238 46.9121 101.191 46.6244C103.03 46.0549 104.757 45.1736 106.295 44.0194C109.403 41.6932 111.661 38.4176 112.723 34.6932C112.976 33.8446 113.105 32.9639 113.105 32.0786C113.116 31.348 112.919 30.6291 112.536 30.0054L115.806 29.5773C115.473 30.895 115.265 32.2408 115.184 33.5972C115.028 36.1015 115.371 38.6765 115.804 41.0426C116.105 42.7288 116.63 44.325 117.484 45.5522C117.886 46.1423 118.396 46.6521 118.986 47.0555C119.631 47.4632 120.332 47.773 121.069 47.9745C121.908 48.2055 122.76 48.3859 123.622 48.5148C124.539 48.6624 125.452 48.8107 126.312 48.898C128.041 49.0833 129.633 49.013 130.851 48.419L131.271 51.7883L130.668 51.6742L130.366 51.6149L130.06 51.579L129.448 51.5052L128.829 51.4742C127.423 51.421 126.018 51.585 124.662 51.9604C123.282 52.346 121.959 52.9105 120.726 53.6394C119.486 54.3695 118.341 55.2495 117.318 56.2594C116.285 57.2847 115.367 58.4191 114.581 59.6427C112.423 62.9621 111.15 66.8928 110.622 70.91L108.235 69.6293C108.377 69.5099 108.485 69.3547 108.546 69.1798C108.646 68.9075 108.702 68.6216 108.714 68.3321C108.733 67.9724 108.724 67.6118 108.686 67.2536L108.514 66.0552C108.455 65.655 108.374 65.2584 108.271 64.8672L108.134 64.2748C108.092 64.0761 108.014 63.8871 107.957 63.6924C107.827 63.3074 107.717 62.9152 107.574 62.5342L107.105 61.4041C106.426 59.9108 105.581 58.4977 104.587 57.191C103.57 55.893 102.418 54.705 101.151 53.6466C99.5506 52.344 97.809 51.224 95.9585 50.3075C95.8473 50.2495 95.7379 50.187 95.6259 50.1321L95.2846 49.9826L94.6063 49.6769C94.1609 49.4517 93.6971 49.3022 93.2425 49.1201L92.5611 48.8492C92.338 48.7694 92.117 48.6974 91.8946 48.6413C91.4552 48.5052 90.985 48.5032 90.5446 48.6356C90.4368 48.6766 90.3388 48.727 90.2614 48.7619C90.2598 48.7626 90.2583 48.7636 90.2571 48.7649C90.2559 48.7662 90.255 48.7677 90.2543 48.7693L90.2454 48.7942C90.2163 48.8845 90.2225 48.9824 90.2629 49.0683C90.2994 49.1471 90.3517 49.2177 90.4165 49.2756C90.5337 49.3799 90.6803 49.4456 90.8364 49.4639C90.9102 49.4737 90.9852 49.468 91.0566 49.4469C91.1204 49.4347 91.1833 49.4178 91.2446 49.3964C91.348 49.3575 91.4234 49.333 91.4662 49.3604C91.5076 49.386 91.5199 49.467 91.4589 49.6051C91.4142 49.6895 91.3547 49.7653 91.2833 49.829C91.1975 49.9311 91.0858 50.0085 90.9598 50.0532C90.6577 50.1749 90.322 50.1858 90.0126 50.0838C89.7838 50.0083 89.5785 49.8752 89.4166 49.6974C89.3004 49.5683 89.2088 49.4194 89.146 49.2577C89.0741 49.066 89.0415 48.862 89.0502 48.6575C89.0561 48.5024 89.1068 48.3523 89.1962 48.2251L89.4205 47.9051C89.538 47.7368 89.6758 47.5834 89.8307 47.4484C89.9171 47.3732 90.0088 47.3044 90.1053 47.2424C90.208 47.1849 90.3146 47.1345 90.4243 47.0916C90.9428 46.8955 91.4943 46.8005 92.0488 46.8117C92.4821 46.8136 92.9145 46.8514 93.3414 46.9247L94.5154 47.1108L94.8108 47.1613L95.1002 47.2341L95.681 47.3832C97.2468 47.7885 98.759 48.3769 100.186 49.136C102.543 50.4498 104.642 52.1764 106.383 54.2327C106.403 54.2255 106.422 54.219 106.445 54.211Z" fill="#F1F8B5"/>
<path d="M69.8925 95.9247L71.1291 96.6139L72.3191 97.3823L72.6151 97.5761L72.8992 97.788L73.4665 98.2128C73.6544 98.3557 73.8459 98.4938 74.0303 98.6412L74.5675 99.1044C75.2862 99.719 75.9697 100.373 76.6147 101.064L77.5421 102.136C77.8458 102.496 78.1134 102.885 78.3991 103.259C79.495 104.781 80.4241 106.415 81.1707 108.134C81.893 109.85 82.4404 111.635 82.8046 113.461C82.8876 113.946 82.9888 114.428 83.0516 114.917L83.215 116.385L83.2871 117.862C83.3125 118.354 83.28 118.848 83.2786 119.34C83.2141 121.314 82.9318 123.274 82.4366 125.187L82.0494 126.532C81.938 126.919 81.6901 127.252 81.3514 127.471C81.0126 127.69 80.6058 127.78 80.2058 127.724C79.8058 127.668 79.4396 127.47 79.1745 127.167C78.9094 126.863 78.7634 126.475 78.7632 126.073L78.7637 125.995C78.7675 121.653 78.7582 117.176 79.5963 112.679C80.0082 110.402 80.6821 108.181 81.6047 106.058C82.5471 103.877 83.8392 101.862 85.4305 100.093C87.0626 98.3411 88.98 96.876 91.102 95.7594C93.1615 94.689 95.328 93.8365 97.566 93.2159C98.6662 92.9031 99.7692 92.6357 100.876 92.3993C101.986 92.1657 103.123 91.9599 104.297 91.8322C105.497 91.6909 106.707 91.6552 107.914 91.7255C109.179 91.7998 110.43 92.0353 111.635 92.4263C112.033 92.5552 112.38 92.8031 112.631 93.136C112.881 93.469 113.022 93.8707 113.035 94.2865C113.047 94.7023 112.931 95.1118 112.701 95.4591C112.471 95.8065 112.139 96.0747 111.75 96.2272L111.707 96.244C109.809 96.9473 107.802 97.3149 105.777 97.3302C103.628 97.3432 101.482 97.1733 99.3622 96.8224C97.2605 96.532 95.1797 96.1076 93.1326 95.5519C92.0747 95.2601 91.0356 94.9043 90.0213 94.4864C88.9765 94.0643 87.9683 93.5573 87.0071 92.9706C86.0211 92.3714 85.0957 91.6786 84.244 90.9018C83.3966 90.1205 82.6295 89.2572 81.954 88.3245C80.6698 86.5217 79.6271 84.56 78.8523 82.4888C77.3293 78.5098 76.3885 74.3336 76.0588 70.0881C76.0202 69.5587 75.9871 69.0287 75.9688 68.498C75.9569 68.2329 75.9483 67.9675 75.945 67.7021C75.9408 67.4343 75.9311 67.1865 75.9367 66.8609C75.9365 66.1458 76.0427 65.4345 76.2518 64.7504C76.3951 64.2982 76.6091 63.8714 76.8859 63.4857C77.2166 63.0296 77.6441 62.6516 78.138 62.3785L78.1589 62.3671C78.4006 62.2358 78.6659 62.1533 78.9397 62.1241C79.2134 62.095 79.4902 62.1198 79.7543 62.1972C80.0185 62.2745 80.2647 62.403 80.4789 62.5751C80.6932 62.7472 80.8713 62.9596 81.0031 63.2003C81.1446 63.461 81.2298 63.7483 81.2533 64.0438C81.8716 72.5023 79.6788 80.9286 75.0126 88.0239C73.9262 89.6725 72.6384 91.1804 71.1788 92.5131C70.4314 93.1857 69.6307 93.7972 68.7846 94.3416C67.9349 94.8888 67.036 95.3561 66.0995 95.7378C64.6143 96.3656 63.0058 96.6513 61.3941 96.5737C60.3609 96.5357 59.3521 96.2507 58.4527 95.743C57.4852 95.1296 57.6768 94.7061 58.5194 94.5088C58.9478 94.3857 59.5464 94.3094 60.2983 94.1665C61.2069 93.9978 62.1035 93.7706 62.9825 93.4861C64.3318 93.032 65.6075 92.3846 66.7692 91.5642C67.978 90.7024 69.0822 89.7037 70.0597 88.5883C71.4709 86.9575 72.6824 85.1655 73.6687 83.25C74.6909 81.327 75.5212 79.3087 76.1477 77.2243C77.4096 73.0547 77.8613 68.6838 77.4785 64.3457L79.9712 65.6782C79.9719 65.6796 79.9756 65.6848 79.9719 65.6789L79.9624 65.6655C79.9641 65.6683 79.9659 65.6709 79.968 65.6733C79.9731 65.6799 79.978 65.6845 79.9753 65.6811V65.6862C79.9611 65.7064 79.9491 65.7282 79.9397 65.7511C79.8748 65.9037 79.8328 66.065 79.8151 66.2298C79.7821 66.4882 79.769 66.7488 79.776 67.0092L79.8128 67.9958C79.8815 69.3371 80.0242 70.6732 80.2193 71.9999C80.6205 74.6493 81.2915 77.2511 82.2218 79.7652C82.8642 81.5508 83.7024 83.2604 84.7211 84.8631C85.2075 85.6166 85.7528 86.3306 86.3519 86.9988C86.6403 87.3204 86.9446 87.6274 87.264 87.9185C87.4252 88.0607 87.5754 88.213 87.7408 88.3498L88.2367 88.7589C89.723 89.8928 91.3886 90.7723 93.1653 91.3611C95.0447 91.9938 96.9742 92.4684 98.9333 92.7801C100.896 93.1434 102.883 93.3703 104.877 93.459C106.73 93.5483 108.583 93.2808 110.334 92.6712L110.397 96.0477C108.663 95.4608 106.705 95.3647 104.694 95.5663C103.688 95.6609 102.667 95.8267 101.635 96.0244C100.602 96.2253 99.5757 96.4513 98.5668 96.7113C96.4054 97.2415 94.3199 98.0414 92.3599 99.0922C90.4549 100.11 88.7651 101.484 87.383 103.139C86.0135 104.839 84.9316 106.749 84.1799 108.796C83.4052 110.891 82.8641 113.065 82.5666 115.278C82.0668 118.763 82.0135 122.364 81.9672 126.013L79.0083 125.529C80.9793 119.744 80.2918 113.077 77.3421 107.654C77.1492 107.32 76.9781 106.972 76.7683 106.648L76.1374 105.677C75.923 105.356 75.6772 105.059 75.4491 104.747C75.3309 104.595 75.2218 104.435 75.0963 104.289L74.7156 103.854C74.2105 103.27 73.6762 102.713 73.1147 102.183C72.5256 101.682 71.9547 101.158 71.3165 100.714C71.0105 100.476 70.6925 100.253 70.3637 100.046C70.0347 99.8395 69.7135 99.6196 69.3783 99.4225L68.3549 98.8592C68.0163 98.6662 67.6521 98.5221 67.3022 98.3503C65.8832 97.693 64.3993 97.1843 62.8746 96.8325C59.2414 95.9832 55.4687 95.9102 51.8051 96.6183L51.7668 95.1707C53.9607 95.8349 56.2634 96.0675 58.5465 95.8554C59.8425 95.7339 60.5003 95.6992 60.4949 95.9768C60.4862 96.0994 60.315 96.3119 59.946 96.5539C59.7221 96.7006 59.4878 96.8309 59.245 96.9437C59.1031 97.0125 58.9484 97.0822 58.7793 97.1469C58.6948 97.1792 58.6079 97.2165 58.5162 97.2458C58.4238 97.2726 58.3283 97.2989 58.2297 97.3249C55.9399 97.9237 53.5478 98.0268 51.2146 97.6271C50.8284 97.5597 50.476 97.3655 50.2135 97.0756C49.951 96.7856 49.7935 96.4166 49.766 96.0272C49.7386 95.6378 49.8428 95.2505 50.0621 94.9269C50.2813 94.6033 50.603 94.3621 50.976 94.2416L51.1239 94.1944C53.4418 93.4586 55.8603 93.0854 58.2932 93.0881C60.291 93.0823 62.281 93.3357 64.213 93.8418C66.1583 94.343 68.043 95.0538 69.8337 95.9615C69.8526 95.9484 69.8706 95.9367 69.8925 95.9247Z" fill="#F1F8B5"/>
</svg>
