<svg width="167" height="167" viewBox="0 0 167 167" fill="none" xmlns="http://www.w3.org/2000/svg">
<g clip-path="url(#clip0_2388_2473)">
<g clip-path="url(#clip1_2388_2473)">
<path d="M26.0812 64.6258C25.8618 63.4229 26.0907 62.1813 26.7245 61.1356C27.3831 60.1831 28.3481 59.4849 29.4588 59.1573L30.5847 58.9321C30.9539 58.9002 31.3252 58.9002 31.6945 58.9321C33.926 59.4167 35.8616 60.7943 37.0504 62.744C37.3399 63.0979 37.5329 63.5 37.7903 63.8699C38.0524 64.2225 38.2889 64.5933 38.498 64.9797C39.1967 65.8719 39.6512 66.9306 39.8169 68.0517C39.8169 68.4056 39.0287 68.6147 38.2085 68.6147C37.3882 68.6147 36.4553 68.4538 36.2623 67.9552C35.5525 66.2629 34.6742 64.6464 33.6406 63.13C33.0144 62.3877 32.0864 61.968 31.1154 61.9881C30.2672 61.8491 29.4597 62.4017 29.2819 63.2426C29.1621 63.7296 29.309 64.2435 29.6679 64.5937C30.1125 64.8617 30.6138 65.0214 31.1315 65.0601C31.7921 65.1658 32.4578 65.2356 33.1259 65.2692C34.2711 65.2804 35.4127 65.3989 36.5357 65.623C36.8082 65.6583 37.0739 65.7342 37.3238 65.8482C38.2728 66.2342 38.3854 66.7168 38.0476 67.4566C37.9716 67.6433 37.8857 67.8259 37.7903 68.0035C37.4986 68.5168 36.9296 68.8076 36.3427 68.7433C34.7343 68.5342 33.4637 68.4538 31.3889 68.293C30.4239 68.2873 29.4669 68.1187 28.5581 67.7944C27.2317 67.2076 26.2807 66.0037 26.0168 64.5776L26.0812 64.6258Z" fill="#EECEDB"/>
<path d="M29.1698 61.1679C29.7061 60.7949 30.3141 60.5375 30.9551 60.4119C31.1764 60.3432 31.4021 60.2894 31.6306 60.2511C32.3733 60.273 33.1048 60.4367 33.7859 60.7336C34.0527 60.831 34.3271 60.9063 34.6062 60.9588C34.968 60.9795 35.3054 61.1482 35.5391 61.4252C35.5391 61.5217 35.4104 61.9399 35.1691 62.342C34.9279 62.7441 34.6384 63.1623 34.4775 63.1784C34.0007 63.2444 33.5149 63.1718 33.0782 62.9693C32.8209 62.8406 32.5635 62.9693 32.3544 63.114L31.5663 63.3553C31.3962 63.4418 31.2347 63.5441 31.0838 63.6609C30.8361 63.862 30.6426 64.1219 30.5209 64.4168C30.5209 64.6581 30.5209 64.9476 30.5209 65.1728C30.5209 65.398 30.5209 65.2854 30.5209 65.3336C30.5209 65.3819 30.1509 65.5427 29.588 65.5266H29.1537C28.7651 65.516 28.3959 65.3545 28.1243 65.0763C27.8368 64.7021 27.6239 64.2762 27.4971 63.8217C27.5087 63.4 27.6188 62.9869 27.8187 62.6154C28.1419 62.0393 28.5798 61.5357 29.1055 61.1357L29.1698 61.1679Z" fill="#EECEDB"/>
<path d="M167.974 59.865C167.84 59.5492 167.609 59.2843 167.314 59.109C167.201 59.0405 167.083 58.9814 166.96 58.9321C166.5 58.7387 166.011 58.6245 165.513 58.5944C165.299 58.5626 165.083 58.5626 164.869 58.5944C164.614 58.6838 164.35 58.7432 164.081 58.7713C164.001 58.7713 163.888 58.5944 163.872 58.3692C163.823 58.1391 163.911 57.9014 164.097 57.758C164.703 57.4338 165.392 57.2994 166.076 57.372C166.483 57.4042 166.891 57.4042 167.298 57.372C167.783 57.3826 168.263 57.4807 168.713 57.6615C169.024 57.7813 169.316 57.9437 169.582 58.144C170.005 58.5065 170.335 58.964 170.547 59.479C170.795 59.8676 170.969 60.2982 171.062 60.7496C171.062 60.8461 171.062 60.9426 171.062 61.023C171.062 61.1035 170.949 61.2965 170.724 61.3125C170.458 61.3555 170.186 61.3555 169.92 61.3125L169.486 61.216C169.041 61.08 168.61 60.9023 168.199 60.6853L167.845 60.4118C167.748 60.4118 167.572 60.4118 167.604 60.4118H167.813H167.941C167.937 60.3798 167.937 60.3473 167.941 60.3153C167.941 60.2188 167.941 60.1063 167.941 59.9937L167.974 59.865Z" fill="#EECEDB"/>
<path d="M139.345 123.268C139.663 122.721 139.926 122.145 140.133 121.547C140.351 120.949 140.502 120.329 140.583 119.697C140.583 119.199 140.583 118.7 140.583 118.186C140.704 116.279 140.704 114.366 140.583 112.46C140.583 111.591 140.455 110.739 140.374 109.854C140.208 108.705 140.307 107.533 140.664 106.428C140.808 106.074 141.291 106.251 141.757 106.605C142.258 106.943 142.619 107.452 142.771 108.037C142.996 110.031 143.205 112.17 143.253 114.47C143.253 115.837 143.639 117.221 143.72 118.668C143.775 119.482 143.775 120.299 143.72 121.113C143.625 121.955 143.441 122.786 143.173 123.59C142.871 124.589 142.421 125.538 141.838 126.404C140.902 127.778 139.573 128.837 138.026 129.444C136.945 129.953 135.805 130.326 134.632 130.554C134.375 130.554 134.134 130.651 133.876 130.667C133.541 130.717 133.2 130.632 132.928 130.43C132.656 130.227 132.476 129.925 132.429 129.589C132.429 129.412 132.332 129.251 132.316 129.09C132.288 128.494 132.625 127.94 133.169 127.691C134.954 126.823 136.385 126.083 137.447 125.552C138.255 124.979 138.889 124.194 139.28 123.284L139.345 123.268Z" fill="#EECEDB"/>
<path d="M118.21 27.8419C119.293 28.4472 120.248 29.2554 121.025 30.2223C121.734 31.1561 122.307 32.1848 122.73 33.2783C123.064 34.0256 123.334 34.8005 123.534 35.5944C123.858 36.9716 124.041 38.3781 124.081 39.7923C124.081 41.2238 124.081 42.4622 124.21 43.7811C124.356 44.9187 124.592 46.0428 124.917 47.1427C125.279 48.5116 125.926 49.7886 126.815 50.8902C127.105 51.1637 126.976 51.4049 126.461 51.3888C125.657 51.2839 124.943 50.8233 124.515 50.1343C122.839 47.2869 122.039 44.0086 122.215 40.7091C122.178 38.8888 121.83 37.0882 121.186 35.3853C120.621 33.5595 119.55 31.9311 118.098 30.6888C117.201 29.9676 116.131 29.496 114.993 29.3216C113.164 29.107 111.31 29.3388 109.589 29.9972C108.271 30.5488 107.033 31.2736 105.906 32.1524C105.649 32.3293 105.423 32.5545 105.182 32.7314C104.265 33.4391 103.912 33.5517 103.252 33.1818C103.095 33.1145 102.945 33.0338 102.802 32.9405C102.335 32.6349 102.416 31.9272 103.075 31.2035C105.189 28.9951 107.938 27.4998 110.94 26.9251C113.389 26.3377 115.965 26.622 118.226 27.7293L118.21 27.8419Z" fill="#EECEDB"/>
<path d="M37.2274 98.2897C37.5106 99.7461 38.1768 101.101 39.1575 102.214C39.5502 102.623 39.9752 102.999 40.4281 103.34C42.0264 104.719 43.9189 105.715 45.961 106.251C46.8905 106.487 47.8505 106.579 48.8079 106.525C49.4351 106.525 50.0302 106.364 50.6414 106.332C51.2627 106.292 51.8859 106.292 52.5072 106.332C52.9254 106.332 53.054 106.959 52.861 107.683C52.6864 108.536 52.1203 109.257 51.333 109.629C48.3253 110.322 45.1686 109.911 42.4386 108.471C40.7548 107.681 39.168 106.698 37.7099 105.544C36.1648 104.156 34.9925 102.403 34.3001 100.445C33.8838 99.2449 33.6718 97.9836 33.6729 96.7134C33.7055 94.8247 34.1909 92.9714 35.0882 91.3092C35.7036 90.0218 36.4704 88.8123 37.3722 87.7064C37.5797 87.4695 37.7998 87.244 38.0316 87.0309C38.9323 86.2588 39.4631 86.3554 40.0421 86.8057C40.1798 86.8956 40.309 86.9979 40.4281 87.1113C40.6164 87.3087 40.7051 87.5807 40.6694 87.8512C40.6609 88.1977 40.5488 88.5338 40.3477 88.8162C39.1133 90.4227 38.1516 92.2213 37.5008 94.14C37.0966 95.4758 37.0358 96.8919 37.3239 98.2575L37.2274 98.2897Z" fill="#EECEDB"/>
<path d="M65.8082 87.6903C65.398 86.0794 64.7703 84.5318 63.9424 83.0903C63.0667 81.6083 62.0659 80.2038 60.9508 78.8924C58.683 76.1259 56.1256 73.4882 53.5683 70.6252C51.6326 68.5405 49.9185 66.2604 48.4536 63.8217C47.1236 61.5618 46.2238 59.0751 45.7997 56.4874C45.6871 55.2007 45.4941 53.914 45.478 52.6273C45.534 51.329 45.6629 50.0349 45.864 48.751C46.8534 43.6559 49.6456 39.0878 53.7291 35.8839C57.2744 33.0718 61.5261 31.2909 66.0173 30.737C66.7254 30.6328 67.4407 30.5844 68.1564 30.5922C68.8743 30.5521 69.5938 30.5521 70.3117 30.5922L72.4669 30.8174L73.5285 30.9461L74.5739 31.2356C75.2816 31.4125 75.9571 31.6377 76.6488 31.8629C77.3124 32.1358 77.9619 32.4417 78.5949 32.7797C79.2402 33.0786 79.8637 33.4225 80.4607 33.809L82.069 35.0797C83.4684 36.1734 82.8572 36.4951 81.2649 36.3503C80.4607 36.3503 79.4956 36.0447 78.3054 35.8839C77.6942 35.8839 77.0669 35.7391 76.4397 35.6104C76.118 35.6104 75.7963 35.4496 75.4585 35.4013L74.4292 35.2566C73.818 35.1762 73.239 34.9832 72.6438 34.8545L70.8103 34.6937C69.5898 34.5971 68.3636 34.5971 67.1431 34.6937C64.7206 34.9769 62.3588 35.6447 60.1466 36.672C55.6103 38.6265 52.0273 42.2904 50.1745 46.8692C49.1711 49.7725 48.9275 52.8843 49.4669 55.9084C50.117 58.9835 51.447 61.8741 53.3592 64.3686C55.571 67.291 57.9557 70.0785 60.5005 72.7161C63.2145 75.4866 65.5901 78.5695 67.5774 81.9001C69.5618 86.2727 70.6553 90.9968 70.7942 95.7966C70.9838 99.2114 71.3812 102.611 71.9844 105.978C72.5761 109.203 74.1096 112.18 76.3914 114.534C80.0056 117.984 85.1259 119.36 89.9824 118.186C91.0101 117.941 92.016 117.613 92.9901 117.204C96.609 115.499 97.574 114.599 98.9411 114.792C99.2437 114.797 99.5451 114.829 99.8418 114.888C100.26 115.017 100.228 115.483 99.8418 116.223C99.5483 116.69 99.2088 117.127 98.8285 117.526C98.267 118.054 97.6705 118.542 97.0432 118.99C94.8239 120.501 92.3158 121.536 89.6768 122.03C83.9757 122.991 78.1557 121.202 73.9788 117.204C71.8811 115.185 70.2791 112.708 69.2984 109.967C68.6045 108.051 68.1192 106.067 67.8508 104.048C67.5613 102.085 67.3844 100.171 67.2235 98.2896C67.0525 94.7041 66.5627 91.1408 65.7599 87.6421L65.8082 87.6903Z" fill="#EECEDB"/>
<path d="M74.1075 109.87L74.5417 110.98C74.6865 111.35 74.8956 111.672 75.0564 112.009C75.2114 112.341 75.3943 112.658 75.6033 112.958C75.7776 113.262 75.9824 113.548 76.2145 113.811C77.1921 114.989 78.3611 115.995 79.6725 116.786C82.3134 118.452 85.4221 119.219 88.5348 118.974C89.14 118.901 89.7341 118.756 90.304 118.539C90.9687 118.227 91.604 117.856 92.2019 117.43C93.5691 116.465 95.0488 115.065 96.9145 113.602C97.9245 112.799 99.0006 112.083 100.131 111.462C100.762 111.124 101.411 110.823 102.077 110.562C102.785 110.337 103.493 110.16 104.201 109.967C106.828 109.499 109.525 109.592 112.114 110.24C115.475 111.06 118.274 112.138 120.574 112.411C121.496 112.581 122.445 112.525 123.34 112.251C123.743 112.251 124.064 111.881 124.466 111.752C124.868 111.623 125.206 111.205 125.576 110.803L126.509 109.709C126.723 109.418 126.896 109.099 127.024 108.76C127.352 107.714 127.568 106.636 127.667 105.544C127.812 104.273 127.94 102.874 128.262 101.281C128.592 99.4392 129.347 97.6991 130.466 96.1988C132.663 93.664 135.571 91.8484 138.813 90.9876C141.24 90.443 143.614 89.6841 145.906 88.7198C147.821 87.7356 149.429 86.2446 150.555 84.4093C151.685 82.4817 152.29 80.2908 152.308 78.0561C152.409 73.3086 150.314 68.7799 146.63 65.784C143.413 63.1463 138.829 62.4064 134.261 61.8917C129.694 61.377 124.933 61.3609 120.236 61.2805C117.212 61.2805 114.157 61.184 111.068 60.991C107.838 60.8732 104.637 60.3325 101.547 59.3826C100.661 59.0784 99.8178 58.6622 99.0376 58.1441C98.595 57.8505 98.1804 57.5167 97.7991 57.1469L96.9628 56.2302C95.8887 55.0328 94.9402 53.7286 94.132 52.3378C92.5236 49.6036 91.2851 46.8532 89.8698 44.2959C88.0844 41.0791 88.9047 40.9826 91.6068 43.0735C93.3476 44.5532 95.0067 46.1263 96.5768 47.7861L99.5845 50.7938C100.067 51.3406 100.582 51.8553 101.08 52.4022L101.868 53.1742C101.989 53.2766 102.118 53.3681 102.254 53.4476C103.23 53.9675 104.284 54.326 105.375 54.5092C106.756 54.7829 108.153 54.9762 109.557 55.0882C112.452 55.3616 115.492 55.4581 118.547 55.5385C124.869 55.5422 131.184 55.9127 137.462 56.6483C140.99 57.0545 144.416 58.0895 147.579 59.7043C154.183 63.4898 158.284 70.4929 158.355 78.1043C158.438 81.9397 157.313 85.704 155.138 88.8645C154.465 89.8113 153.7 90.6894 152.855 91.4862C152.42 91.8722 152.002 92.2743 151.568 92.6442L150.136 93.6093C148.294 94.793 146.289 95.7032 144.185 96.3114C142.303 96.9065 140.566 97.4212 139.151 98.0163C138.48 98.2837 137.843 98.6292 137.253 99.0457C136.964 99.2226 136.738 99.4639 136.481 99.6569C136.224 99.8499 135.966 100.155 135.886 100.3C135.2 101.452 134.813 102.757 134.76 104.096C134.597 106.176 134.275 108.241 133.795 110.272C133.466 111.55 132.922 112.763 132.187 113.859C131.497 114.856 130.699 115.773 129.806 116.593C127.858 118.423 125.333 119.516 122.665 119.681C120.2 119.757 117.739 119.431 115.379 118.716C113.272 118.169 111.374 117.623 109.653 117.349C108.152 117.033 106.595 117.11 105.133 117.574C103.571 118.231 102.143 119.169 100.919 120.341C99.2556 121.875 97.4757 123.279 95.5956 124.539C94.4671 125.246 93.243 125.788 91.9607 126.147C90.7016 126.501 89.4067 126.711 88.1005 126.774C83.1414 126.944 78.2571 125.53 74.1557 122.737C71.62 121.043 69.5158 118.78 68.0116 116.127C66.5981 113.622 65.5936 110.907 65.0361 108.085C63.9424 102.616 63.9424 97.4051 63.0578 92.6764C62.5288 89.2073 61.1777 85.915 59.1172 83.0743C56.7488 80.0768 54.22 77.2096 51.5417 74.4855C48.5807 71.6071 45.9973 68.3644 43.8535 64.8351C41.6616 60.9591 40.755 56.488 41.264 52.0644C41.6515 48.7803 42.5695 45.5809 43.9822 42.591C46.8277 36.4551 52.0571 31.7486 58.4578 29.5629C61.5957 28.4705 64.8982 27.9265 68.2207 27.9545C71.1366 27.8962 74.0457 28.2592 76.8578 29.0322C80.6676 29.9566 84.1607 31.8836 86.9746 34.6133C88.7091 36.4309 89.5048 38.9487 89.1299 41.4329C88.8725 42.2049 87.9236 41.9315 86.4117 41.1595C84.8998 40.3874 82.632 39.2616 79.8494 37.9427C75.5878 36.0396 70.9021 35.2854 66.2585 35.7553C61.8499 36.108 57.7107 38.0179 54.5815 41.1434C53.1172 42.6889 51.9456 44.4872 51.1235 46.4511C50.2788 48.4729 49.7369 50.6083 49.5151 52.7882C49.1612 56.9057 50.5445 59.9616 53.6487 63.7414C55.9004 66.4435 58.9081 69.4029 61.8837 72.668C63.3955 74.2764 64.8592 76.0456 66.3067 77.9113C67.908 80.0832 69.1815 82.4784 70.0865 85.0204C71.4749 89.5033 72.2751 94.1475 72.4669 98.8366C72.5971 102.535 73.2081 106.201 74.2844 109.742L74.1075 109.87Z" fill="#EECEDB"/>
<path d="M146.887 122.335C146.666 123.394 146.275 124.41 145.729 125.343C145.168 126.284 144.469 127.135 143.654 127.868C142.189 129.146 140.467 130.095 138.604 130.651C137.419 131.054 136.195 131.334 134.953 131.487C130.839 131.813 126.702 131.298 122.794 129.975C121.077 129.377 119.419 128.623 117.84 127.724C115.734 126.608 114.076 124.802 113.143 122.609C112.854 121.933 113.674 121.596 114.752 121.515C115.859 121.394 116.978 121.601 117.968 122.11C118.66 122.689 119.577 123.011 120.204 123.558C120.945 124.064 121.719 124.521 122.52 124.925C124.237 125.758 126.038 126.405 127.892 126.855C129.07 127.142 130.29 127.218 131.495 127.08C132.677 126.899 133.843 126.631 134.985 126.276C137.178 125.817 139.069 124.441 140.18 122.496C140.797 121.188 141.057 119.74 140.936 118.298C140.741 115.597 140.376 112.911 139.843 110.256C139.243 107.893 139.074 105.441 139.344 103.019C139.431 102.415 139.582 101.822 139.794 101.249C140.065 100.464 140.646 99.8238 141.403 99.4801C142.025 99.3241 142.683 99.4349 143.22 99.7857C143.526 99.9326 143.821 100.099 144.105 100.284C144.872 101.014 145.283 102.042 145.231 103.099C145.231 103.855 145.231 104.37 145.231 104.997C145.231 105.624 145.343 106.267 145.44 106.975C145.649 108.423 145.987 110.192 146.373 112.026C147.224 115.393 147.426 118.892 146.968 122.335H146.887Z" fill="#EECEDB"/>
<path d="M116.103 23.3224C118.006 23.4468 119.867 23.9326 121.588 24.7538C123.43 25.6509 125.005 27.0151 126.155 28.7105C126.986 29.7973 127.618 31.0225 128.021 32.3294C129.018 36.672 128.52 40.3714 128.697 43.8133C128.77 45.2466 129.074 46.6587 129.597 47.9952C129.91 48.8013 130.264 49.5905 130.659 50.3595C130.788 50.808 130.944 51.2484 131.125 51.6784C131.293 52.1422 131.514 52.5849 131.785 52.9973C132.074 53.5763 131.785 53.8658 130.981 54.0266C129.652 54.2824 128.277 54.1252 127.04 53.5763C126.73 53.3984 126.43 53.2052 126.139 52.9973C125.894 52.7627 125.673 52.504 125.48 52.2252C125.039 51.7268 124.646 51.1884 124.306 50.6168C123.656 49.5021 123.225 48.2739 123.035 46.998C122.648 44.8062 122.54 42.5742 122.714 40.3553C122.776 39.1762 122.662 37.9944 122.376 36.849C122.263 36.286 122.07 35.7713 121.925 35.2406C121.781 34.7098 121.555 34.3077 121.395 33.8895C120.831 31.9893 119.289 30.5393 117.358 30.0937C115.929 29.7303 114.448 29.6268 112.983 29.7881C110.6 30.0406 108.309 30.8446 106.292 32.1364C104.737 33.2311 103.303 34.4873 102.013 35.8839C101.731 36.2122 101.419 36.5137 101.081 36.7846C100.662 37.2252 100.08 37.4746 99.4722 37.4746C98.8642 37.4746 98.2828 37.2252 97.8638 36.7846C97.6078 36.6154 97.3609 36.4328 97.1239 36.2378C96.7633 35.9127 96.5536 35.4526 96.5449 34.9671C96.5061 34.3766 96.6462 33.788 96.947 33.2783C97.8956 31.5644 99.1493 30.0382 100.646 28.7748C102.242 27.3475 104.021 26.1412 105.938 25.1881C109.085 23.6229 112.575 22.8761 116.087 23.0168L116.103 23.3224Z" fill="#EECEDB"/>
<path d="M38.2084 94.317C37.9757 94.7839 37.8132 95.2825 37.7259 95.7968L37.5329 96.5366C37.5566 96.7827 37.5566 97.0304 37.5329 97.2765V98.0324L37.6294 98.7562V99.5282L37.8867 100.252C37.9816 100.627 38.1634 100.974 38.4175 101.265C38.6749 101.571 38.8679 101.925 39.093 102.246C42.0225 106.105 46.9737 107.84 51.6707 106.653L53.07 106.235L54.4211 105.64C55.3539 105.318 56.1742 104.788 57.1714 104.45C57.7826 104.241 58.2973 104.932 58.3616 106.058C58.3754 106.673 58.2717 107.284 58.056 107.86C57.8344 108.524 57.3915 109.092 56.8015 109.468L55.1931 110.481C54.6017 110.772 53.995 111.029 53.3756 111.253C52.1361 111.73 50.8465 112.065 49.5315 112.251C48.8648 112.334 48.1923 112.361 47.521 112.331C46.8555 112.342 46.1912 112.272 45.5427 112.122C44.8833 111.993 44.2238 111.865 43.5805 111.688C42.9371 111.511 42.3259 111.221 41.7147 110.964C38.6269 109.78 35.8688 107.872 33.6727 105.399C31.3316 102.399 30.3835 98.5426 31.0671 94.7996C31.2263 93.6927 31.5291 92.6113 31.9678 91.5828C32.2801 90.5226 32.7578 89.5184 33.3832 88.6072C35.3073 86.2547 37.4927 84.1287 39.8972 82.2702C40.7497 81.5464 41.5056 80.7583 42.2937 79.9701L43.4357 78.7799C43.8217 78.3939 44.256 78.0562 44.6581 77.7184C45.0602 77.3806 45.3497 77.075 45.7196 76.8016C46.1736 76.3361 46.8033 76.0844 47.4531 76.1089C48.1028 76.1335 48.7119 76.4319 49.1294 76.9303C49.4189 77.1715 49.7406 77.3806 50.014 77.6219C50.8911 78.5154 50.9867 79.9146 50.2392 80.9191C49.2244 82.7052 47.9506 84.3312 46.4595 85.7443C45.0441 87.0471 43.5805 88.2373 42.2455 89.4275C41.3321 90.2218 40.4673 91.0705 39.656 91.9688C39.4932 92.1459 39.3427 92.334 39.2056 92.5317L38.9965 92.8051L38.8839 93.0142C38.8283 93.0785 38.7797 93.1486 38.7392 93.2233L38.6105 93.6093L38.3532 94.3492L38.2084 94.317Z" fill="#EECEDB"/>
<path d="M149.187 33.9861C150.119 33.9923 151.021 34.3157 151.744 34.9029C152.273 35.3634 152.687 35.942 152.951 36.5917C153.362 37.612 153.463 38.7312 153.24 39.8085C153.132 40.4922 152.904 41.1513 152.565 41.7547C151.402 43.3734 149.767 44.5927 147.884 45.2449C147.16 45.5344 146.453 45.8561 145.745 46.0813C144.878 46.4968 143.923 46.6955 142.963 46.6603C142.641 46.6603 142.544 46.0813 142.609 45.4218C142.62 44.7874 142.866 44.1797 143.3 43.7169C144.072 43.2827 144.764 42.8001 145.456 42.382L147.611 41.5134C148.362 41.1808 148.936 40.5428 149.187 39.7603C149.302 39.4737 149.362 39.1682 149.364 38.8596C149.376 38.7419 149.376 38.6234 149.364 38.5057C149.373 38.4687 149.373 38.4301 149.364 38.3931C149.364 38.3931 149.364 38.3931 149.493 38.184L149.637 37.8945V37.7659V37.6854C149.637 37.0421 149.637 38.554 149.637 38.3931C149.637 38.3931 149.637 38.3931 149.541 38.3931C149.444 38.3931 149.428 38.3931 149.235 38.5057C148.482 39.2152 147.871 40.0612 147.434 40.9987C147.027 41.9805 146.486 42.9007 145.825 43.733C145.644 43.9198 145.438 44.082 145.214 44.2155C144.297 44.7141 143.831 44.4729 143.413 43.8134L143.139 43.3631C142.964 42.8413 142.964 42.2765 143.139 41.7547C143.186 41.5915 143.218 41.4247 143.236 41.2561V40.7575C143.236 40.5001 143.381 40.2428 143.477 39.9533C143.712 39.2417 143.986 38.5436 144.297 37.8624C144.626 37.1022 145.054 36.3884 145.568 35.7393C145.754 35.5086 145.958 35.2935 146.179 35.0959L146.533 34.7742L147.032 34.4847C147.689 34.1065 148.429 33.8965 149.187 33.8735V33.9861Z" fill="#EECEDB"/>
<path d="M170.098 54.0265C170.812 54.2881 171.467 54.687 172.028 55.2006C172.713 55.797 173.21 56.5792 173.459 57.4524C173.723 58.3447 173.723 59.2943 173.459 60.1867C173.251 60.9211 172.877 61.598 172.366 62.165C171.809 62.8292 171.125 63.376 170.355 63.7734C168.216 64.5308 165.927 64.7625 163.68 64.4489C162.779 64.4489 161.895 64.4489 161.026 64.272C159.86 64.2487 158.72 63.9276 157.713 63.3391C157.391 63.1139 157.713 62.5832 158.067 62.0363C158.421 61.4895 159.096 60.8943 159.675 60.83C160.656 60.83 161.638 60.5244 162.603 60.5405C163.568 60.5566 164.517 60.5405 165.482 60.5405C166.476 60.5472 167.439 60.1864 168.184 59.5272C168.301 59.4423 168.409 59.3452 168.505 59.2377C168.602 59.2377 168.505 59.109 168.682 59.1573C168.859 59.2055 168.94 59.1573 168.827 59.1573H168.682C168.682 59.1573 168.682 59.1573 168.682 59.0447C168.427 58.7044 168.012 58.5216 167.589 58.5622C166.412 58.6838 165.295 59.1417 164.372 59.8811C163.551 60.4922 162.892 61.3769 162.007 62.1167C161.822 62.2948 161.617 62.4512 161.396 62.5832C160.544 63.0657 160.061 62.8888 159.418 61.9559C159.273 61.7468 159.128 61.5377 159 61.3125C158.658 60.7263 158.599 60.0172 158.839 59.3825C159.064 58.9804 159.305 58.5622 159.547 58.1762C159.788 57.7901 160.142 57.4685 160.479 57.1146C161.233 56.3487 162.069 55.669 162.972 55.088C163.852 54.5013 164.818 54.0562 165.835 53.7692C167.237 53.381 168.722 53.4259 170.098 53.8978V54.0265Z" fill="#EECEDB"/>
<path d="M104.329 143.116C102.945 143.801 101.377 144.021 99.8581 143.743C99.1323 143.606 98.4424 143.322 97.8315 142.907C97.2376 142.475 96.7709 141.892 96.4805 141.218C96.3357 140.8 96.1588 140.414 96.0301 140.011L95.9497 139.706C95.9497 139.561 95.9497 139.481 95.9497 139.368C95.9497 139.255 95.9497 138.934 95.9497 138.709V138.13C95.9497 137.647 96.1427 137.197 96.2392 136.73V136.393C96.3433 136.319 96.4176 136.211 96.4483 136.087C96.5609 135.878 96.6413 135.701 96.7378 135.54C97.0967 134.942 97.4999 134.372 97.9441 133.835C98.7082 132.89 99.5954 132.052 100.582 131.342C101.333 130.772 102.033 130.137 102.673 129.444C103.107 129.09 103.493 128.688 103.847 128.351L104.136 128.093L104.571 127.981C104.882 127.915 105.188 127.829 105.487 127.723C105.906 127.611 106.243 127.723 106.662 128.431C106.935 128.859 107.156 129.318 107.321 129.798C107.41 130.088 107.479 130.384 107.53 130.683C107.53 130.844 107.53 130.972 107.53 131.149C107.499 131.258 107.45 131.361 107.385 131.455C106.959 132.065 106.486 132.64 105.97 133.176C105.474 133.583 104.935 133.933 104.362 134.221L101.418 135.733C101.189 135.867 100.979 136.029 100.791 136.216C100.656 136.405 100.558 136.617 100.501 136.843C100.478 137 100.446 137.156 100.405 137.309V137.647V137.76C100.348 138.076 100.45 138.401 100.678 138.628C100.956 138.848 101.307 138.952 101.66 138.918C101.957 138.924 102.255 138.892 102.544 138.821C102.869 138.689 103.16 138.485 103.397 138.226C104.35 137.305 104.958 136.084 105.118 134.768C105.213 133.631 105.181 132.488 105.021 131.358C105.021 131.101 105.021 130.844 105.021 130.57C105.127 129.764 105.817 129.164 106.629 129.171C106.822 129.155 107.016 129.155 107.208 129.171C107.918 129.214 108.542 129.657 108.817 130.313C109.117 130.8 109.299 131.351 109.348 131.921C109.443 132.501 109.497 133.087 109.508 133.674C109.547 135.002 109.374 136.326 108.994 137.599C108.597 138.653 108.05 139.644 107.369 140.542C107.029 141.044 106.641 141.513 106.211 141.941C105.947 142.206 105.662 142.448 105.359 142.665C105.063 142.876 104.751 143.064 104.426 143.228L104.329 143.116Z" fill="#EECEDB"/>
</g>
</g>
<defs>
<clipPath id="clip0_2388_2473">
<rect width="167" height="167" fill="white"/>
</clipPath>
<clipPath id="clip1_2388_2473">
<rect width="167" height="167" fill="white"/>
</clipPath>
</defs>
</svg>
