<svg width="24" height="24" viewBox="0 0 24 24" fill="none" xmlns="http://www.w3.org/2000/svg">
<path fill-rule="evenodd" clip-rule="evenodd" d="M10.5 5.5C9.17392 5.5 7.90215 6.02678 6.96447 6.96447C6.02678 7.90215 5.5 9.17392 5.5 10.5C5.5 11.8261 6.02678 13.0979 6.96447 14.0355C7.90215 14.9732 9.17392 15.5 10.5 15.5C11.8261 15.5 13.0979 14.9732 14.0355 14.0355C14.9732 13.0979 15.5 11.8261 15.5 10.5C15.5 9.17392 14.9732 7.90215 14.0355 6.96447C13.0979 6.02678 11.8261 5.5 10.5 5.5ZM4 10.5C4 8.77609 4.68482 7.12279 5.90381 5.90381C7.12279 4.68482 8.77609 4 10.5 4C12.2239 4 13.8772 4.68482 15.0962 5.90381C16.3152 7.12279 17 8.77609 17 10.5C17 12.2239 16.3152 13.8772 15.0962 15.0962C13.8772 16.3152 12.2239 17 10.5 17C8.77609 17 7.12279 16.3152 5.90381 15.0962C4.68482 13.8772 4 12.2239 4 10.5Z" fill="#666666"/>
<path fill-rule="evenodd" clip-rule="evenodd" d="M14.47 14.47C14.6106 14.3296 14.8012 14.2507 15 14.2507C15.1987 14.2507 15.3894 14.3296 15.53 14.47L19.53 18.47C19.6037 18.5387 19.6628 18.6215 19.7038 18.7135C19.7448 18.8055 19.7668 18.9048 19.7686 19.0055C19.7704 19.1062 19.7518 19.2062 19.7141 19.2996C19.6764 19.393 19.6203 19.4778 19.549 19.549C19.4778 19.6203 19.393 19.6764 19.2996 19.7141C19.2062 19.7519 19.1062 19.7704 19.0055 19.7686C18.9048 19.7668 18.8055 19.7448 18.7135 19.7038C18.6215 19.6628 18.5387 19.6037 18.47 19.53L14.47 15.53C14.3295 15.3894 14.2507 15.1988 14.2507 15C14.2507 14.8013 14.3295 14.6106 14.47 14.47Z" fill="#666666"/>
</svg>
