<svg width="16" height="17" viewBox="0 0 16 17" fill="none" xmlns="http://www.w3.org/2000/svg">
<path d="M2 5.16666H4" stroke="black" stroke-width="1.5" stroke-linecap="round" stroke-linejoin="round"/>
<path d="M2 11.8333H6" stroke="black" stroke-width="1.5" stroke-linecap="round" stroke-linejoin="round"/>
<path d="M12 11.8333H14" stroke="black" stroke-width="1.5" stroke-linecap="round" stroke-linejoin="round"/>
<path d="M10 5.16666H14" stroke="black" stroke-width="1.5" stroke-linecap="round" stroke-linejoin="round"/>
<path d="M4 5.16666C4 4.54541 4 4.23478 4.10149 3.98975C4.23682 3.66305 4.49639 3.40348 4.82309 3.26816C5.06812 3.16666 5.37875 3.16666 6 3.16666C6.62125 3.16666 6.93187 3.16666 7.17693 3.26816C7.5036 3.40348 7.7632 3.66305 7.89853 3.98975C8 4.23478 8 4.54541 8 5.16666C8 5.78792 8 6.09854 7.89853 6.34358C7.7632 6.67028 7.5036 6.92984 7.17693 7.06517C6.93187 7.16666 6.62125 7.16666 6 7.16666C5.37875 7.16666 5.06812 7.16666 4.82309 7.06517C4.49639 6.92984 4.23682 6.67028 4.10149 6.34358C4 6.09854 4 5.78792 4 5.16666Z" stroke="black" stroke-width="1.5"/>
<path d="M8 11.8333C8 11.2121 8 10.9015 8.10147 10.6564C8.2368 10.3297 8.4964 10.0701 8.82307 9.9348C9.06813 9.83334 9.37873 9.83334 10 9.83334C10.6213 9.83334 10.9319 9.83334 11.1769 9.9348C11.5036 10.0701 11.7632 10.3297 11.8985 10.6564C12 10.9015 12 11.2121 12 11.8333C12 12.4546 12 12.7652 11.8985 13.0103C11.7632 13.3369 11.5036 13.5965 11.1769 13.7319C10.9319 13.8333 10.6213 13.8333 10 13.8333C9.37873 13.8333 9.06813 13.8333 8.82307 13.7319C8.4964 13.5965 8.2368 13.3369 8.10147 13.0103C8 12.7652 8 12.4546 8 11.8333Z" stroke="black" stroke-width="1.5"/>
</svg>
