<svg width="1440" height="1149" viewBox="0 0 1440 1149" fill="none" xmlns="http://www.w3.org/2000/svg">
<path d="M4839.23 -2208C4630.33 -1898.16 4401.86 -1599.57 4132.98 -1340.06C4045.81 -1255.92 3953.82 -1175.52 3849.26 -1114.32C3636.04 -989.53 3384.47 -951.858 3152.15 -867.805C2857.09 -761.067 2591.55 -575.383 2387.56 -337.218C2234.07 -158.005 2074.59 76.8146 1869.83 201.283C1683.81 314.355 1396.26 216.186 1191.16 214.843C981.09 213.476 772.554 278.347 596.52 392.075C504.301 451.66 420.638 524.781 350.207 609.066C282.861 689.674 242.488 805.888 113.697 778.413C71.1275 769.33 34.1052 743.966 -6.05761 727.169C-145.632 668.807 -324.36 731.01 -397.53 863.426" stroke="#B4B4B4" stroke-opacity="0.08" stroke-width="2" stroke-miterlimit="10"/>
<path d="M4829.02 -2196.83C4627.7 -1886.95 4403.06 -1587.72 4135.75 -1329.39C4046.78 -1243.3 3952.07 -1163.14 3846.34 -1099.21C3718.68 -1022.24 3577.28 -975.69 3434.02 -932.501C3336.24 -903.012 3237.58 -875.1 3141.83 -840.176C2952.68 -771.169 2774.29 -673.172 2614.93 -552.848C2521.74 -482.488 2435.09 -404.48 2356.58 -319.895C2301.37 -260.637 2245.47 -195.2 2187.37 -130.023C2105.6 -38.505 2019.41 52.4639 1924.53 126.512C1890.48 153.138 1855.32 177.58 1818.89 198.942C1668.25 287.15 1457.26 251.342 1274.2 236.071C1225.09 231.88 1178 229.162 1134.57 230.717C955.864 236.597 779.784 290.284 624.556 380.444C597.826 395.962 571.704 412.567 546.268 430.212C455.563 493.117 373.182 569.219 302.634 655.503C260.858 706.612 228.753 770.718 179.61 806.489C149.353 828.517 112.733 839.58 63.5355 830.62C20.5519 822.79 -17.2446 799.303 -58.1006 783.903C-199.963 730.294 -380.376 792.366 -457.127 924.878" stroke="#B4B4B4" stroke-opacity="0.08" stroke-width="2" stroke-miterlimit="10"/>
<path d="M4818.8 -2185.67C4625.06 -1875.75 4404.24 -1575.88 4138.5 -1318.73C4047.72 -1230.68 3950.29 -1150.77 3843.38 -1084.12C3714.81 -1004.37 3572.28 -954.649 3427.5 -908.931C3328.64 -877.704 3228.72 -848.343 3131.47 -812.566C2939.35 -741.929 2757.03 -644.722 2592.93 -527.639C2496.98 -459.19 2407.33 -383.895 2325.56 -302.593C2267.87 -245.649 2209.54 -182.924 2149.08 -120.572C2063.87 -33.0329 1974.34 53.758 1876.39 125.695C1841.32 151.56 1805.22 175.481 1767.89 196.607C1613.24 283.898 1400.92 254.394 1217.53 246.353C1168.41 244.024 1121.35 243.339 1077.93 246.618C899.779 260.077 725.669 319.882 572.961 415.732C546.676 432.209 521.006 449.787 495.986 468.356C406.78 534.587 325.681 613.669 255.035 701.962C213.183 754.287 180.322 818.949 130.431 855.818C99.6813 878.539 62.648 890.294 13.3482 882.848C-30.077 876.283 -68.6147 854.676 -110.169 840.658C-254.306 791.797 -436.432 853.75 -516.741 986.333" stroke="#B4B4B4" stroke-opacity="0.08" stroke-width="2" stroke-miterlimit="10"/>
<path d="M4808.61 -2174.52C4622.42 -1864.57 4405.44 -1564.02 4141.28 -1308.09C4048.68 -1218.07 3948.55 -1138.42 3840.47 -1069.03C3710.97 -986.481 3567.32 -933.604 3421.01 -885.358C3321.09 -852.379 3219.92 -821.576 3121.14 -784.967C2926.07 -712.691 2739.8 -616.282 2570.98 -502.46C2472.26 -435.903 2379.82 -363.102 2294.58 -285.315C2234.55 -230.533 2173.61 -170.68 2110.83 -111.151C2022.17 -27.5853 1929.32 55.0168 1828.3 124.829C1792.22 149.927 1755.15 173.338 1716.96 194.23C1558.28 280.61 1344.66 257.886 1160.9 256.585C1111.77 256.231 1064.75 257.387 1021.34 262.455C843.746 283.187 671.586 349.421 521.431 450.965C495.584 468.421 470.353 486.945 445.768 506.445C358.076 575.997 278.258 658.06 207.515 748.361C165.585 801.901 131.983 867.115 81.3303 905.087C50.0933 928.514 12.6526 940.976 -36.7798 935.008C-80.6412 929.721 -119.931 909.967 -162.185 897.332C-308.61 853.223 -492.426 915.032 -576.31 1047.72" stroke="#B4B4B4" stroke-opacity="0.08" stroke-width="2" stroke-miterlimit="10"/>
<path d="M4798.4 -2163.35C4619.78 -1853.36 4406.63 -1552.17 4144.06 -1297.41C4049.65 -1205.42 3946.95 -1125.82 3837.55 -1053.92C3707.29 -968.332 3562.35 -912.545 3414.52 -861.752C3313.54 -827.04 3211.11 -794.775 3110.82 -757.326C2912.79 -683.407 2722.58 -587.787 2549.02 -477.219C2447.55 -412.574 2352.14 -342.403 2263.6 -267.982C2201.12 -215.458 2137.72 -158.387 2072.59 -101.655C1980.49 -22.0684 1884.3 56.3556 1780.21 124.043C1743.1 148.379 1705.07 171.274 1666.02 191.919C1503.32 277.383 1288.4 261.099 1104.27 266.884C1055.11 268.425 1008.16 271.495 964.757 278.354C787.742 306.347 617.517 379.016 469.882 486.25C444.467 504.671 419.682 524.155 395.532 544.587C309.353 617.46 230.803 702.509 159.957 794.804C117.95 849.56 83.6012 915.31 32.1924 954.4C0.467872 978.534 -37.3943 991.708 -86.9261 987.22C-131.237 983.217 -171.26 965.323 -214.212 954.071C-362.925 914.716 -548.44 976.4 -635.883 1109.16" stroke="#B4B4B4" stroke-opacity="0.08" stroke-width="2" stroke-miterlimit="10"/>
<path d="M4788.21 -2152.2C4617.16 -1842.17 4407.84 -1540.32 4146.83 -1286.76C4050.6 -1192.82 3945.23 -1113.41 3834.62 -1038.84C3703.47 -950.415 3557.37 -891.508 3408.02 -838.188C3305.97 -801.723 3202.29 -768.016 3100.48 -729.735C2899.49 -654.178 2705.35 -559.36 2527.06 -452.034C2422.81 -389.281 2324.44 -321.774 2232.61 -250.704C2167.69 -200.459 2101.94 -145.977 2034.33 -92.2284C1938.96 -16.3858 1839.12 57.3597 1732.11 123.182C1693.93 146.666 1655.01 169.131 1615.06 189.539C1448.33 274.092 1232.14 264.224 1047.61 277.127C998.462 280.558 951.534 285.554 908.141 294.203C731.707 329.41 563.421 408.562 418.311 521.5C393.347 540.894 369.003 561.323 345.259 582.698C260.599 658.906 183.317 746.94 112.368 841.231C70.2845 897.201 35.18 963.509 -16.9768 1003.7C-49.1889 1028.54 -87.4721 1042.42 -137.103 1039.42C-181.865 1036.7 -222.62 1020.66 -266.271 1010.79C-417.258 976.186 -604.472 1037.75 -695.496 1170.6" stroke="#B4B4B4" stroke-opacity="0.08" stroke-width="2" stroke-miterlimit="10"/>
<path d="M4778 -2141.03C4614.52 -1830.97 4409.03 -1528.47 4149.59 -1276.09C4051.57 -1180.19 3943.5 -1101.01 3831.69 -1023.73C3699.65 -932.471 3552.39 -870.458 3401.51 -814.597C3298.4 -776.393 3193.46 -741.224 3090.15 -702.11C2886.2 -624.908 2688.13 -530.88 2505.09 -426.823C2398.08 -365.981 2296.73 -301.112 2201.63 -233.399C2134.25 -185.427 2066.05 -133.685 1996.09 -82.7805C1897.28 -10.8701 1794.08 58.6093 1684.01 122.349C1644.81 145.051 1604.93 167.034 1564.11 187.181C1393.37 270.817 1175.9 267.364 990.973 287.378C941.821 292.698 894.945 299.595 851.543 310.073C675.703 352.489 509.341 438.128 366.751 556.757C342.219 577.116 318.321 598.504 295.007 620.797C211.859 700.326 135.86 791.341 64.7988 887.645C22.6388 944.831 -13.2072 1011.69 -66.1257 1052.98C-98.8115 1078.52 -137.552 1093.15 -187.275 1091.6C-232.494 1090.19 -273.979 1075.98 -318.315 1067.49C-471.591 1037.64 -660.509 1099.06 -755.08 1232.01" stroke="#B4B4B4" stroke-opacity="0.08" stroke-width="2" stroke-miterlimit="10"/>
<path d="M4767.78 -2129.88C4611.86 -1819.78 4410.22 -1516.63 4152.34 -1265.43C4052.5 -1167.57 3941.75 -1088.62 3828.74 -1008.65C3695.81 -914.563 3547.39 -849.417 3394.99 -791.027C3290.81 -751.072 3184.62 -714.46 3079.79 -674.514C2872.88 -595.674 2670.86 -502.443 2483.1 -401.633C2373.34 -342.688 2268.99 -280.472 2170.6 -216.111C2100.75 -170.406 2030.1 -121.403 1957.8 -73.3294C1855.55 -5.36494 1749 59.8565 1635.88 121.513C1595.67 143.434 1554.82 164.921 1513.12 184.825C1338.35 267.551 1119.63 270.489 934.3 297.626C885.141 304.822 838.308 313.639 794.906 325.927C619.663 375.519 455.209 467.684 315.158 592.011C291.059 613.336 267.612 635.697 244.727 658.908C163.093 741.757 88.3614 835.759 17.1968 934.057C-25.04 992.459 -61.6412 1059.87 -115.308 1102.26C-148.487 1128.5 -187.66 1143.89 -237.47 1143.77C-283.162 1143.66 -325.358 1131.29 -370.393 1124.19C-525.948 1099.06 -716.559 1160.37 -814.716 1293.41" stroke="#B4B4B4" stroke-opacity="0.08" stroke-width="2" stroke-miterlimit="10"/>
<path d="M4757.59 -2118.73C4609.24 -1808.59 4411.43 -1504.78 4155.13 -1254.77C4053.48 -1154.95 3940.03 -1076.24 3825.83 -993.544C3692 -896.653 3542.43 -828.359 3388.51 -767.428C3283.28 -725.74 3175.83 -687.666 3069.47 -646.875C2859.61 -566.392 2653.64 -473.964 2461.16 -376.394C2348.62 -319.356 2241.27 -259.805 2139.63 -198.779C2067.31 -155.355 1994.23 -109.084 1919.58 -63.8546C1813.89 0.17765 1704 61.1409 1587.8 120.706C1546.56 141.852 1504.78 162.831 1462.19 182.493C1283.4 264.303 1063.43 273.617 877.677 307.904C828.513 316.976 781.737 327.707 738.334 341.804C563.677 398.544 401.156 497.258 263.645 627.284C239.996 649.581 216.989 672.889 194.511 697.042C114.391 783.212 40.9276 880.2 -30.3346 980.507C-72.6483 1040.12 -109.996 1108.08 -164.419 1151.58C-198.086 1178.52 -237.705 1194.69 -287.59 1195.99C-333.748 1197.21 -376.666 1186.64 -422.394 1180.93C-580.237 1160.56 -772.547 1221.75 -874.257 1354.87" stroke="#B4B4B4" stroke-opacity="0.08" stroke-width="2" stroke-miterlimit="10"/>
<path d="M4747.38 -2107.56C4606.6 -1797.39 4412.62 -1492.93 4157.88 -1244.1C4054.42 -1142.32 3938.29 -1063.84 3822.87 -978.438C3688.14 -878.739 3537.42 -807.298 3381.98 -743.839C3275.69 -700.398 3166.96 -660.89 3059.11 -619.264C2846.29 -537.143 2636.38 -445.499 2439.17 -351.204C2323.87 -296.063 2213.53 -239.178 2108.63 -181.482C2033.83 -140.339 1958.3 -96.7934 1881.3 -54.4085C1772.17 5.67783 1658.94 62.397 1539.67 119.87C1497.42 140.235 1454.66 160.718 1411.2 180.139C1228.38 261.037 1007.14 276.714 820.994 318.172C771.837 329.114 725.086 341.758 681.688 357.678C507.639 421.541 347.029 526.829 212.037 662.544C188.821 685.807 166.26 710.074 144.217 735.159C65.6093 824.65 -6.56673 924.632 -77.9459 1026.94C-120.323 1087.77 -158.44 1156.28 -213.611 1200.89C-247.765 1228.53 -287.83 1245.46 -337.804 1248.2C-384.442 1250.74 -428.062 1242 -474.495 1237.65C-634.612 1222.03 -828.64 1283.08 -933.917 1416.3" stroke="#B4B4B4" stroke-opacity="0.08" stroke-width="2" stroke-miterlimit="10"/>
<path d="M4737.18 -2096.4C4603.97 -1786.2 4413.83 -1481.08 4160.66 -1233.45C4055.38 -1129.7 3936.56 -1051.46 3819.96 -963.346C3684.31 -860.833 3532.47 -786.256 3375.48 -720.258C3268.11 -675.079 3158.14 -634.115 3048.77 -591.644C2832.99 -507.878 2619.14 -417.037 2417.2 -325.983C2299.12 -272.748 2185.77 -218.543 2077.63 -164.168C2000.35 -125.32 1922.38 -84.4866 1843.04 -44.9322C1730.44 11.1998 1613.9 63.6832 1491.57 119.073C1448.3 138.657 1404.59 158.644 1360.26 177.817C1173.42 257.799 950.928 279.819 764.355 328.459C715.191 341.278 668.492 355.822 625.085 373.571C451.633 444.53 292.944 556.418 160.479 697.838C137.699 722.079 115.579 747.292 93.9702 773.309C16.8762 866.121 -54.0318 969.088 -125.5 1073.38C-167.954 1135.43 -206.813 1204.49 -262.745 1250.2C-297.387 1278.55 -337.893 1296.27 -387.946 1300.41C-435.06 1304.3 -479.402 1297.44 -526.519 1294.39C-688.947 1283.87 -884.638 1344.45 -993.495 1477.76" stroke="#B4B4B4" stroke-opacity="0.08" stroke-width="2" stroke-miterlimit="10"/>
<path d="M4726.97 -2085.25C4601.32 -1775 4415 -1469.23 4163.43 -1222.8C4056.34 -1117.09 3934.81 -1039.09 3817.02 -948.265C3680.47 -842.958 3527.49 -765.22 3368.97 -696.695C3260.54 -649.763 3149.32 -607.356 3038.42 -564.054C2819.69 -478.65 2601.89 -388.607 2395.23 -300.799C2274.4 -249.462 2158.01 -197.94 2046.64 -146.891C1966.87 -110.338 1886.46 -72.2304 1804.79 -35.512C1688.75 16.6601 1568.87 64.9269 1443.47 118.212C1399.18 137.034 1354.51 156.499 1309.29 175.436C1118.43 254.507 894.673 282.857 707.693 338.688C658.532 353.363 611.87 369.813 568.465 389.419C395.6 467.446 238.83 585.968 108.898 733.072C86.5647 758.273 64.8953 784.459 43.7023 811.4C-31.8785 907.532 -101.519 1013.49 -173.085 1119.79C-215.615 1183.05 -255.235 1252.66 -311.91 1299.48C-347.025 1328.53 -387.994 1347.06 -438.124 1352.57C-485.721 1357.82 -530.763 1352.75 -578.584 1351.07C-743.286 1345.29 -940.69 1405.75 -1053.1 1539.14" stroke="#B4B4B4" stroke-opacity="0.08" stroke-width="2" stroke-miterlimit="10"/>
<path d="M4716.76 -2074.08C4598.68 -1763.8 4416.2 -1457.36 4166.19 -1212.12C4057.3 -1104.44 3933.06 -1026.69 3814.09 -933.138C3676.63 -825.036 3522.5 -744.151 3362.46 -673.084C3252.98 -624.419 3140.5 -580.55 3028.09 -536.408C2806.4 -449.361 2584.66 -360.106 2373.26 -275.554C2249.65 -226.123 2130.27 -177.28 2015.64 -129.548C1933.39 -95.2893 1850.53 -59.9075 1766.52 -26.0198C1647.01 22.1981 1523.83 66.2429 1395.36 117.417C1350.05 135.458 1304.42 154.427 1258.34 173.13C1063.46 251.285 838.438 285.951 651.064 349C601.904 365.531 555.28 383.888 511.886 405.331C339.602 490.412 184.769 615.576 57.3629 768.385C35.4669 794.564 14.2378 821.696 -6.53416 849.574C-80.5962 949.041 -148.96 1057.96 -220.638 1166.28C-263.245 1230.75 -303.606 1300.91 -361.042 1348.84C-396.651 1378.58 -438.077 1397.93 -488.279 1404.84C-536.34 1411.45 -582.1 1408.15 -630.621 1407.86C-797.592 1406.85 -996.705 1467.15 -1112.7 1600.64" stroke="#B4B4B4" stroke-opacity="0.08" stroke-width="2" stroke-miterlimit="10"/>
<path d="M4706.57 -2062.93C4596.06 -1752.62 4416.92 -1446.03 4168.97 -1201.47C4058.05 -1092.06 3931.32 -1014.34 3811.18 -918.062C3672.79 -807.175 3517.54 -723.12 3355.98 -649.511C3245.43 -599.094 3131.68 -553.778 3017.77 -508.809C2793.12 -420.124 2567.45 -331.672 2351.31 -250.375C2224.95 -202.841 2102.52 -156.714 1984.67 -112.276C1899.93 -80.3259 1814.63 -47.6699 1728.3 -16.5906C1605.33 27.6729 1478.84 67.4904 1347.28 116.564C1300.96 133.839 1254.36 152.297 1207.39 170.758C1008.49 248.002 782.209 288.965 594.427 359.237C545.269 377.625 498.683 397.888 455.285 421.174C283.577 513.295 130.688 645.115 5.8155 803.609C-15.6486 830.754 -36.432 858.844 -56.7692 887.654C-129.318 990.442 -196.414 1102.35 -268.195 1212.66C-310.879 1278.35 -351.995 1349.07 -410.18 1398.09C-446.275 1428.54 -488.145 1448.71 -538.425 1456.99C-586.963 1464.98 -633.428 1463.45 -682.634 1464.53C-851.873 1468.28 -1052.7 1528.45 -1172.25 1662.03" stroke="#B4B4B4" stroke-opacity="0.08" stroke-width="2" stroke-miterlimit="10"/>
<path d="M4696.35 -2051.77C4593.42 -1741.41 4418.1 -1434.18 4171.72 -1190.81C4058.98 -1079.45 3929.56 -1001.98 3808.22 -902.973C3668.91 -789.3 3512.53 -702.076 3349.45 -625.94C3237.83 -573.784 3122.84 -527.011 3007.4 -481.197C2779.79 -390.882 2550.19 -303.206 2329.31 -225.163C2200.17 -179.535 2074.72 -136.111 1953.65 -94.971C1866.4 -65.3382 1778.68 -35.386 1690.01 -7.13723C1563.57 33.1582 1433.78 68.7811 1299.13 115.736C1251.79 132.248 1204.25 150.2 1156.4 168.405C953.479 244.733 725.929 291.998 537.737 369.493C488.568 389.743 442.034 411.907 398.633 437.035C227.475 536.175 76.5543 674.673 -45.7928 838.871C-66.8111 866.975 -87.1487 896.026 -107.065 925.773C-178.1 1031.88 -243.923 1146.79 -315.807 1259.09C-358.573 1325.98 -400.431 1397.25 -459.372 1447.39C-495.955 1478.55 -538.277 1499.55 -588.625 1509.19C-637.65 1518.58 -684.803 1518.78 -734.721 1521.25C-906.235 1529.74 -1108.77 1589.79 -1231.9 1723.45" stroke="#B4B4B4" stroke-opacity="0.08" stroke-width="2" stroke-miterlimit="10"/>
<path d="M4686.16 -2040.61C4590.79 -1730.21 4419.32 -1422.32 4174.51 -1180.15C4059.96 -1066.83 3927.82 -989.621 3805.32 -887.871C3665.08 -771.413 3507.58 -681.019 3342.97 -602.355C3230.29 -548.447 3114.05 -500.231 2997.1 -453.592C2766.53 -361.638 2532.98 -274.759 2307.37 -199.958C2175.47 -156.228 2046.99 -115.519 1922.68 -77.6728C1832.95 -50.3488 1742.78 -23.122 1651.77 2.30994C1521.87 38.6179 1388.77 70.0658 1251.06 114.896C1202.71 130.641 1154.2 148.083 1105.48 166.04C898.526 241.457 669.708 294.991 481.119 379.737C431.947 401.83 385.45 425.9 342.056 452.899C171.457 559.038 22.4827 704.239 -97.325 874.136C-117.906 903.219 -137.798 933.228 -157.285 963.893C-226.807 1073.32 -291.347 1191.21 -363.343 1305.53C-406.186 1373.64 -448.785 1445.46 -508.488 1496.7C-545.559 1528.56 -588.327 1550.41 -638.764 1561.4C-688.26 1572.17 -736.124 1574.13 -786.741 1577.99C-960.529 1591.23 -1164.78 1651.14 -1291.45 1784.9" stroke="#B4B4B4" stroke-opacity="0.08" stroke-width="2" stroke-miterlimit="10"/>
<path d="M4675.95 -2029.45C4588.14 -1719.03 4420.99 -1409.99 4177.26 -1169.49C4061.12 -1053.97 3926.04 -977.257 3802.37 -872.783C3661.21 -753.538 3502.59 -659.981 3336.45 -578.783C3222.71 -523.143 3105.2 -473.479 2986.74 -425.98C2753.2 -332.383 2515.71 -246.307 2285.38 -174.766C2150.71 -132.942 2019.21 -94.9541 1891.66 -60.3822C1799.43 -35.3945 1706.83 -10.8661 1613.5 11.7574C1480.13 44.0973 1343.73 71.3509 1202.93 114.062C1153.57 129.04 1104.09 145.971 1054.49 163.687C843.519 238.187 613.418 297.995 424.437 390.007C375.267 413.956 328.789 439.924 285.425 468.769C115.365 581.898 -31.6298 733.805 -148.918 909.392C-169.053 939.434 -188.513 970.409 -207.579 1002.01C-275.588 1114.76 -338.86 1235.64 -410.959 1351.95C-453.879 1421.27 -497.233 1493.65 -557.67 1545.98C-595.22 1578.53 -638.443 1601.25 -688.959 1613.57C-738.923 1625.75 -787.514 1629.34 -838.818 1634.68C-1014.92 1652.32 -1220.83 1712.46 -1351.09 1846.3" stroke="#B4B4B4" stroke-opacity="0.08" stroke-width="2" stroke-miterlimit="10"/>
<path d="M4665.73 -2018.3C4585.5 -1707.83 4422.19 -1398.13 4180.03 -1158.82C4062.08 -1041.35 3924.3 -964.891 3799.45 -857.673C3657.35 -735.656 3497.61 -638.929 3329.96 -555.176C3215.15 -497.783 3096.38 -446.672 2976.4 -398.347C2739.92 -303.111 2498.48 -217.819 2263.41 -149.533C2125.99 -109.606 1991.44 -74.3485 1860.67 -43.0564C1765.95 -20.3913 1670.91 1.40591 1575.24 21.232C1438.41 49.5844 1298.7 72.6628 1154.83 113.249C1104.46 127.46 1054.02 143.876 1003.54 161.35C788.54 234.939 557.145 300.994 367.806 400.274C318.618 426.071 272.187 453.926 228.83 484.641C59.2903 604.752 -85.7057 763.374 -200.468 944.665C-220.166 975.686 -239.171 1007.6 -257.822 1040.13C-324.318 1156.2 -386.308 1280.05 -458.518 1398.38C-501.515 1468.92 -545.617 1541.83 -606.81 1595.28C-644.848 1628.54 -688.511 1652.13 -739.107 1665.77C-789.532 1679.36 -838.85 1684.67 -890.853 1691.4C-1069.23 1713.78 -1276.85 1773.8 -1410.68 1907.73" stroke="#B4B4B4" stroke-opacity="0.08" stroke-width="2" stroke-miterlimit="10"/>
<path d="M4655.54 -2007.13C4582.88 -1696.63 4423.39 -1386.28 4182.81 -1148.16C4063.06 -1028.72 3922.55 -952.54 3796.53 -842.584C3653.51 -717.795 3492.65 -617.885 3323.47 -531.605C3207.6 -472.473 3087.58 -419.905 2966.09 -370.74C2726.64 -273.861 2481.27 -189.371 2241.48 -124.332C2101.28 -86.3112 1963.72 -53.7942 1829.71 -25.7626C1732.49 -5.43379 1635.02 13.6652 1537.02 30.6691C1396.72 55.0256 1253.72 73.9514 1106.77 112.418C1055.37 125.868 1003.98 141.768 952.613 159C733.589 231.678 500.901 303.979 311.188 410.533C261.992 438.159 215.584 467.926 172.249 500.505C3.21848 627.571 -139.768 792.935 -251.996 979.911C-271.262 1011.9 -289.822 1044.77 -308.038 1078.23C-373.02 1197.62 -433.737 1324.47 -506.042 1444.78C-549.116 1516.53 -593.972 1590 -655.914 1644.55C-694.439 1678.52 -738.524 1702.97 -789.233 1717.94C-840.114 1732.96 -890.159 1739.99 -942.861 1748.09C-1123.53 1775.22 -1332.84 1835.11 -1470.23 1969.14" stroke="#B4B4B4" stroke-opacity="0.08" stroke-width="2" stroke-miterlimit="10"/>
<path d="M4645.32 -1995.98C4580.23 -1685.44 4424.58 -1374.44 4185.56 -1137.51C4063.99 -1016.11 3920.76 -940.187 3793.57 -827.478C3649.62 -699.918 3487.64 -596.824 3316.93 -508.016C3200 -447.132 3078.73 -393.121 2955.71 -343.125C2713.31 -244.607 2463.99 -160.902 2219.46 -99.1314C2076.5 -63.008 1935.9 -33.2342 1798.67 -8.46859C1698.97 9.51837 1599.05 25.9107 1498.72 40.1255C1354.95 60.4946 1208.65 75.2592 1058.62 111.588C1006.22 124.27 953.849 139.66 901.62 156.644C678.58 228.406 444.585 306.96 254.505 420.8C205.291 450.275 158.93 481.929 115.602 516.378C-52.9331 650.405 -193.91 822.51 -303.599 1015.18C-322.413 1048.14 -340.541 1081.98 -358.328 1116.36C-421.792 1239.09 -481.246 1368.91 -553.649 1491.22C-596.799 1564.19 -642.397 1638.21 -705.095 1693.88C-744.108 1728.55 -788.628 1753.89 -839.423 1770.17C-890.773 1786.63 -941.537 1795.34 -994.932 1804.85C-1177.88 1836.72 -1388.89 1896.5 -1529.86 2030.6" stroke="#B4B4B4" stroke-opacity="0.08" stroke-width="2" stroke-miterlimit="10"/>
<path d="M4635.13 -1984.83C4577.6 -1674.25 4425.77 -1362.59 4188.34 -1126.86C4064.96 -1003.5 3919.01 -927.851 3790.65 -812.403C3645.75 -682.065 3482.67 -575.794 3310.44 -484.458C3192.43 -421.835 3069.92 -366.368 2945.4 -315.533C2700.03 -215.371 2446.78 -132.468 2197.53 -73.9445C2051.79 -39.727 1908.18 -12.6941 1767.72 8.81114C1665.51 24.4617 1563.16 38.1367 1460.49 49.5541C1313.26 65.9219 1163.66 76.539 1010.54 110.734C957.116 122.669 903.799 137.524 850.675 154.272C623.606 225.122 388.298 309.915 197.865 431.037C148.642 462.34 102.305 495.906 59.0178 532.229C-109.036 673.221 -247.975 852.057 -355.144 1050.42C-373.527 1084.35 -391.195 1119.14 -408.575 1154.46C-470.539 1280.51 -528.698 1413.31 -601.212 1537.64C-644.426 1611.82 -690.798 1686.38 -754.238 1743.17C-793.739 1778.54 -838.689 1804.77 -889.58 1822.34C-941.38 1840.24 -992.876 1850.66 -1046.98 1861.53C-1232.21 1898.16 -1444.91 1957.8 -1589.44 2092" stroke="#B4B4B4" stroke-opacity="0.08" stroke-width="2" stroke-miterlimit="10"/>
<path d="M4624.92 -1973.66C4574.96 -1663.05 4426.96 -1350.74 4191.1 -1116.18C4065.9 -990.856 3917.23 -915.489 3787.72 -797.276C3641.88 -664.18 3477.69 -554.711 3303.94 -460.833C3184.88 -396.464 3061.09 -339.544 2935.05 -287.882C2686.74 -186.082 2429.53 -103.977 2175.55 -48.6942C2027.06 -16.3743 1880.41 7.89593 1736.7 26.16C1632.01 39.4688 1527.22 50.4319 1422.22 59.0463C1271.54 71.4073 1118.61 77.8879 962.411 109.945C907.979 121.112 853.691 135.457 799.7 151.957C568.616 221.892 331.975 312.914 141.194 441.332C91.9544 474.484 45.6357 509.947 2.38395 548.129C-165.199 696.059 -302.09 881.654 -406.734 1085.72C-424.679 1120.63 -441.907 1156.36 -458.852 1192.62C-519.303 1321.99 -576.193 1457.78 -648.811 1584.1C-692.102 1659.49 -739.215 1734.61 -803.417 1792.49C-843.397 1828.56 -888.772 1855.69 -939.781 1874.57C-992.018 1893.91 -1044.27 1906.02 -1099.04 1918.29C-1286.57 1959.67 -1500.97 2019.19 -1649.07 2153.46" stroke="#B4B4B4" stroke-opacity="0.08" stroke-width="2" stroke-miterlimit="10"/>
<path d="M4614.71 -1962.5C4572.32 -1651.86 4428.16 -1338.88 4193.87 -1105.52C4066.88 -978.238 3915.47 -903.144 3784.79 -782.192C3638 -646.332 3472.72 -533.678 3297.43 -437.267C3177.31 -371.159 3052.26 -312.796 2924.71 -260.275C2673.43 -156.831 2412.3 -75.5211 2153.58 -23.5072C2002.31 6.90683 1852.65 28.4226 1705.71 43.44C1598.53 54.3931 1491.29 62.6634 1383.97 68.4887C1229.82 76.8485 1073.6 79.1956 914.316 109.1C858.866 119.52 803.62 133.349 748.748 149.607C513.635 218.631 275.671 315.864 84.5615 451.586C35.2986 486.572 -10.9879 523.928 -54.2127 563.989C-221.339 718.862 -356.168 911.21 -458.272 1120.98C-475.771 1156.84 -492.568 1193.54 -509.078 1230.73C-568.015 1363.42 -623.638 1502.19 -696.353 1630.52C-739.721 1707.13 -787.59 1782.81 -852.54 1841.79C-893.007 1878.56 -938.792 1906.59 -989.911 1926.77C-1042.59 1947.57 -1095.58 1961.36 -1151.06 1975C-1340.86 2021.12 -1556.98 2080.51 -1708.63 2214.88" stroke="#B4B4B4" stroke-opacity="0.08" stroke-width="2" stroke-miterlimit="10"/>
<path d="M4604.51 -1951.35C4569.7 -1640.66 4429.36 -1327.05 4196.63 -1094.87C4067.82 -965.632 3913.45 -891.07 3781.85 -767.112C3633.86 -628.77 3467.73 -512.656 3290.92 -413.703C3169.73 -345.843 3043.43 -286.038 2914.37 -232.691C2660.14 -127.609 2395.06 -47.0959 2131.61 1.67689C1977.58 30.1933 1824.9 48.9407 1674.72 60.717C1565.05 69.3144 1455.38 74.8867 1345.71 77.909C1188.11 82.262 1028.63 80.7989 866.21 108.239C809.761 117.999 753.547 131.205 697.794 147.221C458.665 215.328 219.355 318.797 27.9174 461.823C-21.3682 498.643 -67.6166 537.905 -110.82 579.831C-277.49 741.648 -410.27 940.754 -509.841 1156.21C-526.908 1193.03 -543.239 1230.71 -559.348 1268.82C-616.772 1404.83 -671.107 1546.6 -743.939 1676.93C-787.384 1754.75 -836 1830.97 -901.706 1891.07C-942.661 1928.54 -988.857 1957.47 -1040.09 1978.94C-1093.21 2001.2 -1146.94 2016.68 -1203.12 2031.7C-1395.21 2082.58 -1613.01 2141.83 -1768.24 2276.3" stroke="#B4B4B4" stroke-opacity="0.08" stroke-width="2" stroke-miterlimit="10"/>
<path d="M4594.3 -1940.18C4567.05 -1629.46 4430.56 -1315.19 4199.4 -1084.2C4068.78 -952.995 3911.7 -878.685 3778.93 -752.001C3630.01 -610.874 3462.76 -491.59 3284.43 -390.11C3162.17 -320.512 3034.62 -259.249 2904.04 -205.057C2646.84 -98.3314 2377.83 -18.6077 2109.65 26.9046C1952.85 53.5151 1797.16 69.5025 1643.74 78.0377C1531.58 84.2794 1419.47 86.9463 1307.47 87.3784C1146.41 87.4373 983.598 82.0975 818.122 107.421C760.664 116.414 703.478 129.11 646.844 144.884C403.687 212.08 163.039 321.765 -28.7273 472.095C-78.0357 510.749 -124.266 551.91 -167.409 595.717C-333.641 764.469 -464.34 970.337 -561.385 1191.49C-578.015 1229.3 -593.906 1267.92 -609.58 1306.96C-665.491 1446.3 -718.558 1591.05 -791.493 1723.37C-835.014 1802.41 -884.372 1879.18 -950.84 1940.38C-992.282 1978.56 -1038.89 2008.39 -1090.25 2031.15C-1143.8 2054.87 -1198.29 2072.02 -1255.16 2088.43C-1449.52 2144.06 -1669.04 2203.18 -1827.84 2337.74" stroke="#B4B4B4" stroke-opacity="0.08" stroke-width="2" stroke-miterlimit="10"/>
<path d="M4584.11 -1929.03C4564.42 -1618.28 4431.77 -1303.34 4202.19 -1073.54C4069.75 -940.38 3909.96 -866.32 3776.01 -736.912C3626.18 -592.986 3457.79 -470.546 3277.94 -366.524C3154.63 -295.179 3025.81 -232.463 2893.72 -177.445C2633.55 -69.0756 2360.6 9.84499 2087.69 52.1161C1928.14 76.8291 1769.42 90.0344 1612.74 95.3478C1498.11 99.2284 1383.56 99.2165 1269.21 96.8512C1104.69 92.9227 938.568 83.4076 770.008 106.612C711.526 114.843 653.382 127.024 595.881 142.55C348.709 208.83 106.69 324.729 -85.3858 482.37C-134.717 522.859 -180.928 565.918 -224.031 611.598C-389.84 787.29 -518.443 999.915 -612.968 1226.76C-629.152 1265.53 -644.612 1305.11 -659.85 1345.08C-714.248 1487.74 -766.047 1635.48 -839.066 1769.81C-882.665 1850.06 -932.777 1927.38 -999.993 1989.69C-1041.92 2028.57 -1088.93 2059.32 -1140.41 2083.35C-1194.38 2108.55 -1249.63 2127.36 -1307.21 2145.15C-1503.86 2205.53 -1725.06 2264.52 -1887.43 2399.17" stroke="#B4B4B4" stroke-opacity="0.08" stroke-width="2" stroke-miterlimit="10"/>
<path d="M4573.89 -1917.88C4561.78 -1607.08 4432.95 -1291.51 4204.93 -1062.89C4070.69 -927.754 3908.18 -853.959 3773.06 -721.813C3622.31 -575.101 3452.79 -449.492 3271.42 -342.942C3147.05 -269.844 3016.97 -205.686 2883.37 -149.828C2620.26 -39.8204 2343.36 38.3027 2065.72 77.3134C1903.39 100.12 1741.67 110.566 1581.75 112.638C1464.63 114.163 1347.65 111.48 1230.96 106.285C1063 98.3768 893.534 84.6839 721.922 105.772C662.43 113.236 603.315 124.906 544.933 140.191C293.732 205.56 50.3617 327.68 -142.015 492.615C-191.383 534.944 -237.562 579.894 -280.624 627.448C-446.014 810.067 -572.517 1029.46 -664.516 1262.01C-680.263 1301.76 -695.268 1342.28 -710.086 1383.19C-762.965 1529.18 -813.488 1679.89 -886.619 1816.23C-930.294 1897.7 -981.153 1975.56 -1049.13 2038.98C-1091.53 2078.55 -1138.94 2110.24 -1190.55 2135.54C-1244.95 2162.21 -1300.96 2182.69 -1359.23 2201.87C-1558.17 2267 -1781.07 2325.87 -1947.01 2460.59" stroke="#B4B4B4" stroke-opacity="0.08" stroke-width="2" stroke-miterlimit="10"/>
<path d="M4563.69 -1906.71C4559.14 -1595.87 4434.15 -1279.64 4207.71 -1052.22C4071.65 -915.131 3906.43 -841.587 3770.14 -706.716C3618.46 -557.218 3447.82 -428.439 3264.91 -319.356C3139.47 -244.52 3008.14 -178.906 2873.02 -122.202C2606.94 -10.5645 2326.11 66.7834 2043.74 102.539C1878.65 123.449 1713.91 130.852 1550.75 129.97C1431.15 128.941 1311.73 123.773 1192.69 115.766C1021.28 103.884 848.489 85.989 673.797 104.972C613.282 111.674 553.223 122.823 493.961 137.866C238.744 202.318 -6.30844 330.312 -198.677 502.913C-248.153 546.982 -294.228 593.925 -337.249 643.352C-502.23 832.917 -626.638 1059.07 -716.09 1297.3C-731.404 1338.01 -745.958 1379.5 -760.361 1421.34C-811.726 1570.65 -860.981 1724.34 -934.215 1862.68C-977.972 1945.35 -1029.58 2023.78 -1098.3 2088.3C-1141.2 2128.58 -1188.99 2161.17 -1240.75 2187.76C-1295.55 2215.92 -1352.34 2238.05 -1411.31 2258.62C-1612.52 2328.5 -1837.13 2387.23 -2006.63 2522.05" stroke="#B4B4B4" stroke-opacity="0.08" stroke-width="2" stroke-miterlimit="10"/>
<path d="M4553.49 -1895.55C4556.5 -1584.69 4435.34 -1267.79 4210.48 -1041.56C4072.62 -902.513 3904.68 -829.214 3767.22 -691.619C3614.61 -539.335 3442.84 -407.401 3258.41 -295.776C3131.9 -219.188 2999.33 -152.131 2862.68 -94.5961C2593.65 18.6801 2308.87 95.2306 2021.76 127.745C1853.91 146.743 1686.17 151.434 1519.75 147.269C1397.67 143.912 1275.81 136.032 1154.44 125.222C979.589 109.361 803.455 87.2881 625.692 104.146C564.162 110.068 503.137 120.72 443.007 135.515C183.762 199.057 -62.6011 333.336 -255.326 513.172C-304.814 559.103 -350.975 607.841 -393.848 659.21C-558.824 855.387 -680.717 1088.62 -767.643 1332.56C-782.507 1374.24 -796.634 1416.69 -810.607 1459.44C-860.46 1612.07 -908.428 1768.76 -981.778 1909.09C-1025.61 1992.98 -1077.96 2071.96 -1147.45 2137.58C-1190.83 2178.57 -1239.01 2212.09 -1290.91 2239.94C-1346.11 2269.57 -1403.69 2293.36 -1463.34 2315.3C-1666.84 2389.93 -1893.15 2448.53 -2066.21 2583.45" stroke="#B4B4B4" stroke-opacity="0.08" stroke-width="2" stroke-miterlimit="10"/>
<path d="M4543.28 -1884.4C4553.87 -1573.48 4436.53 -1255.95 4213.24 -1030.91C4073.57 -889.904 3902.92 -816.857 3764.27 -676.531C3610.74 -521.448 3437.85 -386.363 3251.89 -272.206C3124.32 -193.884 2990.47 -125.373 2852.33 -66.9906C2580.34 47.9294 2291.62 123.677 1999.79 152.931C1829.17 170.037 1658.42 172 1488.76 164.548C1364.21 158.876 1239.89 148.29 1116.17 134.649C937.871 114.815 758.421 88.553 577.588 103.286C515.034 108.446 453.051 118.583 392.041 133.136C128.78 195.761 -118.901 336.345 -311.987 523.402C-361.492 571.181 -407.629 621.831 -450.467 675.06C-614.929 878.285 -734.823 1118.15 -819.224 1367.79C-833.656 1410.44 -847.324 1453.84 -860.876 1497.53C-909.215 1653.49 -955.914 1813.16 -1029.36 1955.5C-1073.27 2040.6 -1126.39 2120.13 -1196.61 2186.86C-1240.48 2228.56 -1289.04 2262.99 -1341.08 2292.11C-1396.68 2323.23 -1455.04 2348.68 -1515.4 2372C-1721.18 2451.37 -1949.17 2509.86 -2125.81 2644.85" stroke="#B4B4B4" stroke-opacity="0.08" stroke-width="2" stroke-miterlimit="10"/>
<path d="M4533.08 -1873.23C4551.24 -1562.29 4437.74 -1244.09 4216.01 -1020.23C4074.53 -877.256 3901.16 -804.474 3761.34 -661.424C3606.89 -503.555 3432.88 -365.301 3245.39 -248.601C3116.76 -168.528 2981.66 -98.5746 2842 -39.3602C2567.05 77.1981 2274.4 152.156 1977.82 178.161C1804.44 193.356 1630.67 192.612 1457.75 181.877C1330.72 173.877 1203.96 160.579 1077.89 144.127C896.151 120.313 713.352 89.8596 529.454 102.482C465.89 106.875 402.955 116.51 341.059 130.807C73.7687 192.521 -175.217 339.404 -368.659 533.696C-418.176 583.337 -464.275 635.894 -507.103 690.959C-671.064 901.238 -788.94 1147.75 -870.815 1403.09C-884.815 1446.7 -898.037 1491.06 -911.154 1535.69C-957.98 1694.96 -1003.41 1857.62 -1076.96 2001.96C-1120.95 2088.28 -1174.8 2168.35 -1245.79 2236.19C-1290.15 2278.59 -1339.02 2314.04 -1391.28 2344.35C-1447.23 2377.06 -1506.43 2404.04 -1567.48 2428.76C-1775.55 2512.88 -2005.25 2571.25 -2185.45 2706.33" stroke="#B4B4B4" stroke-opacity="0.08" stroke-width="2" stroke-miterlimit="10"/>
<path d="M4522.87 -1862.08C4548.6 -1551.1 4438.92 -1232.25 4218.78 -1009.58C4075.48 -864.648 3899.41 -792.122 3758.41 -646.328C3603.03 -485.673 3427.9 -344.25 3238.89 -225.023C2853.89 17.8383 2410.22 169.052 1955.85 203.36C1650.21 226.436 1342.76 199.042 1039.65 153.562C854.451 125.775 668.337 91.1322 481.367 101.63C137.641 120.933 -186.641 295.802 -425.29 543.928C-663.939 792.054 -822.239 1108.93 -922.351 1438.32C-1013.21 1737.24 -1069.66 2068.98 -1294.91 2285.46C-1552.52 2533.05 -1957.19 2556.01 -2245.01 2767.72" stroke="#B4B4B4" stroke-opacity="0.08" stroke-width="2" stroke-miterlimit="10"/>
</svg>
