<svg width="167" height="167" viewBox="0 0 167 167" fill="none" xmlns="http://www.w3.org/2000/svg">
<g clip-path="url(#clip0_2195_20)">
<path d="M136.347 42.1277L106.237 66.6185C101.247 70.8121 96.2982 74.796 91.4336 78.9477C89.0013 81.0445 86.59 83.1414 84.2206 85.2382L83.1512 86.1608L82.2705 86.9366C81.8297 87.3304 81.4357 87.7736 81.0963 88.2576C80.9496 88.4882 80.7818 88.8028 80.9496 89.0334C81.1173 89.2641 81.4947 89.1592 81.7463 89.1802C82.9206 89.1802 83.9899 88.9915 85.1222 88.9915L101.1 87.6915C106.657 87.2721 112.255 86.8108 117.874 86.6011C120.684 86.6011 123.515 86.4753 126.262 86.4543H130.455H132.552C133.554 86.4521 134.554 86.5011 135.551 86.6011L137.207 86.7898C137.731 86.7898 138.193 87.0624 138.696 87.1882C139.686 87.4355 140.697 87.5899 141.715 87.6495C143.607 87.8629 145.483 88.192 147.335 88.635C148.888 89.0103 150.379 89.6107 151.759 90.4173C153.043 91.1406 154.113 92.1893 154.862 93.4577C154.862 93.6254 155.009 93.8351 155.093 94.0238C155.177 94.2125 155.093 94.4432 155.093 94.6319C155.145 95.0005 155.145 95.3746 155.093 95.7432C154.965 96.366 154.746 96.9665 154.443 97.5255C153.81 98.75 152.989 99.8678 152.011 100.838C149.099 103.516 145.824 105.768 142.281 107.527L139.43 109.079L137.186 110.253L133.475 112.14L126.45 115.977C119.929 119.332 113.513 122.792 107.223 126.545C105.671 127.489 104.14 128.454 102.652 129.439L100.555 130.949L99.5693 131.641L98.9822 132.081C97.5911 133.044 96.4015 134.269 95.4805 135.688C95.3658 135.913 95.2812 136.153 95.2289 136.4C95.2289 136.694 95.4595 136.904 95.7111 136.988C96.2385 137.127 96.7803 137.205 97.3257 137.218C98.437 137.218 99.4225 137.218 100.492 137.218H102.756H106.279C108.648 137.218 111.039 137.218 113.45 137.218C118.364 137.194 123.272 137.558 128.128 138.309C133.341 138.895 138.308 140.84 142.533 143.949C145.238 146.235 145.51 148.143 144.881 148.373C144.252 148.604 142.575 147.975 140.143 147.576C135.236 146.696 127.184 147.388 116.763 147.388C112.423 147.388 108.019 147.535 103.49 147.702L98.416 147.87C96.1515 147.87 93.845 147.87 91.7062 147.87C89.8115 147.815 87.9398 147.439 86.1706 146.759C84.9328 146.256 83.8329 145.466 82.9625 144.452C82.5373 143.963 82.1778 143.42 81.8931 142.838C81.5783 142.171 81.3527 141.466 81.2221 140.741C80.9843 139.325 81.1515 137.872 81.7044 136.547C83.0696 132.941 85.3624 129.758 88.3513 127.321C89.9868 125.895 91.874 124.512 93.4885 123.358L95.1031 122.247L96.6337 121.261C98.7306 119.982 100.681 118.766 102.694 117.592C110.724 113.042 118.944 108.848 127.059 104.843C129.155 103.837 131.063 102.747 133.055 101.74C134.439 101.006 134.02 101.258 134.314 101.132L134.838 100.943C135.194 100.797 135.614 100.629 136.096 100.377C136.351 100.257 136.596 100.117 136.83 99.9578C137.06 99.7901 137.333 99.5385 137.27 99.2868C137.085 98.9269 136.758 98.6608 136.368 98.553C135.694 98.3022 134.989 98.147 134.272 98.0917H133.663H131.986L127.792 98.2384C122.068 98.532 116.239 99.0772 110.368 99.4755C104.497 99.8739 98.5838 100.503 92.6498 101.048L81.8931 101.992C79.5192 102.252 77.1287 102.33 74.743 102.222C72.637 102.33 70.5256 102.19 68.4525 101.803C66.8877 101.472 65.4004 100.846 64.0702 99.9578C63.7776 99.7597 63.5039 99.5351 63.2524 99.2868C63.0717 99.1456 62.9337 98.9568 62.854 98.7417C62.8381 98.694 62.8381 98.6425 62.854 98.5949C62.854 98.5949 63.1476 98.4271 63.0008 98.5949L62.7702 98.3013C62.4084 97.5078 62.2707 96.6304 62.3718 95.7642C62.5503 94.1112 63.0488 92.5088 63.8395 91.0463C64.9219 89.051 66.2769 87.2162 67.8654 85.5946C69.5848 83.7075 71.5349 81.8623 73.443 80.0381L76.2946 77.3541L78.1398 75.6977C80.628 73.3353 83.1163 71.1056 85.6045 69.0088C95.5853 60.4958 105.692 52.2343 115.736 43.9938C121.921 38.9195 128.107 33.8243 134.209 28.6871C137.186 26.087 140.199 23.452 143.246 20.7821L145.699 18.6853C146.454 17.9933 147.23 17.2804 147.985 16.5884L149.494 15.0787C149.977 14.5126 150.522 13.9255 150.962 13.2964C151.191 12.9704 151.381 12.6185 151.528 12.248C151.696 11.8077 151.172 11.619 150.857 11.5351C149.383 11.3258 147.886 11.3258 146.412 11.5351C144.902 11.6819 143.372 11.9125 141.841 12.2061L139.325 12.6884L135.131 13.59C124.13 16.1745 113.291 19.4092 102.673 23.2773C85.5518 29.6069 69.102 37.6212 53.5652 47.2019C50.1683 49.2988 46.9602 51.5214 43.5843 53.6601L35.7213 58.6925C34.7242 59.3122 33.6954 59.8791 32.6389 60.3909C31.7839 60.8621 30.9017 61.2822 29.9969 61.649C27.5918 62.7084 25.011 63.3127 22.3855 63.4313C21.4804 63.53 20.57 63.5721 19.6597 63.5571C18.5274 63.3684 18.9048 62.0055 20.3935 59.3635C22.6812 55.5053 25.545 52.0193 28.8856 49.0262C32.1567 46.2584 35.5745 43.5954 39.0762 41.0583C42.5778 38.5211 46.2473 36.1727 49.9796 33.8872C57.5111 29.3441 65.2805 25.2074 73.2542 21.495C89.4777 13.9401 106.313 7.7744 123.578 3.06399C127.142 2.09946 130.728 1.19782 134.376 0.359099L137.165 -0.269946C138.926 -0.605436 140.688 -1.00383 142.428 -1.31835C145.93 -1.98933 149.39 -2.49257 152.703 -2.82806C155.59 -3.18201 158.512 -3.12553 161.383 -2.66031C163.304 -2.28671 165.099 -1.43583 166.604 -0.186073C167.25 0.37263 167.828 1.00612 168.324 1.70106C168.632 2.16971 168.905 2.66027 169.142 3.16883C170.04 5.07332 170.241 7.23323 169.708 9.27056C169.249 11.1619 168.407 12.939 167.233 14.4916C165.646 16.657 163.879 18.6842 161.95 20.5514C159.853 22.6482 157.756 24.6192 155.491 26.6112L152.011 29.4C152.011 29.4 151.801 29.4 151.78 29.4L151.633 29.5258L151.424 29.7145L151.004 30.0919L150.165 30.8258C145.678 34.7678 141.17 38.584 136.662 42.3793L136.347 42.1277Z" fill="#FAE1DD"/>
</g>
<defs>
<clipPath id="clip0_2195_20">
<rect width="167" height="167" fill="white"/>
</clipPath>
</defs>
</svg>
