<svg width="167" height="167" viewBox="0 0 167 167" fill="none" xmlns="http://www.w3.org/2000/svg">
<g clip-path="url(#clip0_2195_153)">
<path d="M75.2946 56.8727C71.4927 63.0558 67.7308 69.279 64.089 75.6022C62.7483 77.9033 61.6678 80.3245 60.3271 82.6057L53.2435 94.6117C51.0024 98.6137 48.8413 102.736 46.7002 106.918C44.8193 110.64 43.1585 114.502 41.3375 118.284C40.2527 120.773 38.9887 123.181 37.5556 125.487C36.076 127.786 34.3952 129.949 32.5331 131.951C31.3525 133.171 30.6722 132.411 30.5321 130.59C30.3045 128.052 30.6183 125.494 31.4526 123.086C31.9528 121.885 32.313 120.605 32.8733 119.424L34.4741 115.842L37.6157 108.539C39.6735 103.456 42.0666 98.5164 44.7793 93.7513C46.4601 90.8298 48.1009 87.7483 49.5817 84.8668C51.0624 81.9854 52.5632 78.8638 54.144 75.8823C57.6257 69.399 61.2075 62.9758 64.8494 56.5526L71.6528 44.7466C75.1545 38.7436 78.8364 32.9807 82.2181 27.0577C83.5388 24.7566 84.7394 22.4154 85.92 20.0542C87.1006 17.693 88.2611 15.3518 89.6418 13.1107C90.2421 12.1302 90.7424 11.1097 91.3827 10.1292C92.163 8.778 93.1956 7.58922 94.4242 6.62745C95.2791 6.08247 96.3089 5.88223 97.3057 6.06717C97.7763 6.09413 98.2443 6.15431 98.7064 6.24726C99.4068 6.44736 99.7669 7.08768 99.867 8.08819C99.9605 9.39308 99.7481 10.7018 99.2467 11.9101C97.6474 16.4396 95.7352 20.8525 93.5238 25.1168C91.2226 29.479 88.8014 33.7211 86.4202 38.0032C82.8384 44.3264 79.2366 50.6896 75.4947 56.9728L75.2946 56.8727Z" fill="#F1F8B5"/>
<path d="M97.1241 74.2816L86.4988 91.8704C85.2182 94.0115 84.1576 96.2726 82.857 98.4137C78.3147 106.138 73.5323 113.621 68.8499 121.145C66.8489 124.467 64.968 127.989 63.027 131.35C60.7717 135.818 58.155 140.095 55.2031 144.137C54.2226 145.377 52.9819 144.477 52.2416 142.556C51.3074 140.125 51.3576 137.426 52.3816 135.032C53.4422 132.711 54.5427 130.41 55.6633 128.109C56.2436 126.968 56.8039 125.808 57.4042 124.687L59.4052 121.385C62.0065 117.01 64.7545 112.694 67.6493 108.439C69.3642 105.864 70.9277 103.191 72.3317 100.435L74.3327 96.2526C75.053 94.8519 75.7934 93.4512 76.5738 92.0705C79.9755 86.0675 83.3972 80.0645 86.899 74.0615L93.3222 62.9759C96.5238 57.3531 99.7054 51.7102 102.787 46.0674C103.968 43.8663 105.028 41.6251 106.109 39.364C107.144 37.0868 108.293 34.8629 109.55 32.7007C110.111 31.7602 110.591 30.7997 111.191 29.8792C113.452 26.4775 114.713 25.7572 116.954 26.2174C117.469 26.2795 117.978 26.3866 118.475 26.5376C120.036 27.0978 120.276 29.2389 119.215 32.0603C117.686 36.2604 115.901 40.3634 113.873 44.3465C111.872 48.3485 109.59 52.3505 107.389 56.3526C104.148 62.3556 100.666 68.3586 97.3843 74.3616L97.1241 74.2816Z" fill="#F1F8B5"/>
<path d="M127.901 79.7441L118.496 96.4526C117.335 98.4536 116.495 100.655 115.214 102.656C111.012 109.819 106.21 116.423 101.947 123.406C99.9465 126.488 98.3657 129.709 96.7649 132.891C94.7825 137.068 92.4742 141.082 89.8614 144.897C89.001 146.078 87.8604 145.377 87.2201 143.676C86.2932 141.453 86.1729 138.976 86.8799 136.673C87.6803 134.412 88.4607 132.151 89.3812 129.949C90.3016 127.748 91.3822 125.647 92.5227 123.546C94.6947 119.312 97.0927 115.197 99.7064 111.22C102.828 106.398 105.269 101.055 108.011 95.9923C111.052 90.4295 114.06 84.82 117.035 79.1639L122.518 68.6786L130.862 52.6705C132.983 48.5485 134.644 44.2463 136.685 40.1042C137.145 39.1837 137.585 38.3033 138.106 37.4229C140.107 34.2413 141.427 33.5809 143.769 34.1012C144.296 34.1882 144.817 34.3085 145.329 34.4614C146.97 35.0617 147.33 37.1427 146.65 39.8241C145.551 43.833 144.132 47.7475 142.408 51.53C140.747 55.3719 139.046 59.2138 137.025 62.9357L128.141 79.7441H127.901Z" fill="#F1F8B5"/>
<path d="M133.663 109.419L126.819 119.304C125.979 120.505 125.359 121.826 124.518 123.006C121.577 127.248 118.515 131.47 115.914 135.853C114.739 137.798 113.664 139.801 112.692 141.856C111.633 144.564 110.292 147.152 108.69 149.58C108.13 150.3 107.009 149.58 106.169 148.379C105.19 147.059 104.872 145.361 105.309 143.777C107.597 138.156 110.467 132.791 113.873 127.769C115.874 124.787 117.475 121.305 119.316 118.104C121.317 114.582 123.558 111.18 125.779 107.778L129.781 101.495C131.782 98.3137 133.963 95.1921 135.784 91.9105C137.205 89.3692 138.225 86.6478 139.446 84.0465C139.726 83.4662 139.926 82.8459 140.226 82.2857C141.367 80.2846 142.227 79.8444 144.228 80.5048C144.698 80.628 145.159 80.7817 145.609 80.965C147.093 81.6242 147.805 83.3279 147.23 84.8469C146.488 87.4168 145.517 89.9147 144.328 92.3107C143.108 94.6919 141.707 97.0131 140.326 99.3142C138.205 102.756 135.924 106.078 133.743 109.479L133.663 109.419Z" fill="#F1F8B5"/>
<path d="M93.1436 40.4245L113.334 50.7697C115.775 52.0103 118.336 53.0308 120.758 54.3114L133.604 61.1549C135.605 62.2955 137.946 63.4761 140.047 64.6967L146.35 68.4786C150.046 70.7464 153.781 72.8074 157.556 74.6617C159.957 75.8623 162.459 76.8228 164.84 78.0434L172.103 81.7452C173.604 82.5256 173.124 83.4061 171.383 84.0864C168.817 85.0106 166.04 85.1841 163.379 84.5867C161.955 84.2553 160.552 83.841 159.177 83.3461C157.816 82.8258 156.496 82.2455 155.175 81.6652C152.534 80.5046 149.972 79.224 147.471 77.9233C142.488 75.282 137.686 72.7007 132.944 69.9193C127.161 66.5176 120.577 63.9163 114.394 60.9748L93.864 50.9898C89.6619 48.9888 85.4464 47.0278 81.2176 45.1068C74.8144 42.1653 68.4112 39.1038 61.8679 36.7026C59.3266 35.7221 56.7853 34.9417 54.184 34.1613L50.3221 33.0608L46.5202 31.8201C45.3996 31.4399 44.279 31.1398 43.1585 30.6996C41.6471 30.2335 40.2309 29.5017 38.9764 28.5385C38.2447 27.8191 37.7971 26.86 37.7157 25.8371C37.6201 25.3687 37.5599 24.8938 37.5357 24.4164C37.5357 23.676 38.0959 23.1958 39.0564 22.8756C40.3519 22.4762 41.7244 22.3939 43.0584 22.6355C48.0563 23.221 52.9917 24.2523 57.8059 25.7171C62.6283 27.2378 67.4507 29.0187 72.2331 30.9197C79.3167 33.7611 86.3602 36.8026 93.2237 40.1443L93.1436 40.4245Z" fill="#F1F8B5"/>
<path d="M73.8134 58.7136L94.3638 68.8587C96.865 70.0993 99.4663 71.0998 101.968 72.3404L128.161 85.6071C132.023 87.6081 136.045 89.2489 139.927 91.0699C145.069 93.1646 150.052 95.6324 154.834 98.4536C156.295 99.4141 155.515 100.635 153.594 101.395C151.008 102.336 148.175 102.336 145.59 101.395L137.586 98.3135C136.265 97.7932 134.944 97.273 133.584 96.6927L129.742 94.8718C124.619 92.4305 119.556 89.7892 114.574 87.0278C108.571 83.7662 101.968 81.2849 95.6644 78.4035C88.7409 75.2019 81.8175 71.9803 74.914 68.6786L68.6308 65.7371C66.5098 64.7966 64.3687 63.8762 62.2076 62.9957C55.6443 60.3144 49.0009 57.633 42.2976 55.4319C39.6963 54.5915 37.0549 53.8912 34.4336 53.2508C31.8123 52.6105 29.171 52.0302 26.5697 51.2498C25.4291 50.9497 24.2885 50.7095 23.1479 50.3894C18.9458 49.1288 17.7852 48.2683 17.305 46.0872C17.1686 45.6017 17.0682 45.1068 17.0048 44.6065C16.8848 43.0457 19.0058 42.1252 22.4476 42.4254C32.6327 43.0857 42.4576 46.4274 52.2626 49.8491C59.5262 52.4904 66.7499 55.3519 73.8935 58.5735L73.8134 58.7136Z" fill="#F1F8B5"/>
<path d="M70.793 93.3113C76.6159 96.4729 82.3988 99.6344 88.2418 102.676C90.3829 103.797 92.624 104.677 94.745 105.758L105.951 111.54C109.713 113.421 113.555 115.222 117.436 116.983C120.878 118.524 124.44 119.885 127.942 121.285C132.538 122.922 136.925 125.098 141.008 127.769C142.269 128.669 141.569 129.57 139.888 130.11C137.622 130.781 135.21 130.781 132.944 130.11L126.021 128.069L119.177 125.527C114.615 123.787 110.053 121.926 105.55 119.725C102.849 118.384 100.008 117.283 97.1663 116.023C94.3248 114.762 91.5234 113.601 88.8021 112.281C82.799 109.359 76.796 106.278 70.9331 103.236C67.2712 101.375 63.6494 99.4744 59.9876 97.6735C54.4248 94.9321 48.7819 92.1507 43.1991 89.7495C38.8169 87.9085 34.2946 86.6479 29.8324 85.2272C28.8319 84.927 27.8314 84.6269 26.9109 84.2467C23.3291 82.786 22.3886 81.8055 22.2886 79.6244C22.2492 79.1316 22.2492 78.6364 22.2886 78.1436C22.4287 76.6029 24.2896 75.9225 27.3111 76.2827C29.5111 76.536 31.6955 76.91 33.8544 77.4033C35.9955 77.9435 38.1566 78.5438 40.2776 79.2242C44.5986 80.5639 48.8238 82.1951 52.924 84.1066C59.0471 86.888 64.93 90.0096 70.9331 93.0311L70.793 93.3113Z" fill="#F1F8B5"/>
<path d="M77.615 118.624C81.3769 120.445 85.1788 122.206 88.9207 124.127C90.2813 124.807 91.7221 125.307 93.0828 126.028L107.33 133.772C109.451 134.892 111.612 135.893 113.793 136.833C116.618 137.904 119.305 139.308 121.797 141.015C122.558 141.615 121.797 142.716 120.577 143.536C119.183 144.511 117.413 144.777 115.794 144.257C110.081 141.944 104.52 139.271 99.1458 136.253C95.7946 134.544 92.3394 133.047 88.8006 131.771C84.9587 130.17 81.1768 128.409 77.3548 126.708C74.9937 125.667 72.6525 124.707 70.2713 123.626C66.6695 122.126 63.0877 120.525 59.4258 119.284C56.5844 118.304 53.6229 117.763 50.7815 117.043C50.1412 116.883 49.5008 116.783 48.7805 116.583C46.4393 115.843 45.899 115.062 46.1391 112.941C46.1617 112.458 46.2151 111.977 46.2992 111.5C46.6865 109.888 48.273 108.866 49.901 109.179C52.654 109.464 55.3783 109.98 58.0451 110.72C60.7265 111.52 63.3678 112.481 66.0492 113.501C70.0512 115.042 73.8131 116.763 77.695 118.444L77.615 118.624Z" fill="#F1F8B5"/>
<path d="M38.5765 69.2991C40.9777 65.4572 43.3589 61.6152 45.6601 57.7333C46.5005 56.3126 47.1608 54.7918 48.0012 53.3911C50.9427 48.3886 54.0043 43.3861 56.8057 38.3635C58.0153 36.0978 59.0975 33.7664 60.0473 31.38C61.0916 28.2708 62.4317 25.2688 64.0493 22.4155C65.1899 20.6546 69.2319 25.0368 67.9513 28.7187C65.6108 35.1541 62.5852 41.3193 58.9267 47.1079C56.7456 50.5897 54.9247 54.4716 52.9237 58.1335C50.6626 62.1355 48.3014 66.1375 45.9402 69.9794L41.598 77.2231C39.4369 80.9049 37.1758 84.5268 35.2148 88.2687C33.694 91.1701 32.5535 94.2717 31.2128 97.2131C30.9327 97.8735 30.7125 98.5338 30.3924 99.2141C29.2318 101.615 28.3914 102.136 26.5304 101.775C26.0988 101.705 25.6713 101.612 25.2498 101.495C23.8691 101.055 23.3488 99.4943 23.9091 97.6133C25.8152 91.8493 28.3377 86.3078 31.4329 81.085C33.654 77.083 36.0352 73.1811 38.3364 69.2391L38.5765 69.2991Z" fill="#F1F8B5"/>
</g>
<defs>
<clipPath id="clip0_2195_153">
<rect width="167" height="167" fill="white"/>
</clipPath>
</defs>
</svg>
