<svg width="167" height="167" viewBox="0 0 167 167" fill="none" xmlns="http://www.w3.org/2000/svg">
<g clip-path="url(#clip0_2388_2545)">
<path d="M67.4553 143.914C68.7526 142.33 70.4393 141.11 72.35 140.374C73.0729 140.034 73.8546 139.837 74.6522 139.794C77.1064 139.951 79.3399 141.265 80.669 143.334C81.1333 144.05 81.5783 144.63 82.0039 145.269C82.6043 145.903 83.0133 146.695 83.1841 147.552C83.1841 147.842 82.565 148.345 81.7331 148.693C80.9012 149.041 79.7984 149.273 79.4502 148.964C78.3983 148.304 77.447 147.496 76.6256 146.565C76.4128 146.101 75.8904 146.565 75.755 146.7C75.2663 146.738 74.8099 146.959 74.4781 147.319C73.5083 148.278 72.9468 149.574 72.911 150.937C72.971 151.31 73.1095 151.666 73.3173 151.982C73.4527 152.272 73.6655 152.504 73.7623 152.717C73.859 152.93 73.9557 152.872 73.9557 152.969C73.3023 153.61 72.5431 154.134 71.7115 154.516L70.8216 155.077C69.8914 155.71 68.7035 155.827 67.6681 155.387C66.9519 155.115 66.3324 154.637 65.8882 154.013C65.47 153.481 65.113 152.904 64.8241 152.292C64.5236 151.117 64.5236 149.886 64.8241 148.712C65.3036 146.976 66.1114 145.347 67.2037 143.914L67.4553 143.914Z" fill="#9EA1D4"/>
<path d="M113.48 10.2679C114.593 9.95102 115.733 9.7373 116.885 9.6295C117.465 9.6295 118.046 9.6295 118.626 9.6295C119.198 9.60406 119.771 9.65612 120.329 9.78427C121.181 9.82384 122.026 9.96676 122.844 10.2099C125.494 11.2361 127.755 13.0704 129.305 15.4528C129.634 15.9559 130.021 16.3815 130.331 16.8845L131.105 18.4129C131.825 19.6512 132.236 21.0447 132.304 22.4757C132.304 22.94 131.685 23.0367 130.892 22.94C130.064 22.8793 129.277 22.5537 128.648 22.0114L128.125 21.2568L127.506 20.6184C127.081 20.2121 126.752 19.7671 126.365 19.3802C126.025 18.9777 125.714 18.551 125.436 18.1033C125.127 17.6777 124.759 17.3295 124.43 16.8651C124.001 16.3891 123.464 16.024 122.863 15.8011C122.225 15.6076 121.605 15.4722 120.928 15.2787C119.482 14.9585 117.983 14.9585 116.537 15.2787C116.072 15.3535 115.617 15.4834 115.182 15.6657L114.505 15.8978L113.886 16.2461C112.563 16.8857 111.429 17.8593 110.597 19.0707C110.345 19.5672 110.156 20.0938 110.036 20.6377C109.971 21.1718 109.874 21.7016 109.746 22.2242C109.726 22.4494 109.726 22.676 109.746 22.9013C109.591 23.7332 109.185 23.9847 108.024 24.1782C107.753 24.1782 107.482 24.2943 107.212 24.333C106.314 24.476 105.462 23.8882 105.277 22.998C105.003 22.2603 104.853 21.4824 104.832 20.6958C104.73 19.8874 104.816 19.0664 105.083 18.2968C105.349 17.5256 105.673 16.7755 106.051 16.0526C106.496 15.3948 106.979 14.7177 107.482 14.1179C109.117 12.3353 111.182 11.0028 113.48 10.2486L113.48 10.2679Z" fill="#9EA1D4"/>
<path d="M107.057 30.0987C103.868 25.1037 102.993 18.9741 104.658 13.2865C105.174 11.1831 106.116 9.20774 107.425 7.48248C109.848 4.39969 113.427 2.44242 117.33 2.06542C120.957 1.72923 124.586 2.69634 127.565 4.79329C129.997 6.62381 131.742 9.22051 132.517 12.1644C133.518 15.5563 133.327 19.1886 131.976 22.4568C131.55 23.4241 131.028 23.0952 130.486 22.1472C129.77 20.8641 129.193 19.5087 128.764 18.1038C128.315 15.6924 126.966 13.5417 124.991 12.087C124.14 11.642 123.579 11.1003 122.709 10.7134C121.813 10.2818 120.852 10.0007 119.865 9.88146C119.217 9.79222 118.558 9.83833 117.93 10.0169C117.314 10.1373 116.724 10.3666 116.189 10.694C115.13 11.4034 114.261 12.3595 113.654 13.4799C112.072 16.4125 111.853 19.8906 113.055 22.9985C113.742 24.9517 115.046 26.6287 116.769 27.7771C117.995 28.5983 119.434 29.0423 120.909 29.054C122.355 28.9269 123.691 28.231 124.624 27.1193C126.161 25.039 127.147 22.6028 127.487 20.0385L127.661 18.336C127.698 17.547 127.952 16.7836 128.396 16.1304C128.968 15.618 129.622 15.2059 130.331 14.9116C130.699 14.7568 131.028 14.544 131.337 14.4279C131.923 14.2278 132.571 14.3694 133.02 14.7955C133.407 15.0665 133.758 15.385 134.065 15.7435C134.4 16.1709 134.62 16.6772 134.703 17.2138C135.53 20.7655 135.349 24.4774 134.181 27.9319C133.544 29.8972 132.465 31.6906 131.028 33.1748C129.37 34.9564 127.315 36.3218 125.03 37.1602C123.169 37.8133 121.19 38.0574 119.226 37.8761C117.46 37.7223 115.736 37.2504 114.138 36.4831C111.157 35.1208 108.607 32.9659 106.767 30.2535L107.057 30.0987Z" fill="#9EA1D4"/>
<path d="M78.9857 72.3127C78.5275 66.4456 80.4842 60.6456 84.4028 56.255C85.9412 54.4303 87.9478 53.0591 90.2068 52.2889C93.8922 51.2974 97.8173 51.7543 101.176 53.5658C102.624 54.3251 103.981 55.2468 105.22 56.313C106.361 57.3857 107.373 58.5867 108.238 59.8922C109.84 62.1241 110.99 64.6478 111.624 67.3213C112.441 70.8179 111.369 74.4872 108.799 76.9946C108.025 77.7104 107.58 77.13 107.174 76.0079C106.768 74.8858 106.148 73.222 105.878 72.1386L105.703 71.3454L105.433 70.5328C105.336 70.3039 105.219 70.0838 105.084 69.875C105.023 69.645 104.932 69.4239 104.814 69.2173C104.402 68.3594 103.889 67.554 103.285 66.8183C101.891 65.3162 100.419 63.889 98.8741 62.5427C98.0157 61.7733 96.9116 61.3344 95.7593 61.3045C94.892 61.3255 94.0451 61.5722 93.3023 62.0203C92.3332 62.5975 91.5534 63.4446 91.058 64.458C90.333 65.7655 89.8543 67.1951 89.6457 68.6755C89.3337 70.1583 89.6262 71.7042 90.4583 72.9705C91.1482 73.8021 92.1322 74.3357 93.2055 74.4602C94.6 74.7042 96.035 74.55 97.3457 74.0152C99.3121 73.2382 100.849 71.6522 101.563 69.6622C101.615 69.4853 101.615 69.2974 101.563 69.1205C101.563 69.1205 101.563 69.1205 101.795 69.1205C101.84 69.134 101.887 69.134 101.931 69.1205C102.046 69.1393 102.164 69.1393 102.279 69.1205C102.716 69.027 103.138 68.8774 103.537 68.6756C104.04 68.4434 104.639 68.1532 105.2 67.8436C105.677 67.5698 106.136 67.2661 106.574 66.9344C107.379 66.437 108.358 66.3101 109.263 66.5861C110.827 66.8889 111.98 68.2252 112.049 69.817C112.392 72.4568 111.781 75.1322 110.327 77.3622C109.159 79.1218 107.669 80.6446 105.936 81.8506C104.367 82.9654 102.647 83.8514 100.828 84.4818C99.8606 84.808 98.8715 85.0666 97.8681 85.2556C93.1284 86.138 88.2342 85.0403 84.3254 82.2182C82.7139 80.954 81.3941 79.3571 80.4561 77.5363C79.6296 75.9173 79.0803 74.1713 78.831 72.3708L78.9857 72.3127Z" fill="#9EA1D4"/>
<path d="M40.5436 56.7789C38.4224 55.913 36.6049 54.4388 35.32 52.542C35.0032 52.0956 34.7249 51.6231 34.4881 51.1297L34.1592 50.4138L33.9464 49.7561C33.6458 48.8934 33.4193 48.0067 33.2692 47.1056L32.9597 44.9194C32.9658 44.1007 33.05 43.2844 33.2112 42.4817C33.6447 41.0248 34.4285 39.6964 35.4941 38.6124C35.9561 38.1012 36.5151 37.687 37.1385 37.3935C37.6881 37.0673 38.2807 36.8198 38.8991 36.6584C40.9995 36.0685 43.2218 36.0685 45.3222 36.6584C47.0421 37.0447 48.6755 37.7466 50.1395 38.7285C52.1536 39.8513 53.4745 41.9052 53.6606 44.2036C53.6606 44.9 52.7126 44.9774 51.5325 44.8807C50.5199 44.8619 49.5157 44.6924 48.5531 44.3777C46.7469 43.2898 44.6301 42.8338 42.5363 43.0815C42.2723 43.0967 42.0148 43.1693 41.7817 43.2943L41.6076 43.5071C41.6076 43.5071 41.4529 43.5071 41.4529 43.6619C41.432 43.7142 41.3988 43.7606 41.3561 43.7973C41.3561 43.7973 41.3561 43.9327 41.3561 43.9714C41.3561 44.0101 41.3561 44.2423 41.3561 44.3777C41.3561 44.5131 41.3561 44.9194 41.3561 45.2096C41.3561 45.4998 41.6076 45.9641 41.685 46.3704C41.8357 46.9499 42.1597 47.4696 42.6137 47.8601C43.3254 48.4316 44.2162 48.7331 45.1287 48.7113C46.7074 48.844 48.2583 48.2365 49.3269 47.0669C49.5874 46.797 49.5874 46.3694 49.3269 46.0995C49.0754 45.9448 48.7272 46.0028 48.495 45.8867C48.3479 45.8318 48.2107 45.7534 48.0888 45.6546C47.9978 45.5263 47.9322 45.3818 47.8953 45.2289C47.9349 44.9673 48.0131 44.713 48.1274 44.4744C48.4972 43.681 48.9172 42.912 49.385 42.1722L50.0621 41.0307C50.449 40.4382 50.991 39.9631 51.6292 39.6571C52.4148 39.1535 53.3697 38.9862 54.2797 39.1928C55.6668 39.7691 56.8659 40.7204 57.7427 41.94C58.8039 43.6777 59.2471 45.7229 59.0003 47.744C58.7051 49.7439 57.8308 51.6137 56.4852 53.1224C55.4531 54.3506 54.1996 55.3744 52.79 56.1405C50.9429 57.1342 48.9046 57.7213 46.8119 57.8623C44.6649 58.0334 42.5064 57.7364 40.4855 56.9917L40.5436 56.7789Z" fill="#9EA1D4"/>
<path d="M58.0719 111.645C57.6543 110.722 57.3678 109.746 57.2206 108.743L57.0465 107.254L57.24 105.745C57.3625 104.742 57.6708 103.771 58.1493 102.881L58.4395 102.204L58.8845 101.682C59.1725 101.278 59.4825 100.891 59.8131 100.521C60.7241 99.3598 61.8977 98.4315 63.2374 97.8124C64.3509 97.3734 65.5431 97.1692 66.7392 97.2126C67.6909 97.2367 68.6376 97.3599 69.5638 97.5802C71.2843 97.9446 72.9406 98.564 74.4779 99.4182C75.8393 100.12 77.1069 100.991 78.2505 102.011C79.1262 102.757 79.7482 103.758 80.0303 104.874C80.3196 106.107 80.0114 107.404 79.1984 108.376C78.6954 108.917 78.057 108.26 77.2638 107.524C76.9135 107.142 76.5015 106.822 76.0449 106.576C75.7406 106.418 75.4014 106.338 75.0583 106.344C74.7681 106.344 74.6713 106.344 74.3618 106.035C73.9871 105.743 73.5928 105.478 73.1816 105.241C72.1181 104.664 71.0197 104.154 69.8927 103.713C69.2295 103.467 68.5059 103.433 67.8226 103.616C67.4652 103.686 67.1153 103.789 66.7779 103.926C65.9042 104.32 65.3277 105.174 65.2882 106.131C65.2717 106.848 65.5355 107.542 66.0234 108.066C66.7936 108.994 68.0651 109.335 69.1962 108.917C70.0668 108.453 70.1442 107.118 69.9894 106.383C69.9287 106.225 69.877 106.063 69.8347 105.899C69.8347 105.28 70.3957 105.261 72.7367 105.261L74.3618 105.261C76.1804 105.261 77.554 106.015 77.8055 107.66C77.9913 108.958 77.8788 110.281 77.4766 111.529C77.3371 112.218 77.0679 112.875 76.6834 113.464C76.3712 114.078 75.9739 114.644 75.5032 115.147C73.6162 117.268 70.8706 118.42 68.0354 118.281C67.5147 118.307 66.9929 118.255 66.4877 118.126C65.9659 118.047 65.4491 117.937 64.94 117.797C63.9476 117.461 62.9992 117.006 62.1153 116.443C60.3476 115.325 58.8956 113.774 57.8978 111.935L58.0719 111.645Z" fill="#9EA1D4"/>
<path d="M135.826 112.439C135.104 112.657 134.635 113.352 134.704 114.103C134.704 114.412 135.188 114.354 135.284 114.606C135.71 115.535 137.219 115.554 138.418 114.296C138.572 114.169 138.697 114.01 138.786 113.832C138.991 113.582 139.166 113.31 139.308 113.019C139.618 112.455 139.846 111.849 139.985 111.22C140.112 110.582 140.112 109.924 139.985 109.286C139.963 109.138 139.963 108.988 139.985 108.841C139.905 108.713 139.84 108.577 139.792 108.434C139.792 108.086 139.444 107.815 139.25 107.428C139.057 107.041 139.444 105.958 140.605 105.339C141.309 104.981 142.103 104.84 142.887 104.933C143.884 105.115 144.764 105.695 145.325 106.538C145.557 106.964 145.809 107.409 146.022 107.854C146.18 108.296 146.309 108.749 146.409 109.208C146.633 110.092 146.718 111.006 146.66 111.917C146.6 112.742 146.458 113.558 146.234 114.354C145.998 115.092 145.72 115.815 145.403 116.521L144.822 117.566L144.397 118.262C144.261 118.495 144.222 118.823 144.01 118.998C143.274 119.771 142.597 120.545 141.843 121.281C141.146 121.99 140.389 122.638 139.579 123.215C138.794 123.608 137.979 123.938 137.142 124.202C136.182 124.49 135.207 124.723 134.22 124.898C133.316 125.074 132.394 125.145 131.473 125.111C129.601 125.002 127.807 124.327 126.327 123.176C123.176 120.578 121.422 116.655 121.587 112.575C121.592 110.179 122.219 107.826 123.405 105.745C125.144 102.637 128.327 100.609 131.879 100.347C133.165 100.204 134.463 100.204 135.749 100.347C137.23 100.53 138.666 100.983 139.985 101.682C140.665 101.969 141.314 102.326 141.92 102.746C142.764 103.441 143.383 104.37 143.7 105.416C143.733 106.387 143.345 107.325 142.636 107.989C142.287 108.418 141.912 108.825 141.514 109.208C140.903 109.774 140.186 110.215 139.405 110.504C138.953 110.756 138.481 110.97 137.993 111.143C137.103 111.414 136.871 111.917 136.813 112.226C136.76 112.377 136.76 112.54 136.813 112.691C136.647 112.534 136.405 112.488 136.194 112.575L135.826 112.439Z" fill="#9EA1D4"/>
<path d="M68.0934 160.398C66.6163 158.738 65.5611 156.747 65.0173 154.594C64.5271 152.598 64.4678 150.52 64.8432 148.499C65.0261 147.131 65.3837 145.792 65.9072 144.514C66.459 143.482 67.1068 142.504 67.8419 141.593C68.5793 140.574 69.474 139.68 70.4924 138.942C72.7021 137.396 75.5054 136.967 78.0763 137.781C79.9498 138.317 81.6988 139.217 83.2225 140.432C84.2328 141.182 85.0871 142.121 85.7376 143.198C86.4486 144.355 86.6908 145.739 86.4147 147.068C86.1825 147.938 85.3313 147.532 84.48 147.068C83.6288 146.603 82.4099 146.275 81.9456 145.868C80.8912 144.952 79.6401 144.29 78.2891 143.934C77.7206 143.776 77.1369 143.678 76.5479 143.643C76.1714 143.635 75.7952 143.667 75.4258 143.74C74.7514 144.04 74.2037 144.567 73.8781 145.23C73.636 145.676 73.4164 146.135 73.2203 146.603L72.7366 147.938C72.0433 149.762 72.1558 151.794 73.0461 153.53C73.3458 154.055 73.7243 154.531 74.1683 154.942C74.5045 155.305 74.8963 155.612 75.3291 155.851C75.9546 156.25 76.7113 156.389 77.4378 156.238C78.1744 156.024 78.7641 155.47 79.0243 154.748C79.1295 154.462 79.1946 154.163 79.2177 153.858C79.2567 153.46 79.2567 153.058 79.2177 152.659C79.2177 151.866 78.8888 151.092 78.7921 150.376C78.7921 150.047 78.5793 149.757 78.5406 149.447C78.4644 148.954 78.6217 148.454 78.9662 148.093C79.4729 147.581 80.0454 147.139 80.6687 146.778L81.7715 146.023C82.3399 145.642 83.0285 145.484 83.7062 145.578C84.4771 145.761 85.1608 146.205 85.6408 146.836C86.0862 147.345 86.4515 147.919 86.7242 148.538C87.0274 149.162 87.2797 149.809 87.4788 150.473C87.8385 151.782 87.9371 153.149 87.769 154.497C87.6959 155.209 87.5665 155.914 87.382 156.606C87.0701 157.464 86.7084 158.304 86.2986 159.121C85.8603 159.951 85.3209 160.725 84.6928 161.423C84.3954 161.781 84.0721 162.118 83.7255 162.429L82.6227 163.261C80.3189 164.856 77.4183 165.325 74.7293 164.538C74.3868 164.486 74.0499 164.402 73.7233 164.286L72.7559 163.841C72.0906 163.576 71.4442 163.266 70.8213 162.913C70.2989 162.526 69.6218 162.1 69.2155 161.733C68.8092 161.365 68.3836 161.017 67.9967 160.591L68.0934 160.398Z" fill="#9EA1D4"/>
<path d="M18.9722 124.471C20.4134 123.186 22.1688 122.305 24.0603 121.917C24.6947 121.749 25.3417 121.632 25.995 121.569C26.5947 121.569 27.1751 121.724 27.7362 121.84C28.2686 122.01 28.7811 122.237 29.2646 122.517C30.211 122.972 31.1006 123.537 31.9151 124.2C32.5319 124.732 33.1778 125.23 33.8497 125.69C34.6782 126.241 35.3458 127.002 35.7844 127.895C35.9005 128.205 35.3007 128.708 34.5462 129.114C33.7917 129.521 32.8631 129.927 32.4181 129.714C31.0758 129.12 29.782 128.421 28.5487 127.625C27.935 127.376 27.2596 127.322 26.6141 127.47C25.8529 127.526 25.1194 127.779 24.486 128.205C23.3368 129.086 22.5684 130.374 22.3385 131.803C22.3973 132.406 22.6889 132.961 23.151 133.351C23.151 133.351 23.3252 133.467 23.3445 133.564C23.3638 133.661 23.3445 133.564 23.3445 133.738C23.2643 133.879 23.1668 134.009 23.0543 134.125L22.0289 135.286L21.4485 135.963C20.8185 136.757 19.7605 137.073 18.798 136.756C17.4957 136.029 16.5405 134.809 16.1475 133.371C15.7719 132.047 15.732 130.651 16.0315 129.308C16.5404 127.416 17.5732 125.706 19.0108 124.374L18.9722 124.471Z" fill="#9EA1D4"/>
<path d="M25.5117 144.243C22.7372 143.627 20.2344 142.134 18.3728 139.987C16.7961 138.159 15.6285 136.015 14.9484 133.699C14.4031 132.147 14.0839 130.525 14.0004 128.882C13.9992 128.13 14.0639 127.379 14.1939 126.638C14.2764 125.865 14.4518 125.105 14.7162 124.374C15.1939 122.832 16.0215 121.422 17.1346 120.253C19.2503 118.153 22.1048 116.965 25.0861 116.945C27.4319 116.842 29.7679 117.307 31.8961 118.299C33.2619 119.018 34.4361 120.053 35.3204 121.317L35.9202 122.323C36.0556 122.691 36.1523 123.059 36.2491 123.426C36.4657 124.147 36.5316 124.904 36.4425 125.651C36.4425 126.58 35.5913 126.386 34.624 125.883C34.1209 125.651 33.6373 125.341 33.1149 125.09C32.6319 124.897 32.166 124.664 31.722 124.393C31.5672 124.277 31.4124 124.181 31.277 124.065C31.1416 123.948 30.9094 123.91 30.7353 123.832C30.3872 123.679 30.0241 123.562 29.6519 123.484C29.3036 123.484 28.878 123.349 28.5298 123.233C28.1815 123.117 27.7559 123.233 27.3496 123.233C25.9249 123.243 24.5215 123.58 23.2481 124.219C23.0933 124.219 22.9773 124.451 22.8225 124.568C22.6756 124.68 22.5674 124.836 22.5129 125.013C22.3985 125.173 22.2951 125.341 22.2034 125.516L22.068 126.135C21.9657 127.124 22.0245 128.124 22.2421 129.095C22.5318 131.388 23.7932 133.445 25.7051 134.744C26.2215 135.038 26.7959 135.217 27.3883 135.266C27.9775 135.328 28.5729 135.289 29.1488 135.15C30.0276 135.042 30.8276 134.59 31.3737 133.893C31.8674 133.121 31.9814 132.166 31.6833 131.3C31.3678 130.401 30.889 129.568 30.271 128.843C29.5759 128.032 28.833 127.263 28.0461 126.541C27.7172 126.212 27.3109 125.96 27.0014 125.612C26.2275 124.065 26.4597 123.155 27.7559 121.337C28.0654 120.93 28.3169 120.505 28.6265 120.118C29.7431 118.799 31.5985 118.381 33.173 119.092C33.8629 119.289 34.5163 119.596 35.1076 120.002C35.6395 120.42 36.1496 120.866 36.636 121.337C37.6586 122.331 38.5612 123.441 39.3252 124.645C40.218 126.098 40.8712 127.685 41.2599 129.346L41.6274 131.01C41.6274 131.571 41.6274 132.132 41.6274 132.712C41.6278 133.838 41.4715 134.958 41.1631 136.04C39.5767 142.831 30.8514 145.83 25.3956 144.495L25.5117 144.243Z" fill="#9EA1D4"/>
</g>
<defs>
<clipPath id="clip0_2388_2545">
<rect width="167" height="167" fill="white"/>
</clipPath>
</defs>
</svg>
