<svg width="387" height="387" viewBox="0 0 387 387" fill="none" xmlns="http://www.w3.org/2000/svg">
<path fill-rule="evenodd" clip-rule="evenodd" d="M169.222 165.394C168.951 165.915 168.158 171.193 171.271 171.193C171.814 171.194 172.34 170.999 172.752 170.644C173.164 170.289 173.434 169.798 173.513 169.26C174.17 163.345 170.304 163.364 169.222 165.394ZM197.251 165.316C197.425 167.365 197.657 169.182 199.706 169.182C200.25 169.183 200.776 168.989 201.187 168.634C201.599 168.279 201.869 167.787 201.948 167.249C201.99 166.006 201.853 164.762 201.542 163.557C200.421 161.489 196.961 161.991 197.251 165.316ZM183.72 183.99C184.319 183.99 189.519 183.738 190.737 182.791C191.104 182.521 191.065 181.999 191.065 181.515C190.949 176.032 190.419 170.565 189.48 165.162C189.48 164.872 189.229 164.814 189.074 164.852C188.919 164.891 188.842 165.162 188.861 165.626C188.861 167.211 188.726 167.752 189.287 176.625C189.654 182.424 189.499 180.8 189.615 181.767C187.803 182.431 185.941 182.954 184.048 183.332C182.792 183.603 183.681 183.99 183.72 183.99ZM189.828 197.366C188.394 198.135 186.812 198.59 185.189 198.7C185.107 198.7 185.028 198.733 184.97 198.791C184.912 198.849 184.879 198.928 184.879 199.01C184.879 199.092 184.912 199.17 184.97 199.228C185.028 199.286 185.107 199.319 185.189 199.319C186.097 199.645 187.067 199.763 188.027 199.663C188.987 199.563 189.912 199.247 190.733 198.74C191.554 198.233 192.25 197.547 192.77 196.733C193.289 195.92 193.618 195 193.733 194.042C193.743 194.002 193.745 193.961 193.74 193.921C193.734 193.881 193.72 193.842 193.7 193.807C193.679 193.772 193.652 193.742 193.619 193.717C193.587 193.693 193.55 193.675 193.51 193.665C193.471 193.655 193.43 193.652 193.39 193.658C193.35 193.664 193.311 193.677 193.276 193.698C193.241 193.718 193.21 193.746 193.186 193.778C193.161 193.811 193.144 193.848 193.134 193.887C192.351 195.313 191.212 196.512 189.828 197.366ZM103.188 48.2884C108.156 64.8934 125.728 64.0816 127.777 65.3187C127.777 65.512 131.797 80.9959 133.421 83.1223C134.33 84.3014 136.514 83.8375 137.964 83.5669C141.366 82.8903 145.309 82.6777 148.19 80.3773C148.924 79.778 148.499 77.3424 148.306 76.5112C147.69 73.0354 146.838 69.6059 145.754 66.2466C145.328 65.2331 144.966 64.1936 144.672 63.1344C146.006 61.9527 147.456 60.9099 149.002 60.0221C151.552 58.2845 153.821 56.1657 155.729 53.7397C159.42 48.3324 161.088 41.7978 160.441 35.2829C159.794 28.768 156.874 22.6891 152.191 18.1132C137.867 4.05984 111.964 8.64121 103.555 26.3674C100.675 32.5146 101.236 41.832 103.188 48.2884ZM147.301 79.4494C144.73 81.5178 140.941 81.7884 137.635 82.465C136.746 82.6583 134.639 83.1802 134.078 82.465C132.985 80.8862 132.198 79.1156 131.759 77.2457C136.766 76.5401 141.664 75.202 146.334 73.2636C146.966 75.2651 147.292 77.3506 147.301 79.4494ZM146.121 72.4711C141.182 73.3916 136.331 74.7369 131.623 76.4918C131.124 74.2483 130.478 72.0399 129.69 69.8808C134.685 69.3577 139.583 68.1478 144.246 66.2852C145.026 68.3287 145.672 70.4208 146.179 72.5484L146.121 72.4711ZM104.773 26.9667C112.873 10.2263 137.635 5.99291 151.167 19.2344C155.565 23.5482 158.316 29.264 158.944 35.3923C159.573 41.5207 158.039 47.6759 154.608 52.7924C151.263 57.5091 144.498 60.7567 143.454 62.4578C143.086 63.057 143.763 64.5841 144.188 65.6667C141.985 66.0919 139.568 66.6139 137.403 67.0971C136.823 64.4488 134.117 53.759 133.112 51.246C132.725 50.2408 132.377 50.3181 131.353 50.6081C125.708 50.6081 119.503 49.1776 117.512 43.8617C117.271 43.2385 117.103 42.59 117.009 41.9286C116.739 39.145 118.942 35.8974 121.378 36.1294C121.03 38.2558 121.378 42.3152 123.195 43.5331C125.012 44.7509 127.061 42.8178 127.061 41.0781C126.958 39.8235 126.55 38.6131 125.873 37.5519C125.196 36.4907 124.27 35.6109 123.176 34.9889C123.48 34.2988 123.93 33.683 124.496 33.1843C125.061 32.6856 125.728 32.3158 126.451 32.1007C127.174 31.8855 127.935 31.8301 128.681 31.9383C129.427 32.0465 130.141 32.3157 130.773 32.7272C129.246 35.7041 130.773 42.5279 133.479 40.9234C136.185 39.319 135.296 35.3755 133.614 33.1912C132.803 32.128 132.629 32.4179 133.035 32.1086C136.185 29.8083 139.762 32.4759 141.269 35.9748C143.434 40.7881 138.795 46.7226 135.857 48.5204C135.785 48.5639 135.733 48.6343 135.714 48.7158C135.694 48.7974 135.707 48.8835 135.75 48.9553C135.794 49.0271 135.864 49.0786 135.946 49.0985C136.027 49.1185 136.114 49.1052 136.185 49.0616C139.781 46.9546 144.324 40.7494 142.255 35.5302C140.187 30.3109 134.987 28.3005 131.701 31.4127C130.873 30.845 129.929 30.4701 128.937 30.3158C127.946 30.1614 126.932 30.2315 125.971 30.5209C125.011 30.8103 124.127 31.3116 123.385 31.9878C122.644 32.6641 122.064 33.498 121.687 34.4283C118.092 33.9644 115.057 38.1591 115.463 41.9673C115.681 43.6504 116.318 45.2521 117.314 46.6263C118.31 48.0006 119.634 49.1036 121.165 49.8349C122.983 50.7047 129.439 52.2898 131.991 51.5553C132.88 53.4883 136.108 64.8354 136.688 67.2131C128.105 69.1462 129.845 70.0547 129.42 68.7982C128.917 67.2325 128.608 64.9321 128.183 64.7775C117.512 62.3611 107.885 60.5827 104.29 47.9211C102.531 41.7933 102.067 32.7079 104.773 26.9667ZM122.712 36.516C123.444 37.0358 124.057 37.707 124.507 38.4841C124.957 39.2612 125.235 40.1261 125.322 41.0201C125.322 41.542 124.142 42.9531 123.389 41.4067C122.811 39.8452 122.606 38.1707 122.789 36.516H122.712ZM131.836 33.5584C133.382 35.0662 134.349 38.5844 132.667 39.6089C132.084 38.7271 131.707 37.7255 131.563 36.6783C131.419 35.631 131.512 34.5648 131.836 33.5584ZM73.844 107.344C81.7116 104.889 91.2416 107.015 94.9144 115.714C101.274 130.444 84.4566 137.944 84.6305 138.717C85.0171 140.65 85.713 144.033 86.003 145.986C86.0261 146.15 86.1134 146.298 86.2457 146.398C86.378 146.497 86.5445 146.54 86.7086 146.517C86.8726 146.494 87.0208 146.407 87.1205 146.274C87.2202 146.142 87.2632 145.976 87.2402 145.812C87.0082 143.879 86.7569 141.095 86.4863 139.085C89.2194 137.988 91.7484 136.439 93.9672 134.503C107.615 118.401 92.3821 98.0842 72.9161 104.444C69.8338 105.343 67.1076 107.179 65.1159 109.697C63.1242 112.215 61.9656 115.291 61.801 118.497C61.1824 126.114 67.2523 132.686 77.0529 131.836C77.2006 131.81 77.3345 131.732 77.4309 131.617C77.5273 131.502 77.5802 131.357 77.5802 131.207C77.5802 131.057 77.5273 130.912 77.4309 130.797C77.3345 130.682 77.2006 130.605 77.0529 130.579C68.3541 131.024 63.6954 124.78 64.5266 118.787C64.7192 116.155 65.7163 113.645 67.383 111.598C69.0496 109.551 71.3051 108.066 73.844 107.344ZM218.225 56.9099C218.389 56.9535 218.563 56.9301 218.71 56.8449C218.857 56.7597 218.964 56.6197 219.008 56.4556C219.051 56.2915 219.028 56.1169 218.943 55.9701C218.857 55.8233 218.717 55.7163 218.553 55.6727C210.183 53.3144 207.767 45.9107 210.473 40.4788C211.527 38.0528 213.302 36.0097 215.556 34.6265C217.811 33.2433 220.436 32.587 223.077 32.7465C237.613 33.1138 243.993 46.4906 238.541 56.04C234.926 62.5738 230.094 64.3328 223.908 65.1447C223.713 65.1722 223.531 65.2625 223.392 65.402C223.253 65.5415 223.162 65.7226 223.135 65.918C222.922 67.6964 222.458 71.1952 222.11 73.225C222.077 73.3864 222.109 73.5546 222.2 73.6923C222.29 73.8301 222.432 73.9262 222.593 73.9595C222.755 73.9928 222.923 73.9606 223.061 73.87C223.199 73.7794 223.295 73.6377 223.328 73.4763C223.773 71.3885 224.372 68.9336 224.778 66.8652C227.715 66.7072 230.603 66.0536 233.322 64.9321C239.875 61.066 243.857 54.9575 243.335 47.2252C242.117 29.0737 215.634 22.5786 208.018 39.4929C205.061 46.3747 208.656 54.7448 218.225 56.9099ZM325.626 147.609C325.404 144.026 324.126 140.589 321.953 137.731C319.862 135.379 317.312 133.48 314.46 132.15C311.608 130.82 308.513 130.088 305.367 129.999C302.165 129.851 298.996 130.701 296.298 132.433C293.6 134.164 291.507 136.691 290.309 139.664C287.274 146.681 290.927 154.858 300.457 157.178C300.542 157.216 300.635 157.235 300.728 157.234C300.821 157.233 300.913 157.211 300.996 157.171C301.08 157.13 301.154 157.072 301.213 157C301.272 156.928 301.315 156.844 301.338 156.753C301.36 156.663 301.363 156.569 301.346 156.477C301.329 156.386 301.291 156.299 301.237 156.224C301.183 156.148 301.112 156.085 301.031 156.04C300.95 155.994 300.86 155.967 300.767 155.96C292.454 153.447 289.98 146.295 292.706 140.766C293.76 138.34 295.534 136.297 297.789 134.914C300.044 133.531 302.669 132.874 305.309 133.034C307.99 133.109 310.628 133.726 313.064 134.849C315.499 135.972 317.681 137.577 319.479 139.568C321.29 141.931 322.365 144.775 322.572 147.745C323.944 164.794 305.58 164.852 305.406 166.205C305.174 168.139 304.749 171.541 304.382 173.512C304.348 173.674 304.38 173.842 304.471 173.98C304.562 174.118 304.703 174.214 304.865 174.247C305.026 174.28 305.194 174.248 305.332 174.158C305.47 174.067 305.566 173.925 305.599 173.764C306.063 171.695 306.643 169.221 307.049 167.153C309.991 166.987 312.885 166.334 315.613 165.22C322.069 161.431 326.148 155.419 325.626 147.609ZM94.6052 160.638C95.4364 157.197 92.9427 153.583 90.4684 153.872C88.8637 153.699 87.2476 153.654 85.6357 153.737C81.441 154.742 79.4692 160.232 83.4127 162.919C87.9361 165.935 93.7933 163.847 94.6052 160.638ZM91.6089 160.252C90.9224 160.824 90.0816 161.181 89.1926 161.276C83.9346 162.011 82.8134 157.41 86.351 155.902L90.507 155.129C92.3048 155.284 92.7107 159.13 91.6089 160.155V160.252ZM220.506 80.6093C216.002 78.9662 211.13 84.0501 214.32 88.3415C217.51 92.6329 223.831 92.6329 225.648 89.772C227.465 86.9111 226.363 82.581 223.927 82.0397C223.715 81.9431 222.033 81.1699 220.506 80.6093ZM222.941 88.3415C222.077 88.6358 221.151 88.7015 220.253 88.5321C219.355 88.3627 218.517 87.9641 217.819 87.375C217.248 86.9648 216.778 86.4292 216.446 85.8092C215.886 84.2434 217.896 82.639 219.365 82.5423L223.541 83.1416C225.164 84.0115 224.353 87.8003 222.941 88.3995V88.3415ZM306.141 182.443C305.754 182.269 303.763 181.438 302.738 181.051C298.215 179.408 293.363 184.492 296.553 188.784C299.742 193.075 306.044 193.075 307.88 190.214C309.717 187.353 308.596 182.984 306.141 182.443ZM305.155 188.842C304.29 189.134 303.364 189.199 302.467 189.029C301.57 188.86 300.731 188.463 300.032 187.875C299.466 187.452 298.998 186.911 298.66 186.29C298.118 184.744 300.109 183.139 301.579 183.042L305.754 183.642C307.378 184.454 306.566 188.223 305.155 188.842Z" fill="black"/>
<path fill-rule="evenodd" clip-rule="evenodd" d="M290.35 289.071C286.484 270.05 271.444 240.745 253.39 233.264L249.755 225.667C249.729 225.612 249.692 225.563 249.645 225.523C249.599 225.484 249.544 225.455 249.486 225.439C249.427 225.422 249.366 225.418 249.305 225.428C249.245 225.437 249.188 225.459 249.137 225.493L245.271 227.986C244.043 219.781 240.293 212.161 234.542 206.181C238.563 199.976 245 198.082 251.65 197.792C257.159 197.56 261.218 197.231 264.408 192.515C270.729 183.197 269.241 174.112 261.818 165.452C250.509 152.268 246.063 156.212 240.554 148.924C230.077 135.238 227.699 114.999 212.273 104.463C192.556 91.106 181.924 101.873 177.787 105.198C171.737 101.525 158.244 102.801 152.445 107.769C147.516 111.983 140.982 117.434 138.449 123.523C133.056 136.378 133.636 151.592 125.749 163.248C123.816 166.148 120.511 168.1 118.172 170.845C114.961 174.87 112.23 179.256 110.033 183.912C107.172 189.325 104.988 195.337 107.598 200.943C111.097 208.443 118.925 215.595 127.276 215.054C132.109 214.726 138.507 211.826 143.05 213.74C145.756 214.861 146.8 217.471 148.849 219.655C153.489 224.816 164.314 226.382 170.306 222.806C163.715 231.195 153.663 230.905 136.13 240.571C109.221 255.378 99.4015 272.196 96.5212 289.419C95.4194 294.778 94.6064 300.192 94.0856 305.638C92.4231 333.725 100.948 369.332 128.591 375.228C136.168 376.852 144.848 377.896 152.348 376.021C166.556 372.483 183.509 362.914 195.958 355.143C201.757 351.529 223.214 337.05 233.189 335.156C233.789 340.315 235.09 345.368 237.055 350.176C245.039 366.587 257.816 376.291 275.716 372.077C287.315 369.352 290.62 356.999 290.93 345.169C296.748 332.681 292.128 298.157 290.35 289.071ZM223.466 198.565C226.907 199.203 229.265 202.431 231.817 205.06C238.563 211.807 243.202 219.036 244.594 228.257C239.008 231.814 235.373 234.056 235.296 234.172C235.219 234.288 232.532 227.445 230.908 226.614C228.479 225.408 226.275 223.793 224.394 221.839C222.944 220.235 221.165 217.413 221.397 215.286C222.425 214.74 223.546 214.392 224.703 214.262V213.063C218.73 213.237 216.681 218.688 216.139 219.906C215.753 220.776 215.211 221.646 213.974 221.511C212.737 221.375 212.293 219.945 212.757 218.669C213.22 217.393 214.342 211.787 222.248 210.569C222.347 210.556 222.442 210.522 222.528 210.471C222.614 210.421 222.69 210.353 222.75 210.273C222.81 210.194 222.854 210.103 222.879 210.006C222.904 209.909 222.909 209.808 222.895 209.709C222.882 209.61 222.848 209.515 222.797 209.429C222.747 209.343 222.679 209.267 222.599 209.207C222.52 209.147 222.429 209.103 222.332 209.078C222.235 209.053 222.134 209.048 222.035 209.062C220.381 209.272 218.777 209.776 217.299 210.55C215.971 211.199 214.792 212.116 213.837 213.244C212.882 214.372 212.172 215.686 211.751 217.103C210.823 219.752 207.576 218.572 208.349 216.291C209.127 214.072 210.285 212.005 211.771 210.183C213.42 208.61 215.402 207.428 217.57 206.723C219.271 206.027 220.721 206.355 221.107 205.795C221.494 205.234 220.585 203.359 220.121 202.799C217.628 199.822 210.456 202.393 207.711 199.068C205.952 196.883 209.644 196.806 211.133 196.613C215.308 196.149 219.271 197.773 223.466 198.565ZM230.56 246.466C225.034 248.268 219.397 249.707 213.684 250.777C215.617 239.778 216.932 230.345 216.739 226.923C221.243 227.793 226.404 228.412 232.049 229.34C233.576 231.872 234.407 233.998 234.774 234.597L231.024 236.975C230.831 237.226 230.869 236.183 230.56 246.466ZM209.567 302.313C210.423 306.025 211.03 309.79 211.384 313.583C203.458 313.08 197.408 313.177 194.431 313.061C194.547 307.629 194.605 305.947 194.702 304.806C199.58 303.57 204.552 302.736 209.567 302.313ZM179.16 254.701C190.126 254.779 201.078 253.887 211.887 252.034C208.446 270.591 203.207 292.899 200.733 297.364C195.05 281.861 195.63 281.803 179.16 254.701ZM202.357 297.113C205.488 290.096 210.244 269.161 213.414 251.724C219.184 250.643 224.874 249.17 230.444 247.317C229.845 268.194 229.671 294.252 230.927 315.187C227.255 314.858 221.919 314.394 216.739 313.989C216.41 310.857 215.115 299.954 214.013 297.093C213.723 296.32 213.375 296.011 212.08 295.972C208.847 296.114 205.63 296.495 202.453 297.113H202.357ZM209.258 223.366C207.3 222.222 205.736 220.51 204.773 218.456C205.668 218.834 206.601 219.113 207.557 219.288C207.919 219.696 208.386 219.996 208.908 220.156C209.43 220.317 209.985 220.33 210.514 220.196C211.384 219.925 210.823 219.81 211.287 221.027C211.466 221.518 211.766 221.955 212.16 222.298C212.553 222.64 213.028 222.877 213.539 222.985C214.049 223.093 214.579 223.07 215.078 222.917C215.577 222.764 216.029 222.486 216.391 222.11C217.145 221.433 217.203 220.621 218.111 218.882C219 218.708 219.87 218.476 220.721 218.224C223.021 224.256 230.231 227.175 230.734 227.619C222.248 226.363 214.728 225.57 209.354 223.366H209.258ZM172.201 221.047C176.84 215.673 175.893 211.826 171.118 208.018C161.453 200.44 162.651 202.47 158.592 194.003C153.817 180.259 157.935 158.609 161.472 144.517C162.439 140.65 169.031 136.514 173.825 137.132C180.474 137.983 177.691 141.482 183.374 143.473C184.361 143.761 185.381 143.917 186.409 143.937C186.47 143.956 186.534 143.963 186.597 143.957C186.661 143.951 186.723 143.933 186.779 143.903C186.836 143.874 186.886 143.833 186.927 143.784C186.968 143.735 186.999 143.679 187.018 143.618C187.037 143.557 187.044 143.493 187.038 143.429C187.032 143.366 187.014 143.304 186.984 143.247C186.955 143.191 186.914 143.141 186.865 143.1C186.816 143.059 186.76 143.028 186.699 143.009C183.684 141.2 180.905 139.025 178.425 136.533C179.604 131.72 182.601 129.091 188.226 129.052C192.092 129.052 195.146 131.99 197.891 134.503C201.216 137.538 204.792 145.734 204.522 150.238C203.91 155.457 205.134 160.727 207.982 165.142C209.915 168.506 213.549 171.425 215.714 174.266C216.913 175.852 216.217 182.927 215.521 186.039C214.612 188.764 212.679 193.964 212.235 195.144C204.154 195.434 204.502 199.764 208.368 201.619C204.754 205.949 195.919 210.763 202.241 216.833C203.594 219.674 205.759 223.56 208.658 224.739C210.716 225.573 212.845 226.22 215.018 226.672C215.443 229.668 214.052 239.585 211.925 251.125C200.831 252.971 189.594 253.818 178.348 253.657C171.37 242.233 164.43 231.408 162.671 229.668C166.576 227.683 169.895 224.711 172.297 221.047H172.201ZM159.017 231.234C162.883 229.784 160.95 230.035 161.878 230.751C162.806 231.466 169.185 241.576 176.589 253.58C167.813 253.445 157.935 252.788 154.204 252.362C155.325 251.473 152.426 236.202 151.304 234.269C154.107 233.148 156.698 232.162 159.114 231.234H159.017ZM149.874 234.868C151.463 240.56 152.544 246.382 153.102 252.266C144.761 251.07 136.579 248.95 128.707 245.945C135.453 241.63 142.568 237.923 149.971 234.868H149.874ZM151.633 374.629C144.384 376.446 135.898 375.383 128.591 373.817C117.166 371.362 109.26 363.726 104.118 353.945C95.9413 338.48 93.5057 315.496 95.9993 299.394C96.5019 296.166 97.1398 292.976 97.6811 289.729C100.755 271.306 111.947 257.427 127.566 246.93C142.896 252.556 153.199 254.527 177.285 254.663C193.967 281.726 194.334 284.432 199.109 297.673C197.64 297.944 190.836 299.317 189.676 300.264C189.212 300.631 189.212 301.366 189.676 312.983C172.085 313.331 154.881 316.076 138.701 326.515C136.768 312.577 138.991 308.363 143.495 300.38C150.57 287.834 149.294 285.514 144.829 278.381C144.092 277.418 143.566 276.312 143.282 275.134C143.282 274.67 141.349 274.032 144.075 278.826C147.941 285.862 148.985 287.525 142.142 299.606C137.135 308.46 135.086 313.003 138.101 326.921C136.748 327.829 135.202 328.854 133.713 330.052C131.439 331.653 129.305 333.445 127.334 335.407C127.296 335.481 127.289 335.568 127.314 335.648C127.339 335.727 127.395 335.794 127.47 335.832C127.544 335.871 127.631 335.878 127.71 335.853C127.79 335.827 127.856 335.771 127.895 335.697C128.494 334.634 138.488 327.965 141.175 326.592C156.176 319.034 172.761 312.5 199.921 314.298C199.579 325.79 200.768 337.277 203.458 348.455C189.502 357.27 169.668 370.144 151.73 374.629H151.633ZM204.657 347.682C202.174 336.781 201.076 325.609 201.39 314.433C230.734 316.366 221.533 315.748 231.005 316.366C231.353 322.011 231.875 328.139 232.648 333.764C225.07 335.175 211.442 343.487 204.754 347.682H204.657ZM274.905 370.685C257.836 374.725 245.715 365.408 238.022 349.634C229.516 332.237 230.927 256.673 231.411 237.42L249.079 226.479C272.933 277.995 275.794 282.866 281.148 299.935C288.069 321.682 297.193 365.543 275.001 370.685H274.905ZM290.485 341.109C290.037 330.758 288.442 320.489 285.73 310.49C279.602 286.655 272.972 274.709 254.627 236.144L255.168 235.854C271.367 244.514 285.092 271.403 288.687 289.361C290.659 298.737 294.429 329.395 290.582 341.109H290.485Z" fill="black"/>
</svg>
