<svg width="242" height="200" viewBox="0 0 242 200" fill="none" xmlns="http://www.w3.org/2000/svg">
<path d="M166.088 36.104C165.731 31.8951 165.88 27.3173 167.272 22.7457L167.902 21.056L168.226 20.2151C168.35 19.9399 168.493 19.6709 168.628 19.3991L169.464 17.7807C169.769 17.2568 170.124 16.7611 170.458 16.2541C171.113 15.2433 171.892 14.2607 172.738 13.3794C173.147 12.9206 173.602 12.5202 174.038 12.0937C174.497 11.7037 174.943 11.2889 175.422 10.9311C177.313 9.45194 179.362 8.26201 181.484 7.35717C183.604 6.43852 185.795 5.78554 188.016 5.36664C192.461 4.5464 196.994 4.59457 201.334 5.49219C205.683 6.35073 209.83 8.04839 213.589 10.3981C217.314 12.7839 220.676 15.8986 223.222 19.5486C228.345 26.8063 230.675 35.8415 229.517 44.6881C228.931 49.1593 227.527 52.9826 226.524 56.4529C225.49 59.9195 224.82 63.0523 225.138 65.7538C225.379 68.385 226.678 71.0201 228.62 73.1582C230.561 75.2928 233.15 76.9545 235.89 77.6807C238.598 78.4207 241.664 78.3429 244.566 77.5103C247.479 76.6762 250.24 75.0842 252.5 73.0059C253.071 72.491 253.592 71.9285 254.096 71.3558L254.817 70.4656L255.517 69.4905C256.434 68.1374 257.299 66.6155 258.176 64.9968C259.95 61.774 261.669 58.0841 264.587 54.5318C266.125 52.6677 268.07 50.8747 270.38 49.5638C272.694 48.1909 275.254 47.4686 277.662 47.1075C282.438 46.4186 287.226 46.956 291.679 48.4383C296.123 49.9242 300.161 52.3352 303.588 55.332C307.021 58.3291 309.913 61.8729 312.159 65.7877C314.396 69.7057 316.018 73.9876 316.858 78.4724C317.265 80.7165 317.474 83.008 317.458 85.3107C317.466 85.8861 317.448 86.462 317.405 87.0386C317.37 87.6147 317.346 88.1953 317.256 88.75C317.099 89.8702 316.971 90.9974 316.775 92.1094C315.941 96.5594 314.308 100.805 312.16 104.699C310.003 108.595 307.306 112.141 304.234 115.282C300.112 119.454 295.327 122.921 290.108 125.564C284.905 128.188 279.077 129.875 273.482 130.696C267.856 131.571 262.366 131.807 257.066 132.172C251.773 132.526 246.654 132.995 241.851 134.136C232.33 136.44 223.467 141.71 216.822 148.989C213.46 152.593 210.708 156.726 208.596 161.129C207.571 163.236 206.862 165.412 206.501 167.545C206.337 168.602 206.243 169.644 206.288 170.607C206.339 171.565 206.499 172.442 206.76 173.201C207.009 173.972 207.411 174.568 207.887 175.117C208.102 175.412 208.426 175.614 208.689 175.875C208.835 175.987 209 176.064 209.148 176.17L209.374 176.323L209.63 176.433C210.924 177.1 212.797 177.266 214.882 177.015C216.979 176.728 219.226 176.085 221.449 175.169C222.565 174.733 223.67 174.201 224.776 173.665L228.296 171.869C232.97 169.437 237.567 166.858 242.077 164.136C244.332 162.775 246.566 161.378 248.777 159.947L255.516 155.514C257.855 154.012 260.319 152.521 263.001 151.221C264.344 150.574 265.74 149.978 267.19 149.46C268.639 148.945 270.161 148.518 271.682 148.192C277.806 146.864 284.178 147.367 289.985 149.097C295.818 150.832 301.126 153.81 305.758 157.531C310.386 161.265 314.358 165.791 317.406 170.941C318.919 173.502 320.25 176.273 321.206 179.07C321.689 180.46 322.192 181.845 322.536 183.273L323.105 185.4C323.264 186.115 323.397 186.834 323.542 187.551C324.671 193.296 324.95 199.14 324.582 204.871C323.794 216.355 320.555 227.335 316.067 237.581C314.965 240.136 313.697 242.789 312.041 245.42C310.376 248.032 308.239 250.689 305.282 252.775C303.807 253.815 302.164 254.662 300.361 255.273C298.568 255.848 296.717 256.135 294.899 256.175C293.075 256.225 291.297 255.983 289.593 255.568C287.888 255.15 286.25 254.548 284.72 253.752C283.188 252.96 281.73 252.03 280.402 250.912C279.08 249.804 277.843 248.491 276.831 247.171C274.796 244.477 273.326 241.46 272.402 238.39C271.452 235.317 271.014 232.19 270.911 229.097C270.865 227.565 270.928 225.95 271.014 224.598L271.257 220.641C271.385 218.142 271.353 215.798 270.951 214.079C270.743 213.24 270.462 212.603 270.165 212.159C270.078 212.063 270.013 211.949 269.935 211.848C269.837 211.771 269.751 211.687 269.672 211.592C269.589 211.5 269.455 211.45 269.36 211.362C269.264 211.263 269.151 211.219 269.046 211.167C268.628 210.948 268.195 210.833 267.586 210.823C266.983 210.815 266.224 210.943 265.403 211.224C263.748 211.782 261.932 212.946 260.397 214.324C260.205 214.508 260.023 214.662 259.821 214.865L259.211 215.488C258.794 215.893 258.421 216.343 258.027 216.771C257.636 217.202 257.283 217.668 256.906 218.113L255.855 219.514C254.504 221.421 253.335 223.463 252.37 225.596C251.404 227.728 250.642 229.953 250.125 232.227C249.591 234.536 249.349 236.683 249.166 239.394C249.068 240.717 248.967 242.132 248.798 243.61C248.637 245.08 248.397 246.646 247.98 248.285C247.793 249.094 247.499 249.948 247.206 250.787L246.66 252.069C246.482 252.493 246.22 252.924 245.995 253.346C245.029 255.029 243.717 256.678 242.11 257.93C241.727 258.269 241.3 258.516 240.89 258.804C240.478 259.082 240.059 259.357 239.604 259.59C238.71 260.066 237.787 260.445 236.86 260.739C235.933 261.035 235.001 261.243 234.076 261.384C233.125 261.534 232.306 261.544 231.436 261.598C227.982 261.734 224.548 261.036 221.492 259.857C218.42 258.681 215.682 257.063 213.218 255.271C210.761 253.467 208.563 251.484 206.52 249.436C204.462 247.367 202.64 245.296 200.86 243.314C199.081 241.33 197.349 239.419 195.587 237.682C194.502 236.616 193.402 235.625 192.288 234.707C191.17 233.8 190.027 233.001 188.865 232.29C188.279 231.951 187.695 231.615 187.095 231.335L186.652 231.115L186.241 230.952C185.963 230.849 185.707 230.709 185.415 230.628C184.284 230.228 183.061 230.004 181.837 229.861C180.604 229.749 179.37 229.798 178.178 229.944C176.996 230.129 175.887 230.457 174.895 230.885C173.913 231.329 173.12 231.917 172.473 232.551C171.801 233.175 171.414 233.944 171.073 234.776C170.763 235.626 170.624 236.54 170.666 237.554C170.707 238.565 170.934 239.667 171.336 240.789C172.156 243.039 173.632 245.322 175.437 247.264C175.672 247.503 175.885 247.739 176.136 247.984L176.914 248.728C177.453 249.219 178.005 249.709 178.583 250.195C179.741 251.168 180.981 252.134 182.274 253.126C184.856 255.115 187.67 257.192 190.388 259.772C191.065 260.422 191.736 261.091 192.387 261.804C193.038 262.52 193.736 263.331 194.325 264.145C195.541 265.781 196.586 267.534 197.443 269.414C198.301 271.291 198.954 273.312 199.322 275.473C199.686 277.629 199.753 279.948 199.323 282.303C199.269 282.597 199.222 282.89 199.154 283.183L198.907 284.061L198.645 284.934L198.299 285.787L197.937 286.635C197.807 286.913 197.648 287.177 197.501 287.447L197.043 288.248L196.926 288.447L196.824 288.599L196.622 288.898C195.578 290.498 194.356 292.051 192.975 293.518C191.592 294.983 190.018 296.357 188.245 297.529C186.475 298.702 184.504 299.661 182.444 300.318C178.304 301.657 173.969 301.709 170.098 301.079C166.196 300.448 162.645 299.217 159.323 297.786C152.691 294.884 146.886 291.166 141.279 287.463L133.043 281.93C130.342 280.136 127.654 278.396 125.034 276.973C123.73 276.267 122.44 275.65 121.262 275.21C120.687 275.009 120.126 274.829 119.664 274.737C119.044 274.638 118.331 274.482 117.67 274.422C114.977 274.089 112.316 274.217 109.601 274.792C106.885 275.347 104.106 276.373 101.156 277.584C98.1943 278.793 95.0703 280.214 91.5414 281.363C89.7826 281.935 87.9334 282.435 86.0059 282.787C84.0724 283.126 82.0696 283.306 80.0615 283.297C78.0487 283.308 76.0473 283.052 74.1026 282.685L72.6543 282.372C72.1775 282.254 71.7115 282.115 71.2402 281.985L70.5357 281.786L69.9162 281.594L68.6956 281.205C65.4195 280.136 61.882 278.884 58.4107 276.765C56.6821 275.712 54.9929 274.417 53.4781 272.893C51.9668 271.374 50.6638 269.628 49.6167 267.766C47.511 264.027 46.4978 259.874 46.2873 255.876C46.0671 251.859 46.6327 247.962 47.6746 244.269C48.718 240.57 50.2958 237.076 52.3042 233.826C53.3076 232.2 54.4323 230.641 55.6841 229.167C56.9213 227.689 58.3466 226.28 59.6949 225.092C65.1964 220.164 71.4604 216.553 77.6271 213.578C83.8051 210.581 89.971 208.094 95.7535 205.36C98.6719 203.984 101.365 202.59 103.986 200.986C106.597 199.393 109.095 197.646 111.362 195.71C115.898 191.862 119.67 187.306 121.572 182.291L122.187 180.396C122.379 179.763 122.467 179.112 122.625 178.473C122.658 178.313 122.701 178.153 122.728 177.992L122.776 177.503L122.882 176.526C122.978 175.859 122.991 175.264 122.98 174.665C122.957 173.474 122.769 172.36 122.466 171.468C122.148 170.582 121.751 169.95 121.3 169.538C120.785 169.09 120.286 168.815 119.564 168.658C118.847 168.502 117.884 168.504 116.8 168.709C114.621 169.109 112.098 170.271 109.871 171.801C109.586 171.987 109.309 172.181 109.042 172.389C108.77 172.593 108.511 172.777 108.183 173.043L106.283 174.559C104.989 175.598 103.623 176.687 102.148 177.756C100.671 178.825 99.0798 179.884 97.2841 180.83C95.4908 181.769 93.4773 182.61 91.216 183.074C90.6498 183.182 90.0686 183.264 89.4942 183.349C88.9134 183.417 88.3142 183.431 87.7243 183.462C86.5369 183.466 85.3518 183.395 84.1272 183.142C81.706 182.679 79.4078 181.663 77.4705 180.308C75.5325 178.943 73.9656 177.263 72.6861 175.465C71.4123 173.661 70.4143 171.725 69.7284 169.697C69.0317 167.672 68.5912 165.566 68.4313 163.406C68.3903 162.317 68.3595 161.229 68.4662 160.122C68.4933 159.556 68.5668 159.046 68.6448 158.539C68.7193 158.028 68.7905 157.516 68.9081 157.018C69.7044 152.967 71.4092 149.327 73.374 146.095C77.3645 139.653 82.6312 134.759 87.1338 130.191C89.3974 127.893 91.519 125.638 93.3089 123.311C95.0669 121.015 96.6579 118.48 97.3516 116.351C97.7169 115.265 97.8843 114.248 97.866 113.348C97.8568 112.442 97.6529 111.652 97.2672 110.874C96.5376 109.329 94.8358 107.781 92.6413 106.717C91.5543 106.179 90.3611 105.748 89.1466 105.467C87.9368 105.177 86.6973 105.03 85.5953 105.053C84.3439 105.098 82.9559 105.237 81.6021 105.5C80.2314 105.772 78.8369 106.137 77.4205 106.578C74.5794 107.483 71.6557 108.685 68.5851 109.952C67.0501 110.585 65.4659 111.228 63.8373 111.849C62.2321 112.469 60.4327 113.074 58.673 113.573C55.1128 114.565 51.3585 115.237 47.3721 115.219C45.3883 115.23 43.3281 114.991 41.2738 114.537C39.2183 114.091 37.1467 113.327 35.2182 112.251C31.3152 110.167 28.1637 106.67 26.241 102.809C25.9676 102.334 25.7957 101.837 25.5866 101.347C25.3915 100.856 25.1756 100.364 25.0071 99.8684L24.5605 98.3772L24.3436 97.6298L24.1874 96.885L23.8875 95.393C23.7943 94.896 23.7547 94.4062 23.6886 93.912C23.5456 92.9203 23.5026 91.9481 23.4626 90.9747C23.3202 87.0833 23.7943 83.3436 24.6171 79.7348C24.8225 78.832 25.04 77.9327 25.3061 77.0498C25.5449 76.1579 25.8347 75.2826 26.1316 74.4094C26.4105 73.5093 26.7598 72.7384 27.0739 71.901L28.0435 69.436C31.3291 61.5702 35.8537 54.2767 41.1193 47.6644C41.7503 46.8132 42.4738 46.043 43.1532 45.2344C43.8476 44.439 44.5226 43.6251 45.2349 42.8477L47.4159 40.559L48.508 39.4165L49.6476 38.3252L51.9336 36.1515C52.6987 35.4311 53.5117 34.7666 54.2989 34.0727C55.1007 33.3963 55.8681 32.6774 56.6984 32.0387L59.1653 30.0932C65.7733 24.9455 72.964 20.6485 80.4255 17.0477C84.1287 15.2314 88.0321 13.5814 92.2273 12.3531C96.4079 11.1387 100.959 10.4054 105.618 10.7692C106.177 10.8273 106.718 10.8616 107.283 10.9458C107.849 11.0395 108.417 11.1184 108.97 11.2335C109.519 11.3626 110.066 11.4876 110.605 11.628C111.134 11.7941 111.661 11.9591 112.185 12.1234C114.252 12.8527 116.173 13.8228 117.921 14.9967C119.668 16.171 121.245 17.5529 122.593 19.121C123.941 20.6884 125.026 22.478 125.797 24.3628C125.991 24.8343 126.184 25.3013 126.313 25.7947C126.449 26.2835 126.615 26.7582 126.706 27.2514C126.793 27.7445 126.88 28.2346 126.966 28.7216C127.029 29.2207 127.051 29.7408 127.085 30.2431C127.136 32.2484 126.818 34.0425 126.396 35.6586C125.524 38.8895 124.23 41.4582 123.013 43.818C120.517 48.4679 118.109 52.1868 116.383 55.6002C114.645 58.9901 113.566 62.0296 113.566 64.7595C113.548 65.2592 113.614 65.7161 113.632 66.1648C113.715 66.5916 113.757 67.0133 113.846 67.3922C113.945 67.7763 114.036 68.1289 114.119 68.4503C114.236 68.7628 114.337 69.0552 114.424 69.3256C114.805 70.3849 115.024 71.0271 114.837 71.3052C114.666 71.5724 114.147 71.4335 113.241 70.8108C112.415 70.1397 111.152 68.8957 110.305 66.7034C110.104 66.1595 109.89 65.5706 109.77 64.9352C109.604 64.296 109.535 63.6281 109.462 62.9155C109.37 61.5102 109.42 59.9633 109.686 58.3887C110.195 55.2219 111.368 51.862 112.846 48.3561C114.298 44.847 116.134 41.1174 117.486 37.2253C118.161 35.2912 118.625 33.318 118.67 31.5984C118.652 31.1857 118.658 30.765 118.587 30.3964L118.555 30.1081L118.476 29.7984L118.333 29.1733C118.051 28.3568 117.73 27.5295 117.217 26.742C115.954 24.7422 113.893 22.9858 111.462 21.8053C110.244 21.223 108.943 20.7789 107.623 20.4999C107.293 20.4236 106.962 20.356 106.63 20.3218C106.296 20.2788 105.977 20.2164 105.611 20.2018C104.902 20.1349 104.182 20.1203 103.457 20.1216C100.552 20.1482 97.5208 20.7702 94.4737 21.7452C91.4263 22.7321 88.3474 24.0464 85.2762 25.5929C72.9706 31.6227 61.6212 39.8915 52.6311 49.758C47.4901 55.4581 43.0608 61.7652 39.5708 68.5374C39.1493 69.3902 38.7602 70.2581 38.3516 71.1173C37.9538 71.9809 37.5176 72.8294 37.1923 73.7224C36.4973 75.487 35.7426 77.2664 35.2171 78.9746C34.1554 82.4521 33.4831 86.0627 33.4574 89.5468C33.4523 91.2799 33.5567 92.9981 33.9179 94.5826C34.2571 96.1726 34.7424 97.6883 35.4981 98.9691C36.2443 100.253 37.1036 101.436 38.2649 102.325C39.3723 103.265 40.6607 103.966 42.0931 104.456C44.9609 105.438 48.419 105.506 51.9114 104.948C53.6614 104.666 55.4259 104.236 57.1751 103.695C58.9029 103.162 60.6956 102.478 62.5221 101.751C66.171 100.3 69.9446 98.6257 74.0768 97.2972C76.1411 96.6354 78.2967 96.0639 80.5437 95.6859C81.1019 95.5825 81.6681 95.5004 82.2435 95.4407C82.8138 95.3682 83.3868 95.3048 83.9704 95.278C85.0801 95.182 86.4363 95.1781 87.6427 95.2827C90.0978 95.493 92.4359 96.0401 94.6908 96.8948C95.8192 97.315 96.9226 97.8233 97.9965 98.4198C99.0731 99.0059 100.116 99.6957 101.111 100.488C102.109 101.27 103.053 102.174 103.904 103.198C104.762 104.21 105.526 105.356 106.123 106.608C106.731 107.849 107.187 109.195 107.427 110.567C107.577 111.252 107.616 111.94 107.681 112.628C107.684 113.306 107.727 114.002 107.653 114.663C107.457 117.344 106.691 119.812 105.671 121.983C105.405 122.514 105.14 123.056 104.866 123.575L104.02 125.048C103.433 126.01 102.817 126.944 102.175 127.848C99.5939 131.455 96.6461 134.541 93.7779 137.446C90.9013 140.357 88.0836 143.078 85.6698 145.937C83.2466 148.794 81.1646 151.803 79.8284 154.942C79.1602 156.509 78.6827 158.101 78.4293 159.699C78.2964 160.529 78.2395 161.228 78.2483 161.984C78.251 162.734 78.3252 163.497 78.4632 164.252C78.9929 167.274 80.592 170.208 82.7248 171.888C83.7865 172.733 84.9403 173.259 86.147 173.458C87.3856 173.666 88.7258 173.574 90.1073 173.147C92.9121 172.284 95.8945 170.156 98.9277 167.724L101.268 165.843L102.497 164.869C102.96 164.526 103.413 164.168 103.887 163.842C105.772 162.522 107.78 161.371 109.97 160.443C112.16 159.525 114.543 158.81 117.202 158.606C117.852 158.531 118.562 158.576 119.239 158.572C119.936 158.619 120.647 158.699 121.354 158.818C122.774 159.121 124.228 159.572 125.535 160.348C125.862 160.538 126.197 160.718 126.508 160.929L127.399 161.613C127.992 162.061 128.545 162.596 129.039 163.158C130.036 164.284 130.813 165.544 131.388 166.818C132.537 169.384 132.948 171.964 133.02 174.428C133.036 175.046 133.028 175.659 133 176.269C132.96 176.866 132.888 177.443 132.83 178.032C132.762 178.616 132.717 179.205 132.624 179.785L132.264 181.511C131.789 183.815 130.977 186.02 130.038 188.132C128.124 192.357 125.405 196.035 122.379 199.246C119.341 202.461 115.969 205.227 112.431 207.663L111.101 208.572L109.742 209.427L108.38 210.276L106.994 211.074C106.076 211.619 105.135 212.116 104.192 212.609C103.247 213.122 102.318 213.566 101.386 214.029C97.6557 215.854 93.9231 217.495 90.2694 219.13C82.9759 222.388 75.9452 225.684 70.0675 230.109C68.5903 231.202 67.2155 232.386 65.9082 233.622C64.6314 234.817 63.5534 236.075 62.5337 237.476C60.5192 240.256 58.9698 243.439 58.0068 246.729C57.4779 248.545 57.1255 250.4 56.9767 252.236C56.8449 254.07 56.9245 255.88 57.2285 257.593C57.5473 259.3 58.1089 260.893 58.8868 262.32C59.6926 263.729 60.7093 264.975 61.9502 266.033C64.4456 268.153 68.0573 269.598 72.1817 270.878L73.7418 271.359L75.084 271.725L76.4232 272.007C76.8689 272.088 77.3138 272.135 77.758 272.207C79.5364 272.419 81.2998 272.395 83.0935 272.133C86.6821 271.634 90.3954 270.171 94.5015 268.417C98.5916 266.697 103.15 264.733 108.285 263.808C110.835 263.341 113.487 263.14 116.107 263.252C117.418 263.299 118.717 263.44 119.997 263.629C120.646 263.744 121.24 263.833 121.932 263.975C122.695 264.14 123.404 264.341 124.081 264.559C126.756 265.455 128.932 266.597 131 267.761C133.064 268.931 134.966 270.158 136.827 271.385C142.726 275.313 148.229 279.338 153.891 282.835C156.714 284.582 159.561 286.205 162.436 287.552C165.306 288.899 168.214 289.98 171.037 290.543C173.86 291.109 176.559 291.137 178.943 290.438C181.333 289.761 183.495 288.37 185.413 286.357C186.367 285.353 187.268 284.227 188.083 282.982C188.209 282.812 188.244 282.721 188.306 282.613L188.489 282.299C188.626 282.097 188.677 281.851 188.791 281.636C188.967 281.178 189.096 280.691 189.178 280.17C189.51 278.087 188.943 275.448 187.73 273.028C185.475 268.19 180.185 264.493 174.559 260.113C173.152 259.006 171.718 257.836 170.311 256.549C168.924 255.291 167.465 253.793 166.222 252.197C163.737 248.999 161.693 245.291 160.82 240.885C160.397 238.693 160.316 236.314 160.764 233.949C160.898 233.363 161.033 232.775 161.192 232.195C161.389 231.625 161.591 231.056 161.807 230.492C162.072 229.944 162.346 229.398 162.63 228.857C162.762 228.582 162.922 228.323 163.101 228.074L163.623 227.32C165.056 225.346 166.906 223.721 168.9 222.558C170.902 221.41 173.015 220.656 175.136 220.187C179.383 219.311 183.664 219.514 187.757 220.74C188.267 220.908 188.782 221.042 189.283 221.246L190.786 221.863C191.717 222.309 192.624 222.745 193.486 223.261C195.228 224.26 196.861 225.389 198.36 226.602C204.387 231.452 208.718 237.229 213.253 241.878C214.381 243.042 215.546 244.128 216.728 245.166C217.919 246.184 219.14 247.123 220.385 247.967C221.638 248.78 222.911 249.51 224.204 250.082C225.498 250.627 226.801 251.057 228.103 251.301C229.406 251.51 230.704 251.599 232 251.481C233.194 251.394 234.21 251.077 235.032 250.615C235.901 250.094 236.558 249.492 237.095 248.65C237.637 247.812 238.06 246.681 238.358 245.334C238.976 242.622 239.044 239.279 239.415 235.567C239.816 231.73 240.71 227.923 242.067 224.318C243.424 220.708 245.226 217.269 247.443 214.109C248.553 212.531 249.747 211.007 251.062 209.587C251.702 208.855 252.391 208.196 253.092 207.493C253.852 206.779 254.634 206.094 255.469 205.468C257.131 204.209 258.944 203.106 260.993 202.25C263.045 201.414 265.387 200.818 267.986 200.885C270.57 200.912 273.391 201.911 275.482 203.549C276.032 203.928 276.516 204.404 276.989 204.893C277.487 205.361 277.868 205.91 278.267 206.45C279.039 207.54 279.587 208.705 280.011 209.847C280.828 212.14 281.073 214.301 281.17 216.302C281.256 218.308 281.172 220.186 281.064 221.979C280.958 223.755 280.808 225.508 280.753 227.03C280.702 228.529 280.761 230.024 280.938 231.486C281.29 234.409 282.126 237.201 283.478 239.563C284.844 241.962 286.625 243.771 288.938 245.009C289.785 245.463 290.677 245.813 291.578 246.083C292.482 246.344 293.396 246.469 294.286 246.512C295.183 246.564 296.038 246.435 296.853 246.246C297.666 246.059 298.421 245.725 299.188 245.271C300.693 244.371 302.098 242.979 303.334 241.209C304.579 239.45 305.673 237.397 306.695 235.19C310.846 226.234 313.865 216.707 314.943 207.066C315.477 202.251 315.511 197.413 314.916 192.69L314.692 190.919L314.353 189.173C314.234 188.593 314.141 188.006 314.004 187.431L313.548 185.718C313.384 185.151 313.275 184.566 313.07 184.014L312.497 182.341C312.129 181.206 311.706 180.158 311.222 179.11C307.383 170.742 300.354 163.613 292.021 159.676C287.857 157.72 283.36 156.595 278.914 156.581C276.692 156.572 274.488 156.837 272.356 157.387C270.24 157.935 268.131 158.804 266.042 159.861C261.858 161.994 257.739 164.961 253.28 167.801C248.868 170.627 244.37 173.319 239.795 175.87C237.507 177.146 235.2 178.386 232.874 179.591L229.372 181.372C228.211 181.96 226.899 182.575 225.625 183.117C223.029 184.193 220.31 185.127 217.332 185.651C216.575 185.76 215.836 185.899 215.044 185.942C214.652 185.968 214.269 186.011 213.869 186.02L212.659 186.02C211.035 185.966 209.336 185.766 207.647 185.183C206.798 184.946 205.982 184.523 205.169 184.133C204.772 183.914 204.393 183.654 204.01 183.409L203.441 183.029C203.263 182.89 203.093 182.741 202.92 182.595C201.493 181.487 200.339 180.001 199.449 178.433C198.55 176.85 198.023 175.14 197.74 173.487C197.446 171.824 197.395 170.194 197.511 168.64C197.613 167.076 197.86 165.57 198.22 164.123C198.565 162.668 199.018 161.266 199.554 159.907C199.811 159.222 200.113 158.558 200.409 157.891L201.344 156.021C201.94 154.761 202.684 153.586 203.37 152.378C208.533 143.916 215.859 136.904 224.382 131.954C228.66 129.499 233.257 127.585 238.037 126.292C242.825 124.969 247.652 124.397 252.34 124.003C257.034 123.628 261.616 123.449 266.066 123.082C270.498 122.696 274.845 122.151 278.874 120.973C286.94 118.697 294.421 114.001 299.987 107.717C302.767 104.576 305.062 101.029 306.667 97.2237C307.12 96.2897 307.411 95.3018 307.74 94.3269C308.112 93.3622 308.292 92.3509 308.538 91.3557C308.824 90.3657 308.89 89.3415 309.049 88.3313C309.123 87.8246 309.202 87.3169 309.214 86.8207C309.247 86.3218 309.282 85.8227 309.271 85.3198C309.355 77.2752 305.786 69.0856 300.049 63.2374C297.182 60.3108 293.756 57.9637 290.029 56.5469C288.167 55.8387 286.235 55.3602 284.278 55.1504C282.34 54.9432 280.299 54.9817 278.458 55.3016C277.537 55.4607 276.666 55.6993 275.86 56.0136C275.055 56.3182 274.337 56.7525 273.617 57.2391C272.204 58.2364 270.947 59.6243 269.797 61.2831C267.474 64.6077 265.695 68.8688 263.025 73.0918C261.703 75.1985 260.013 77.3446 258.078 79.1126C256.145 80.8952 253.98 82.4171 251.63 83.5945C246.952 85.9528 241.499 87.0434 236.124 86.2199C230.686 85.3685 225.806 82.5215 222.231 78.5147C220.451 76.4993 218.968 74.1731 218.011 71.5859C217.036 69.0217 216.617 66.1467 216.722 63.4859C216.812 60.802 217.353 58.2939 217.966 55.9416C218.596 53.6017 219.321 51.3957 219.932 49.275C220.535 47.1549 221.049 45.1185 221.256 43.1319C221.475 41.1214 221.455 39.0746 221.207 37.0499C220.712 33.0003 219.303 29.039 217.119 25.6004C214.942 22.1524 211.969 19.2848 208.446 17.1938C204.935 15.1014 200.93 13.7897 196.859 13.4085C192.794 13.0232 188.64 13.5728 184.977 15.1425C183.145 15.9139 181.461 16.952 180.028 18.2104C179.319 18.8458 178.65 19.5201 178.083 20.2647C177.798 20.6393 177.553 21.0531 177.281 21.4414C177.153 21.6417 177 21.8277 176.889 22.038L176.568 22.676C176.086 23.499 175.795 24.424 175.445 25.3211C175.208 26.271 174.922 27.2031 174.805 28.206C174.498 30.1814 174.426 32.2546 174.585 34.3746C174.717 36.4896 175.012 38.6396 175.431 40.8064C175.828 42.9711 176.338 45.1517 176.879 47.3523L178.546 54.0424C179.106 56.3275 179.582 58.6406 179.994 60.969C181.627 70.2609 182.026 80.0149 179.943 89.5127C179.834 89.983 179.747 90.4608 179.618 90.9241L179.223 92.309L178.428 95.0734C178.199 96.0016 177.795 96.8895 177.463 97.7922L176.418 100.486L175.126 103.09L174.474 104.387C174.266 104.823 173.971 105.219 173.722 105.637L172.161 108.103C171.588 108.893 170.963 109.65 170.365 110.42C167.879 113.432 164.933 116.109 161.579 118.15C158.22 120.175 154.528 121.605 150.702 122.301C148.789 122.668 146.849 122.837 144.84 122.809C143.837 122.776 142.757 122.69 141.728 122.454C140.689 122.253 139.7 121.912 138.735 121.534C134.921 119.926 131.749 117.164 129.696 113.643C128.666 111.89 127.928 109.922 127.651 107.835C127.487 106.799 127.498 105.73 127.57 104.675C127.699 103.621 127.894 102.568 128.265 101.577C128.967 99.5797 130.142 97.8132 131.53 96.3865C132.921 94.952 134.509 93.833 136.14 92.915C136.995 92.4326 137.701 92.0753 138.441 91.6873C139.184 91.3105 139.902 90.8996 140.629 90.502C142.076 89.6989 143.484 88.8475 144.869 87.9735C147.607 86.1921 150.242 84.2809 152.533 82.0928C154.824 79.9226 156.852 77.4821 158.021 74.7616C159.22 72.0693 159.389 69.0653 158.091 66.5553C156.828 64.0346 154.291 62.1582 151.475 61.2378C148.649 60.3076 145.506 60.2416 142.644 61.1348C141.208 61.5669 139.858 62.2596 138.629 63.1267C137.408 64.006 136.335 65.0923 135.426 66.3068C134.968 66.9118 134.564 67.5579 134.191 68.2221C133.782 68.8935 133.373 69.5638 132.966 70.2327C132.003 71.4686 130.988 72.6959 129.637 73.4791C129.489 73.5772 129.343 73.6742 129.198 73.7707C129.039 73.8425 128.882 73.9138 128.725 73.9845C128.412 74.12 128.111 74.269 127.805 74.3833C127.163 74.5323 126.569 74.7517 125.958 74.7612C124.759 74.9242 123.649 74.7083 122.676 74.5006C120.731 73.9636 119.329 73.059 118.37 72.2669C117.425 71.4454 116.873 70.755 116.668 70.2752C116.45 69.805 116.487 69.5744 116.75 69.5632C117.023 69.5432 117.451 69.7572 118.195 70.1003C118.932 70.4316 119.956 70.9361 121.282 71.3084C122.597 71.6819 124.207 71.8599 125.686 71.4674C125.878 71.4364 126.043 71.3232 126.228 71.2655C126.41 71.1982 126.6 71.146 126.766 71.0178C126.939 70.9106 127.117 70.8099 127.303 70.7156C127.472 70.5758 127.64 70.4246 127.818 70.2874C127.906 70.2157 128 70.1538 128.089 70.0773L128.337 69.7925C128.509 69.608 128.684 69.4206 128.862 69.2302C129.021 68.996 129.183 68.7581 129.347 68.5167L129.604 68.16C129.688 68.0358 129.752 67.879 129.829 67.7395L130.501 66.4674C130.808 65.8379 131.134 65.2148 131.508 64.6075C132.249 63.393 133.126 62.2308 134.142 61.174C136.167 59.0511 138.778 57.4135 141.6 56.4822C144.426 55.5448 147.444 55.2881 150.389 55.697C153.331 56.1076 156.24 57.181 158.794 59.0613C160.067 60.0017 161.243 61.1526 162.22 62.5105C163.19 63.8716 163.943 65.4443 164.383 67.1017C164.828 68.7583 164.954 70.4841 164.814 72.1235C164.676 73.7672 164.283 75.3223 163.751 76.757C162.677 79.6351 161.077 82.0477 159.331 84.1643C157.576 86.2853 155.651 88.1368 153.649 89.8189C149.632 93.168 145.324 95.8945 140.921 98.3355C137.089 100.315 135.118 102.766 134.971 105.325C134.895 106.624 135.275 108.077 136.057 109.473C136.869 110.85 138.04 112.153 139.431 113.089C140.122 113.561 140.854 113.955 141.599 114.258C142.347 114.545 143.103 114.732 143.841 114.824C144.541 114.931 145.496 114.886 146.434 114.843L147.884 114.678L149.342 114.407C152.542 113.722 155.616 112.364 158.326 110.483C161.046 108.598 163.393 106.147 165.378 103.334L166.754 101.12C166.868 100.935 166.989 100.755 167.099 100.566L167.39 99.9681L167.976 98.7753C168.833 97.2341 169.381 95.4835 170.051 93.8101C170.23 93.3968 170.353 92.9536 170.473 92.5081L170.848 91.1799C171.091 90.2938 171.371 89.4111 171.592 88.5232C171.997 86.7492 172.327 84.9491 172.549 83.1218C173.446 75.8076 172.878 68.1763 171.389 60.634C171.028 58.7405 170.59 56.8734 170.123 54.9705L168.636 49.0646C167.643 45.059 166.727 40.8579 166.278 36.4055C166.215 36.312 166.156 36.2227 166.089 36.1041L166.088 36.104Z" fill="black" fill-opacity="0.12"/>
</svg>
